<svg width="315" height="65" viewBox="0 0 315 65" fill="none" xmlns="http://www.w3.org/2000/svg">
<path d="M312.64 7L285 35.3471" stroke="#3BCF16" stroke-width="6"/>
<path fill-rule="evenodd" clip-rule="evenodd" d="M275 5H261H255V11V59V65H261H309H315V59V46H309V59H261V11H275V5ZM296 11H309V25H315V11V5H309H296V11Z" fill="#3BCF16"/>
<line x1="244.5" y1="11.5" x2="244.5" y2="58.5" stroke="black" stroke-width="3" stroke-linecap="round"/>
<path d="M8.7457 41.342C6.4297 41.222 4.7737 40.598 3.7777 39.47C2.7937 38.342 2.2537 36.56 2.1577 34.124C2.1457 33.74 2.1397 33.32 2.1397 32.864C2.1397 32.396 2.1517 31.934 2.1757 31.478C2.1997 31.01 2.2417 30.584 2.3017 30.2H7.3777C7.3297 31.076 7.2997 31.94 7.2877 32.792C7.2757 33.644 7.3057 34.424 7.3777 35.132C7.4257 35.576 7.5577 35.948 7.7737 36.248C8.0017 36.536 8.3257 36.74 8.7457 36.86V41.342ZM10.5457 41.342V36.86C10.9297 36.728 11.2237 36.518 11.4277 36.23C11.6317 35.942 11.7577 35.576 11.8057 35.132C11.8537 34.724 11.8837 34.322 11.8957 33.926C11.9197 33.518 11.9197 33.116 11.8957 32.72C11.8837 32.312 11.8537 31.904 11.8057 31.496C11.7577 30.992 11.6017 30.536 11.3377 30.128C11.0737 29.72 10.6537 29.444 10.0777 29.3L7.1257 28.544C5.8777 28.22 4.8877 27.758 4.1557 27.158C3.4237 26.546 2.8897 25.79 2.5537 24.89C2.2297 23.99 2.0497 22.94 2.0137 21.74C2.0017 21.212 1.9957 20.744 1.9957 20.336C1.9957 19.916 2.0017 19.484 2.0137 19.04C2.1097 16.604 2.6617 14.828 3.6697 13.712C4.6777 12.596 6.3697 11.978 8.7457 11.858V16.34C8.3377 16.46 8.0257 16.664 7.8097 16.952C7.6057 17.228 7.4737 17.588 7.4137 18.032C7.3417 18.644 7.3057 19.262 7.3057 19.886C7.3057 20.51 7.3417 21.128 7.4137 21.74C7.4737 22.22 7.6417 22.658 7.9177 23.054C8.1937 23.45 8.6377 23.72 9.2497 23.864L11.8057 24.476C13.1497 24.8 14.2057 25.28 14.9737 25.916C15.7537 26.54 16.3117 27.32 16.6477 28.256C16.9957 29.18 17.1937 30.26 17.2417 31.496C17.2537 31.772 17.2597 32.06 17.2597 32.36C17.2597 32.66 17.2537 32.96 17.2417 33.26C17.2297 33.56 17.2177 33.848 17.2057 34.124C17.1097 36.56 16.5577 38.342 15.5497 39.47C14.5417 40.598 12.8737 41.222 10.5457 41.342ZM11.8417 23C11.8777 22.172 11.9017 21.344 11.9137 20.516C11.9257 19.688 11.9137 18.86 11.8777 18.032C11.8657 17.6 11.7397 17.246 11.4997 16.97C11.2717 16.682 10.9537 16.478 10.5457 16.358V11.858C12.7777 11.978 14.4037 12.602 15.4237 13.73C16.4437 14.846 17.0017 16.616 17.0977 19.04C17.1217 19.556 17.1217 20.186 17.0977 20.93C17.0857 21.674 17.0617 22.364 17.0257 23H11.8417ZM38.5225 41L35.8225 31.28H35.7865V26.528H35.8225C36.5785 26.528 37.1485 26.354 37.5325 26.006C37.9165 25.658 38.1265 25.172 38.1625 24.548C38.1985 23.96 38.2225 23.348 38.2345 22.712C38.2465 22.064 38.2465 21.422 38.2345 20.786C38.2225 20.138 38.1985 19.52 38.1625 18.932C38.1265 18.296 37.9165 17.81 37.5325 17.474C37.1485 17.126 36.5785 16.952 35.8225 16.952H35.7865V12.2H35.8225C38.5105 12.2 40.4485 12.746 41.6365 13.838C42.8365 14.918 43.4785 16.712 43.5625 19.22C43.5865 19.892 43.5985 20.48 43.5985 20.984C43.6105 21.488 43.6105 21.992 43.5985 22.496C43.5985 23 43.5865 23.588 43.5625 24.26C43.4545 27.26 42.5185 29.264 40.7545 30.272L44.1385 41H38.5225ZM28.5865 41V12.2H33.9865V41H28.5865ZM55.2349 41V12.2H60.6349V41H55.2349ZM78.7418 41.342C76.4258 41.222 74.7698 40.598 73.7738 39.47C72.7898 38.342 72.2498 36.56 72.1538 34.124C72.1418 33.74 72.1358 33.32 72.1358 32.864C72.1358 32.396 72.1478 31.934 72.1718 31.478C72.1958 31.01 72.2378 30.584 72.2978 30.2H77.3738C77.3258 31.076 77.2958 31.94 77.2838 32.792C77.2718 33.644 77.3018 34.424 77.3738 35.132C77.4218 35.576 77.5538 35.948 77.7698 36.248C77.9978 36.536 78.3218 36.74 78.7418 36.86V41.342ZM80.5418 41.342V36.86C80.9258 36.728 81.2198 36.518 81.4238 36.23C81.6278 35.942 81.7538 35.576 81.8018 35.132C81.8498 34.724 81.8798 34.322 81.8918 33.926C81.9158 33.518 81.9158 33.116 81.8918 32.72C81.8798 32.312 81.8498 31.904 81.8018 31.496C81.7538 30.992 81.5978 30.536 81.3338 30.128C81.0698 29.72 80.6498 29.444 80.0738 29.3L77.1218 28.544C75.8738 28.22 74.8838 27.758 74.1518 27.158C73.4198 26.546 72.8858 25.79 72.5498 24.89C72.2258 23.99 72.0458 22.94 72.0098 21.74C71.9978 21.212 71.9918 20.744 71.9918 20.336C71.9918 19.916 71.9978 19.484 72.0098 19.04C72.1058 16.604 72.6578 14.828 73.6658 13.712C74.6738 12.596 76.3658 11.978 78.7418 11.858V16.34C78.3338 16.46 78.0218 16.664 77.8058 16.952C77.6018 17.228 77.4698 17.588 77.4098 18.032C77.3378 18.644 77.3018 19.262 77.3018 19.886C77.3018 20.51 77.3378 21.128 77.4098 21.74C77.4698 22.22 77.6378 22.658 77.9138 23.054C78.1898 23.45 78.6338 23.72 79.2458 23.864L81.8018 24.476C83.1458 24.8 84.2018 25.28 84.9698 25.916C85.7498 26.54 86.3078 27.32 86.6438 28.256C86.9918 29.18 87.1898 30.26 87.2378 31.496C87.2498 31.772 87.2558 32.06 87.2558 32.36C87.2558 32.66 87.2498 32.96 87.2378 33.26C87.2258 33.56 87.2138 33.848 87.2018 34.124C87.1058 36.56 86.5538 38.342 85.5458 39.47C84.5378 40.598 82.8698 41.222 80.5418 41.342ZM81.8378 23C81.8738 22.172 81.8978 21.344 81.9098 20.516C81.9218 19.688 81.9098 18.86 81.8738 18.032C81.8618 17.6 81.7358 17.246 81.4958 16.97C81.2678 16.682 80.9498 16.478 80.5418 16.358V11.858C82.7738 11.978 84.3998 12.602 85.4198 13.73C86.4398 14.846 86.9978 16.616 87.0938 19.04C87.1178 19.556 87.1178 20.186 87.0938 20.93C87.0818 21.674 87.0578 22.364 87.0218 23H81.8378ZM108.519 41L105.819 31.28H105.783V26.528H105.819C106.575 26.528 107.145 26.354 107.529 26.006C107.913 25.658 108.123 25.172 108.159 24.548C108.195 23.96 108.219 23.348 108.231 22.712C108.243 22.064 108.243 21.422 108.231 20.786C108.219 20.138 108.195 19.52 108.159 18.932C108.123 18.296 107.913 17.81 107.529 17.474C107.145 17.126 106.575 16.952 105.819 16.952H105.783V12.2H105.819C108.507 12.2 110.445 12.746 111.633 13.838C112.833 14.918 113.475 16.712 113.559 19.22C113.583 19.892 113.595 20.48 113.595 20.984C113.607 21.488 113.607 21.992 113.595 22.496C113.595 23 113.583 23.588 113.559 24.26C113.451 27.26 112.515 29.264 110.751 30.272L114.135 41H108.519ZM98.5826 41V12.2H103.983V41H98.5826ZM125.231 41V12.2H130.631V41H125.231ZM142.528 41V12.2H147.928V41H142.528ZM149.728 31.856V27.104H149.764C150.52 27.104 151.09 26.93 151.474 26.582C151.858 26.234 152.068 25.748 152.104 25.124C152.14 24.536 152.164 23.876 152.176 23.144C152.188 22.4 152.188 21.662 152.176 20.93C152.164 20.186 152.14 19.52 152.104 18.932C152.068 18.296 151.858 17.81 151.474 17.474C151.09 17.126 150.52 16.952 149.764 16.952H149.728V12.2H149.764C152.452 12.2 154.39 12.746 155.578 13.838C156.778 14.918 157.42 16.712 157.504 19.22C157.54 20.228 157.558 21.164 157.558 22.028C157.558 22.892 157.54 23.828 157.504 24.836C157.42 27.332 156.778 29.126 155.578 30.218C154.39 31.31 152.452 31.856 149.764 31.856H149.728ZM175.378 41.342C173.05 41.234 171.358 40.616 170.302 39.488C169.258 38.36 168.706 36.572 168.646 34.124C168.622 32.948 168.604 31.724 168.592 30.452C168.58 29.18 168.574 27.89 168.574 26.582C168.574 25.274 168.58 23.984 168.592 22.712C168.604 21.44 168.622 20.216 168.646 19.04C168.706 16.604 169.258 14.828 170.302 13.712C171.358 12.584 173.05 11.966 175.378 11.858V16.34C174.97 16.46 174.658 16.664 174.442 16.952C174.226 17.24 174.106 17.6 174.082 18.032C174.034 19.256 173.992 20.6 173.956 22.064C173.932 23.528 173.92 25.034 173.92 26.582C173.92 28.13 173.932 29.636 173.956 31.1C173.992 32.564 174.034 33.908 174.082 35.132C174.106 35.576 174.226 35.948 174.442 36.248C174.658 36.536 174.97 36.74 175.378 36.86V41.342ZM177.178 41.342V36.86C177.586 36.74 177.892 36.536 178.096 36.248C178.312 35.948 178.426 35.576 178.438 35.132C178.498 33.908 178.54 32.564 178.564 31.1C178.588 29.636 178.6 28.13 178.6 26.582C178.6 25.034 178.588 23.528 178.564 22.064C178.54 20.6 178.498 19.256 178.438 18.032C178.426 17.6 178.312 17.24 178.096 16.952C177.88 16.664 177.574 16.46 177.178 16.34V11.858C179.482 11.978 181.138 12.602 182.146 13.73C183.166 14.858 183.718 16.628 183.802 19.04C183.85 20.24 183.886 21.476 183.91 22.748C183.934 24.02 183.946 25.31 183.946 26.618C183.946 27.914 183.934 29.198 183.91 30.47C183.886 31.73 183.85 32.948 183.802 34.124C183.718 36.548 183.166 38.324 182.146 39.452C181.138 40.58 179.482 41.21 177.178 41.342ZM205.55 41L202.85 31.28H202.814V26.528H202.85C203.606 26.528 204.176 26.354 204.56 26.006C204.944 25.658 205.154 25.172 205.19 24.548C205.226 23.96 205.25 23.348 205.262 22.712C205.274 22.064 205.274 21.422 205.262 20.786C205.25 20.138 205.226 19.52 205.19 18.932C205.154 18.296 204.944 17.81 204.56 17.474C204.176 17.126 203.606 16.952 202.85 16.952H202.814V12.2H202.85C205.538 12.2 207.476 12.746 208.664 13.838C209.864 14.918 210.506 16.712 210.59 19.22C210.614 19.892 210.626 20.48 210.626 20.984C210.638 21.488 210.638 21.992 210.626 22.496C210.626 23 210.614 23.588 210.59 24.26C210.482 27.26 209.546 29.264 207.782 30.272L211.166 41H205.55ZM195.614 41V12.2H201.014V41H195.614ZM225.682 41V18.752H231.082V41H225.682ZM221.038 16.952V12.2H235.69V16.952H221.038Z" fill="#3BCF16"/>
<path d="M80.9705 56.952C80.6612 56.952 80.4105 56.8987 80.2185 56.792C80.0372 56.6747 79.9038 56.5413 79.8185 56.392C79.7438 56.232 79.7065 56.088 79.7065 55.96C79.7065 55.4267 79.8558 54.84 80.1545 54.2C80.4532 53.5493 80.8052 52.9147 81.2105 52.296C81.5412 51.784 81.8772 51.3147 82.2185 50.888C82.5598 50.4507 82.8585 50.088 83.1145 49.8C83.3812 49.5013 83.5572 49.3147 83.6425 49.24C83.5038 49.24 83.3705 49.208 83.2425 49.144C83.1145 49.0693 83.0505 48.984 83.0505 48.888C83.0505 48.8347 83.0932 48.7813 83.1785 48.728C83.2745 48.6747 83.4398 48.632 83.6745 48.6C84.0265 48.5467 84.3785 48.5147 84.7305 48.504C85.0825 48.4827 85.4025 48.472 85.6905 48.472C85.9892 48.4613 86.2132 48.456 86.3625 48.456C86.7678 48.456 87.0132 48.52 87.0985 48.648C87.1838 48.776 87.2265 48.9467 87.2265 49.16C87.1412 49.1387 86.9972 49.1227 86.7945 49.112C86.6025 49.1013 86.3892 49.096 86.1545 49.096C85.9838 49.096 85.8132 49.096 85.6425 49.096C85.4718 49.096 85.3118 49.1067 85.1625 49.128C84.9492 49.1493 84.7465 49.1867 84.5545 49.24C84.3732 49.2933 84.2238 49.3733 84.1065 49.48C84.0318 49.5547 83.9145 49.6987 83.7545 49.912C83.5945 50.1253 83.4185 50.376 83.2265 50.664C83.0345 50.9413 82.8425 51.2293 82.6505 51.528C82.4692 51.816 82.3092 52.0827 82.1705 52.328C82.0318 52.5627 81.9412 52.744 81.8985 52.872C82.0692 52.84 82.2985 52.7973 82.5865 52.744C82.8852 52.68 83.2158 52.648 83.5785 52.648C84.0798 52.648 84.3305 52.7973 84.3305 53.096C84.3305 53.1493 84.3145 53.2187 84.2825 53.304H81.6745C81.6852 53.2827 81.6372 53.368 81.5305 53.56C81.4345 53.7413 81.3172 53.976 81.1785 54.264C81.0505 54.552 80.9332 54.8453 80.8265 55.144C80.7305 55.4427 80.6825 55.704 80.6825 55.928C80.6825 56.1307 80.7838 56.232 80.9865 56.232C81.3278 56.232 81.6852 56.1893 82.0585 56.104C82.4425 56.008 82.8372 55.96 83.2425 55.96C83.5305 55.96 83.7812 55.9867 83.9945 56.04C84.2185 56.0933 84.3358 56.248 84.3465 56.504C84.3145 56.4933 84.2772 56.488 84.2345 56.488C84.2025 56.488 84.1652 56.488 84.1225 56.488C83.9198 56.488 83.6638 56.5147 83.3545 56.568C83.0558 56.6107 82.7465 56.664 82.4265 56.728C82.1172 56.7813 81.8292 56.8347 81.5625 56.888C81.2958 56.9307 81.0985 56.952 80.9705 56.952ZM85.1517 57.64C85.0557 57.64 85.0077 57.56 85.0077 57.4C85.0077 57.2933 85.0344 57.1973 85.0877 57.112C85.1944 56.9093 85.3918 56.6693 85.6798 56.392C85.9678 56.104 86.2878 55.8053 86.6398 55.496C87.0024 55.1867 87.3384 54.8987 87.6478 54.632C87.6691 54.3653 87.7224 54.0507 87.8078 53.688C87.9038 53.3147 88.0211 52.9573 88.1598 52.616C88.2984 52.2747 88.4531 52.0133 88.6238 51.832C88.4531 51.8853 88.2558 51.9867 88.0318 52.136C87.8078 52.2853 87.5891 52.36 87.3758 52.36C87.2478 52.36 87.1251 52.312 87.0078 52.216C86.9011 52.12 86.8104 52.0133 86.7358 51.896C86.6718 51.7787 86.6398 51.6827 86.6398 51.608C86.6398 51.544 86.6664 51.512 86.7198 51.512C86.7624 51.512 86.8211 51.5333 86.8958 51.576C87.0024 51.64 87.1358 51.688 87.2958 51.72C87.4664 51.7413 87.6478 51.752 87.8398 51.752C88.0851 51.752 88.3251 51.736 88.5598 51.704C88.7944 51.672 88.9758 51.6507 89.1038 51.64C89.1358 51.6293 89.1838 51.624 89.2478 51.624C89.3331 51.624 89.3758 51.6613 89.3758 51.736C89.3758 51.768 89.3704 51.8053 89.3598 51.848C89.3491 51.8907 89.3224 51.9493 89.2798 52.024C89.2051 52.152 89.1251 52.296 89.0398 52.456C88.9651 52.6053 88.9011 52.7547 88.8478 52.904C88.7411 53.192 88.6664 53.4853 88.6238 53.784C89.0611 53.3787 89.4931 52.968 89.9198 52.552C90.3464 52.136 90.7144 51.768 91.0238 51.448C91.3331 51.1173 91.5304 50.8933 91.6158 50.776C91.7224 50.6373 91.7971 50.568 91.8398 50.568C91.8824 50.568 91.8931 50.6267 91.8718 50.744C91.8504 50.8507 91.8078 50.984 91.7438 51.144C91.6904 51.2933 91.6158 51.4267 91.5198 51.544C91.2851 51.8427 90.9011 52.2107 90.3678 52.648C89.8344 53.0853 89.2318 53.6027 88.5598 54.2C88.5384 54.36 88.5171 54.5147 88.4958 54.664C88.4851 54.8133 88.4798 54.9627 88.4798 55.112C88.4798 55.6133 88.5171 55.9707 88.5918 56.184C88.6664 56.3867 88.7731 56.488 88.9118 56.488C89.0291 56.488 89.1678 56.424 89.3278 56.296C89.4984 56.168 89.6851 56.0027 89.8878 55.8C89.9838 55.7147 90.0798 55.624 90.1758 55.528C90.2824 55.4213 90.3784 55.3147 90.4638 55.208C90.5704 55.0907 90.6718 54.9787 90.7678 54.872C90.8638 54.7653 90.9544 54.6533 91.0398 54.536C91.0718 54.504 91.0984 54.488 91.1198 54.488C91.1838 54.488 91.2158 54.536 91.2158 54.632C91.2158 54.6853 91.1944 54.7333 91.1518 54.776C91.0344 54.9147 90.9171 55.0587 90.7998 55.208C90.6824 55.3467 90.5651 55.4853 90.4478 55.624C90.3198 55.7627 90.1918 55.9013 90.0638 56.04C89.9464 56.168 89.8291 56.2907 89.7118 56.408C89.4451 56.6533 89.2104 56.8347 89.0078 56.952C88.8051 57.0587 88.6291 57.112 88.4798 57.112C88.1491 57.112 87.9198 56.9093 87.7918 56.504C87.6744 56.088 87.6211 55.6027 87.6318 55.048C87.1838 55.4533 86.7838 55.8267 86.4318 56.168C86.0798 56.5093 85.7918 56.8667 85.5678 57.24C85.4078 57.5067 85.2691 57.64 85.1517 57.64ZM89.3007 62.568C89.2794 62.6533 89.2367 62.648 89.1727 62.552C89.0981 62.4667 89.0341 62.3227 88.9807 62.12C88.9274 61.9173 88.9007 61.6933 88.9007 61.448C88.9007 61.256 88.9221 61.08 88.9647 60.92C89.0821 60.4187 89.2581 59.848 89.4927 59.208C89.7274 58.5787 89.9941 57.9227 90.2927 57.24C90.5807 56.568 90.8847 55.9067 91.2047 55.256C91.5247 54.5947 91.8341 53.9867 92.1327 53.432C92.4421 52.8773 92.7194 52.4187 92.9647 52.056C93.3594 51.448 93.7007 51.0213 93.9887 50.776C94.2767 50.52 94.5274 50.36 94.7407 50.296C94.9647 50.232 95.1621 50.184 95.3327 50.152C94.6821 50.9627 94.0581 51.8427 93.4607 52.792C92.8741 53.7413 92.2767 54.8187 91.6687 56.024C91.9461 55.5973 92.2501 55.1333 92.5807 54.632C92.9221 54.12 93.2741 53.64 93.6367 53.192C93.9887 52.7547 94.3354 52.392 94.6767 52.104C95.0287 51.8053 95.3221 51.656 95.5567 51.656C95.8661 51.656 96.0741 51.7467 96.1807 51.928C96.2981 52.1093 96.3567 52.3227 96.3567 52.568C96.3567 52.9093 96.2874 53.288 96.1487 53.704C96.0101 54.1093 95.8127 54.5253 95.5567 54.952C95.3114 55.368 95.0181 55.7573 94.6767 56.12C94.3461 56.472 93.9834 56.7653 93.5887 57C93.9621 56.9147 94.2981 56.808 94.5967 56.68C94.8954 56.552 95.1941 56.376 95.4927 56.152C95.7914 55.9173 96.1167 55.608 96.4687 55.224C96.5861 55.1067 96.7034 54.9787 96.8207 54.84C96.9487 54.6907 97.0554 54.5573 97.1407 54.44C97.1727 54.408 97.1994 54.392 97.2207 54.392C97.2847 54.392 97.3167 54.44 97.3167 54.536C97.3167 54.6 97.2954 54.6533 97.2527 54.696C97.1461 54.8347 97.0181 54.9893 96.8687 55.16C96.7301 55.32 96.5967 55.4747 96.4687 55.624C96.0954 56.008 95.6847 56.3493 95.2367 56.648C94.7994 56.936 94.2981 57.1547 93.7327 57.304C93.3487 57.4 92.9274 57.448 92.4687 57.448C92.3727 57.448 92.2767 57.4427 92.1807 57.432C92.0847 57.432 91.9941 57.4267 91.9087 57.416C91.7594 57.4053 91.6154 57.3627 91.4767 57.288C91.3381 57.224 91.2634 57.096 91.2527 56.904C90.7514 57.9493 90.3567 58.952 90.0687 59.912C89.7807 60.8827 89.5247 61.768 89.3007 62.568ZM92.1007 57.144C92.4314 57.144 92.7781 57.0053 93.1407 56.728C93.5141 56.4507 93.8607 56.0933 94.1807 55.656C94.5114 55.208 94.7834 54.728 94.9967 54.216C95.1141 53.9493 95.2207 53.6453 95.3167 53.304C95.4234 52.952 95.4767 52.6693 95.4767 52.456C95.4767 52.2427 95.4181 52.136 95.3007 52.136C95.1621 52.136 94.9807 52.2427 94.7567 52.456C94.5434 52.6693 94.2607 52.9787 93.9087 53.384C93.7914 53.5227 93.6421 53.7147 93.4607 53.96C93.2901 54.2053 93.1087 54.4667 92.9167 54.744C92.7354 55.0107 92.5701 55.2613 92.4207 55.496C92.2714 55.7307 92.1594 55.912 92.0847 56.04C92.0207 56.1573 91.9514 56.296 91.8767 56.456C91.8127 56.6053 91.7807 56.7387 91.7807 56.856C91.7807 57.048 91.8874 57.144 92.1007 57.144ZM98.2705 57.112C97.8758 57.112 97.5772 56.984 97.3745 56.728C97.1825 56.472 97.0865 56.1467 97.0865 55.752C97.0865 55.304 97.2038 54.8133 97.4385 54.28C97.6518 53.8 97.9238 53.3627 98.2545 52.968C98.5958 52.5733 98.9638 52.2587 99.3585 52.024C99.7532 51.7787 100.132 51.656 100.494 51.656C100.9 51.656 101.204 51.7733 101.406 52.008C101.609 52.2427 101.721 52.5467 101.742 52.92C101.988 53.0693 102.244 53.144 102.51 53.144C103.022 53.144 103.444 52.8987 103.774 52.408L104.158 51.752C104.126 51.72 104.062 51.6507 103.966 51.544C103.87 51.4373 103.78 51.32 103.694 51.192C103.62 51.0533 103.582 50.9307 103.582 50.824C103.582 50.6533 103.716 50.568 103.982 50.568C104.345 50.568 104.526 50.9573 104.526 51.736C104.729 51.896 104.953 52.0133 105.198 52.088C105.444 52.152 105.652 52.2373 105.822 52.344C106.004 52.4507 106.094 52.6427 106.094 52.92C106.094 53.1013 106.041 53.3147 105.934 53.56C105.838 53.7947 105.721 54.0027 105.582 54.184C105.465 54.344 105.326 54.536 105.167 54.76C105.017 54.984 104.873 55.208 104.734 55.432C104.596 55.656 104.494 55.8587 104.43 56.04C104.388 56.136 104.366 56.2373 104.366 56.344C104.366 56.4827 104.43 56.552 104.558 56.552C104.665 56.552 104.804 56.504 104.974 56.408C105.198 56.2907 105.428 56.1253 105.662 55.912C105.908 55.688 106.132 55.4587 106.334 55.224C106.452 55.1067 106.558 54.9947 106.655 54.888C106.751 54.7707 106.841 54.6533 106.926 54.536C106.958 54.504 106.985 54.488 107.006 54.488C107.07 54.488 107.102 54.536 107.102 54.632C107.102 54.6853 107.081 54.7333 107.038 54.776C106.814 55.0427 106.585 55.3253 106.351 55.624C106.116 55.912 105.865 56.1733 105.598 56.408C105.438 56.536 105.23 56.68 104.974 56.84C104.718 57 104.468 57.08 104.222 57.08C104.02 57.08 103.849 57.0107 103.71 56.872C103.572 56.7333 103.502 56.536 103.502 56.28C103.502 56.1627 103.513 56.056 103.534 55.96C103.556 55.8533 103.582 55.7627 103.614 55.688C103.668 55.528 103.769 55.32 103.918 55.064C104.068 54.808 104.233 54.5413 104.414 54.264C104.596 53.976 104.75 53.72 104.878 53.496C105.038 53.2187 105.118 52.9787 105.118 52.776C105.118 52.552 105.022 52.376 104.83 52.248C104.756 52.1947 104.681 52.1467 104.606 52.104C104.532 52.0507 104.468 52.0027 104.414 51.96L103.966 52.68C103.582 53.2027 103.076 53.464 102.446 53.464C102.212 53.464 101.972 53.416 101.726 53.32C101.716 53.5013 101.684 53.688 101.63 53.88C101.577 54.072 101.508 54.2693 101.422 54.472C101.305 54.728 101.134 55.0053 100.91 55.304C100.686 55.6027 100.43 55.8907 100.142 56.168C99.8545 56.4453 99.5452 56.6747 99.2145 56.856C98.8945 57.0267 98.5798 57.112 98.2705 57.112ZM98.5745 56.792C98.7985 56.792 99.0225 56.7173 99.2465 56.568C99.4705 56.408 99.6838 56.216 99.8865 55.992C100.089 55.768 100.265 55.544 100.414 55.32C100.574 55.0853 100.692 54.888 100.766 54.728C100.916 54.408 101.038 54.1093 101.134 53.832C101.23 53.544 101.284 53.2827 101.294 53.048C101.166 52.9307 101.044 52.8027 100.926 52.664C100.809 52.5147 100.708 52.344 100.622 52.152C100.292 52.1947 99.9292 52.4133 99.5345 52.808C99.1505 53.2027 98.8305 53.672 98.5745 54.216C98.1905 54.984 97.9985 55.608 97.9985 56.088C97.9985 56.472 98.1212 56.696 98.3665 56.76C98.3985 56.7707 98.4305 56.7813 98.4625 56.792C98.4945 56.792 98.5318 56.792 98.5745 56.792ZM107.771 57.048C107.537 57.048 107.339 56.9787 107.179 56.84C107.019 56.7013 106.939 56.4667 106.939 56.136C106.939 56.0507 106.945 55.9653 106.955 55.88C106.966 55.7947 106.982 55.704 107.003 55.608C107.089 55.1813 107.265 54.664 107.531 54.056C107.798 53.4373 108.139 52.7387 108.555 51.96H107.947C107.83 51.96 107.771 51.928 107.771 51.864C107.771 51.832 107.798 51.8 107.851 51.768C107.915 51.7253 108.001 51.704 108.107 51.704H108.683C108.865 51.3947 109.009 51.1547 109.115 50.984C109.233 50.8027 109.329 50.664 109.403 50.568C109.681 50.216 109.931 49.9707 110.155 49.832C110.39 49.6827 110.593 49.5973 110.763 49.576C110.934 49.5547 111.057 49.544 111.131 49.544C110.982 49.704 110.817 49.912 110.635 50.168C110.454 50.424 110.278 50.6907 110.107 50.968C109.937 51.2347 109.793 51.48 109.675 51.704H111.307C111.425 51.704 111.483 51.7307 111.483 51.784C111.483 51.8267 111.451 51.8693 111.387 51.912C111.323 51.944 111.238 51.96 111.131 51.96H109.515C109.345 52.2693 109.19 52.5467 109.051 52.792C108.923 53.0267 108.79 53.2773 108.651 53.544C108.523 53.8107 108.363 54.1413 108.171 54.536C108.022 54.8667 107.91 55.1493 107.835 55.384C107.771 55.6187 107.739 55.816 107.739 55.976C107.739 56.1787 107.782 56.3227 107.867 56.408C107.953 56.4933 108.059 56.536 108.187 56.536C108.315 56.536 108.465 56.4933 108.635 56.408C108.87 56.2907 109.105 56.12 109.339 55.896C109.574 55.672 109.798 55.4427 110.011 55.208C110.118 55.0907 110.219 54.9787 110.315 54.872C110.411 54.7653 110.502 54.6533 110.587 54.536C110.619 54.504 110.646 54.488 110.667 54.488C110.731 54.488 110.763 54.5307 110.763 54.616C110.763 54.68 110.742 54.7333 110.699 54.776C110.475 55.0533 110.241 55.336 109.995 55.624C109.707 55.9547 109.387 56.2747 109.035 56.584C108.683 56.8933 108.262 57.048 107.771 57.048ZM113.788 50.68C113.671 50.68 113.575 50.6427 113.5 50.568C113.426 50.4827 113.388 50.3867 113.388 50.28C113.388 50.12 113.442 49.9867 113.548 49.88C113.666 49.7627 113.794 49.704 113.932 49.704C114.071 49.704 114.178 49.752 114.252 49.848C114.338 49.9333 114.37 50.0453 114.348 50.184C114.316 50.3227 114.247 50.44 114.14 50.536C114.044 50.632 113.927 50.68 113.788 50.68ZM111.596 57C111.362 57 111.159 56.9253 110.988 56.776C110.818 56.616 110.732 56.3493 110.732 55.976C110.732 55.816 110.748 55.64 110.78 55.448C110.876 54.9467 111.031 54.4667 111.244 54.008C111.468 53.5493 111.682 53.1547 111.884 52.824C112.098 52.4827 112.236 52.2587 112.3 52.152C112.354 52.0453 112.492 51.944 112.716 51.848C112.94 51.7413 113.127 51.688 113.276 51.688C113.404 51.688 113.468 51.7307 113.468 51.816C113.468 51.8907 113.442 51.96 113.388 52.024C113.228 52.28 113.042 52.5733 112.828 52.904C112.626 53.224 112.428 53.5653 112.236 53.928C112.044 54.2907 111.884 54.648 111.756 55C111.628 55.352 111.564 55.6773 111.564 55.976C111.564 56.136 111.591 56.264 111.644 56.36C111.708 56.456 111.82 56.504 111.98 56.504C112.151 56.504 112.348 56.424 112.572 56.264C112.796 56.0933 113.01 55.9067 113.212 55.704C113.426 55.4907 113.58 55.3253 113.676 55.208C113.783 55.0907 113.884 54.9787 113.98 54.872C114.087 54.7653 114.183 54.6533 114.268 54.536C114.3 54.504 114.327 54.488 114.348 54.488C114.412 54.488 114.444 54.536 114.444 54.632C114.444 54.6853 114.423 54.7333 114.38 54.776C114.263 54.9147 114.146 55.0587 114.028 55.208C113.911 55.3467 113.788 55.4853 113.66 55.624C113.49 55.8267 113.298 56.0347 113.084 56.248C112.871 56.4613 112.642 56.6427 112.396 56.792C112.151 56.9307 111.884 57 111.596 57ZM113.582 57.096C114.041 56.2427 114.42 55.4213 114.719 54.632C115.028 53.832 115.38 53.0267 115.775 52.216C115.892 52.0027 116.041 51.8587 116.223 51.784C116.404 51.6987 116.58 51.656 116.751 51.656C116.889 51.656 117.012 51.672 117.119 51.704C117.087 51.7787 117.001 51.928 116.863 52.152C116.735 52.3653 116.596 52.6107 116.447 52.888C116.34 53.08 116.18 53.3787 115.967 53.784C115.753 54.1787 115.556 54.5893 115.375 55.016C115.471 54.8987 115.62 54.7067 115.823 54.44C116.025 54.1733 116.26 53.8853 116.527 53.576C116.793 53.256 117.071 52.952 117.359 52.664C117.657 52.3653 117.945 52.1253 118.223 51.944C118.511 51.752 118.767 51.656 118.991 51.656C119.161 51.656 119.311 51.7093 119.439 51.816C119.567 51.9227 119.631 52.0667 119.631 52.248C119.631 52.5147 119.519 52.8293 119.295 53.192C119.071 53.544 118.847 53.8907 118.623 54.232C118.58 54.296 118.5 54.4187 118.383 54.6C118.276 54.7813 118.159 54.9893 118.031 55.224C117.903 55.448 117.791 55.6667 117.695 55.88C117.609 56.0827 117.567 56.2427 117.567 56.36C117.567 56.4773 117.615 56.536 117.711 56.536C117.913 56.536 118.121 56.456 118.335 56.296C118.559 56.136 118.772 55.9547 118.975 55.752C119.177 55.5387 119.337 55.3627 119.455 55.224C119.572 55.096 119.679 54.9733 119.775 54.856C119.871 54.7387 119.967 54.6267 120.063 54.52C120.095 54.488 120.121 54.472 120.143 54.472C120.207 54.472 120.239 54.52 120.239 54.616C120.239 54.68 120.217 54.7333 120.175 54.776C120.057 54.9147 119.94 55.0587 119.823 55.208C119.705 55.3467 119.583 55.4853 119.455 55.624C119.337 55.7627 119.215 55.9013 119.087 56.04C118.969 56.168 118.847 56.2907 118.719 56.408C118.26 56.8347 117.833 57.048 117.439 57.048C117.172 57.048 116.991 56.968 116.895 56.808C116.809 56.648 116.767 56.4507 116.767 56.216C116.767 55.96 116.836 55.6827 116.975 55.384C117.113 55.0853 117.284 54.7813 117.487 54.472C117.689 54.152 117.892 53.8427 118.095 53.544C118.308 53.2453 118.484 52.9733 118.623 52.728C118.761 52.472 118.831 52.2587 118.831 52.088C118.831 52.024 118.793 51.992 118.719 51.992C118.655 51.992 118.527 52.072 118.335 52.232C118.153 52.3813 117.956 52.5627 117.743 52.776C117.529 52.9787 117.327 53.176 117.135 53.368C116.953 53.56 116.831 53.6987 116.767 53.784C116.5 54.072 116.239 54.3813 115.983 54.712C115.737 55.0427 115.503 55.3627 115.279 55.672C115.151 55.8533 115.039 56.04 114.943 56.232C114.847 56.4133 114.74 56.6053 114.623 56.808C114.569 56.904 114.495 56.9627 114.399 56.984C114.313 56.9947 114.196 57.0053 114.046 57.016C113.94 57.016 113.854 57.016 113.79 57.016C113.726 57.0267 113.657 57.0533 113.582 57.096ZM118.782 62.584C118.334 62.584 118.041 62.4773 117.902 62.264C117.753 62.0507 117.683 61.8267 117.694 61.592C117.726 61.1973 117.865 60.824 118.11 60.472C118.345 60.12 118.649 59.7893 119.022 59.48C119.395 59.1707 119.795 58.888 120.222 58.632C120.649 58.376 121.059 58.1413 121.454 57.928C121.859 57.7253 122.211 57.5493 122.51 57.4C122.809 57.2507 123.017 57.1333 123.134 57.048C123.294 56.5787 123.411 56.1307 123.486 55.704C123.561 55.2667 123.587 54.8827 123.566 54.552C123.459 54.7653 123.299 55.0427 123.086 55.384C122.883 55.7253 122.649 56.04 122.382 56.328C122.169 56.5627 121.945 56.76 121.71 56.92C121.475 57.0693 121.235 57.144 120.99 57.144C120.659 57.144 120.43 57.0267 120.302 56.792C120.174 56.5467 120.11 56.2747 120.11 55.976C120.11 55.88 120.115 55.784 120.126 55.688C120.137 55.592 120.153 55.5013 120.174 55.416C120.259 55.0747 120.387 54.7387 120.558 54.408C120.729 54.0667 120.905 53.7627 121.086 53.496C121.278 53.2187 121.438 53.0107 121.566 52.872C121.875 52.4987 122.238 52.1947 122.654 51.96C123.081 51.7147 123.513 51.592 123.95 51.592C124.398 51.592 124.819 51.7413 125.214 52.04C125.374 52.168 125.454 52.3013 125.454 52.44C125.454 52.6 125.39 52.68 125.262 52.68C125.155 52.68 125.081 52.616 125.038 52.488C124.899 52.0933 124.67 51.896 124.35 51.896C124.041 51.896 123.721 52.008 123.39 52.232C123.07 52.4453 122.761 52.728 122.462 53.08C122.163 53.432 121.891 53.8053 121.646 54.2C121.411 54.5947 121.225 54.9733 121.086 55.336C120.947 55.6987 120.878 55.9973 120.878 56.232C120.878 56.52 120.99 56.664 121.214 56.664C121.417 56.664 121.635 56.5627 121.87 56.36C122.115 56.1573 122.35 55.9067 122.574 55.608C122.798 55.2987 122.995 54.9947 123.166 54.696C123.337 54.3973 123.449 54.152 123.502 53.96C123.577 53.7253 123.667 53.5707 123.774 53.496C123.881 53.4213 123.993 53.384 124.11 53.384C124.153 53.384 124.19 53.3893 124.222 53.4C124.265 53.4 124.307 53.4053 124.35 53.416C124.361 53.4693 124.366 53.5493 124.366 53.656C124.377 53.7627 124.382 53.8907 124.382 54.04C124.382 54.3493 124.361 54.728 124.318 55.176C124.286 55.624 124.222 56.0667 124.126 56.504L124.302 56.376C124.579 56.1733 124.851 55.9653 125.118 55.752C125.385 55.5387 125.582 55.3573 125.71 55.208C125.827 55.0907 125.934 54.9787 126.03 54.872C126.126 54.7653 126.217 54.6533 126.302 54.536C126.323 54.504 126.35 54.488 126.382 54.488C126.446 54.488 126.478 54.5307 126.478 54.616C126.478 54.6693 126.451 54.7227 126.398 54.776C126.174 55.0533 125.939 55.336 125.694 55.624C125.63 55.6987 125.47 55.848 125.214 56.072C124.969 56.2853 124.707 56.488 124.43 56.68C124.291 56.7867 124.153 56.8773 124.014 56.952C123.811 57.656 123.529 58.3387 123.166 59C122.814 59.672 122.403 60.2747 121.934 60.808C121.465 61.352 120.963 61.784 120.43 62.104C119.897 62.424 119.347 62.584 118.782 62.584ZM118.702 62.248C119.118 62.248 119.545 62.0933 119.982 61.784C120.419 61.4747 120.841 61.0747 121.246 60.584C121.651 60.104 122.009 59.5867 122.318 59.032C122.627 58.488 122.857 57.976 123.006 57.496C122.825 57.6133 122.542 57.7627 122.158 57.944C121.785 58.136 121.369 58.36 120.91 58.616C120.451 58.872 120.014 59.1547 119.598 59.464C119.171 59.7733 118.814 60.1093 118.526 60.472C118.238 60.8453 118.083 61.2347 118.062 61.64C118.051 61.7787 118.094 61.912 118.19 62.04C118.286 62.1787 118.457 62.248 118.702 62.248ZM130.24 57.064C129.888 57.064 129.642 56.9787 129.504 56.808C129.365 56.6373 129.296 56.4293 129.296 56.184C129.296 55.864 129.37 55.5227 129.52 55.16C129.68 54.7973 129.818 54.5147 129.936 54.312C130.224 53.8533 130.565 53.416 130.96 53C131.354 52.584 131.77 52.248 132.208 51.992C132.656 51.7253 133.082 51.592 133.488 51.592C133.701 51.592 133.909 51.6293 134.112 51.704C134.314 51.768 134.512 51.88 134.704 52.04C134.8 52.1147 134.864 52.1893 134.896 52.264C134.938 52.328 134.96 52.3867 134.96 52.44C134.96 52.6 134.89 52.68 134.752 52.68C134.656 52.68 134.586 52.616 134.544 52.488C134.405 52.1253 134.181 51.944 133.872 51.944C133.605 51.944 133.301 52.0667 132.96 52.312C132.618 52.5573 132.282 52.8507 131.952 53.192C131.589 53.576 131.258 53.992 130.96 54.44C130.661 54.8773 130.437 55.2773 130.288 55.64C130.213 55.8 130.16 55.944 130.128 56.072C130.106 56.1893 130.096 56.2907 130.096 56.376C130.096 56.568 130.176 56.664 130.336 56.664C130.517 56.664 130.784 56.5307 131.136 56.264C131.392 56.0613 131.653 55.816 131.92 55.528C132.197 55.24 132.453 54.9573 132.688 54.68C132.922 54.392 133.109 54.168 133.248 54.008C133.301 53.9227 133.349 53.8427 133.392 53.768C133.445 53.6933 133.493 53.6293 133.536 53.576C133.578 53.5227 133.648 53.48 133.744 53.448C133.85 53.416 133.957 53.4 134.064 53.4C134.192 53.4 134.298 53.4213 134.384 53.464C134.469 53.5067 134.485 53.5813 134.432 53.688C134.432 53.6987 134.373 53.8107 134.256 54.024C134.138 54.2267 134 54.472 133.84 54.76C133.69 55.048 133.557 55.3253 133.44 55.592C133.376 55.7413 133.322 55.88 133.28 56.008C133.237 56.136 133.216 56.2427 133.216 56.328C133.216 56.4667 133.269 56.536 133.376 56.536C133.45 56.536 133.562 56.4933 133.712 56.408C133.946 56.2907 134.181 56.12 134.416 55.896C134.661 55.672 134.885 55.4427 135.088 55.208C135.205 55.0907 135.312 54.9787 135.408 54.872C135.504 54.7653 135.594 54.6533 135.68 54.536C135.712 54.504 135.738 54.488 135.76 54.488C135.824 54.488 135.856 54.536 135.856 54.632C135.856 54.6853 135.834 54.7333 135.792 54.776C135.674 54.9147 135.557 55.0587 135.44 55.208C135.322 55.3467 135.2 55.4853 135.072 55.624C134.954 55.7627 134.832 55.9013 134.704 56.04C134.586 56.168 134.464 56.2907 134.336 56.408C133.877 56.8347 133.456 57.048 133.072 57.048C132.901 57.048 132.757 56.9893 132.64 56.872C132.522 56.744 132.464 56.5467 132.464 56.28C132.464 56.0773 132.501 55.848 132.576 55.592C132.597 55.4747 132.629 55.3573 132.672 55.24C132.725 55.1227 132.773 55 132.816 54.872C132.602 55.2133 132.357 55.5547 132.08 55.896C131.813 56.2267 131.525 56.504 131.216 56.728C130.906 56.952 130.581 57.064 130.24 57.064ZM134.995 57.096C135.454 56.2427 135.832 55.4213 136.131 54.632C136.44 53.832 136.792 53.0267 137.187 52.216C137.304 52.0027 137.454 51.8587 137.635 51.784C137.816 51.6987 137.992 51.656 138.163 51.656C138.302 51.656 138.424 51.672 138.531 51.704C138.499 51.7787 138.414 51.928 138.275 52.152C138.147 52.3653 138.008 52.6107 137.859 52.888C137.752 53.08 137.592 53.3787 137.379 53.784C137.166 54.1787 136.968 54.5893 136.787 55.016C136.883 54.8987 137.032 54.7067 137.235 54.44C137.438 54.1733 137.672 53.8853 137.939 53.576C138.206 53.256 138.483 52.952 138.771 52.664C139.07 52.3653 139.358 52.1253 139.635 51.944C139.923 51.752 140.179 51.656 140.403 51.656C140.574 51.656 140.723 51.7093 140.851 51.816C140.979 51.9227 141.043 52.0667 141.043 52.248C141.043 52.5147 140.931 52.8293 140.707 53.192C140.483 53.544 140.259 53.8907 140.035 54.232C139.992 54.296 139.912 54.4187 139.795 54.6C139.688 54.7813 139.571 54.9893 139.443 55.224C139.315 55.448 139.203 55.6667 139.107 55.88C139.022 56.0827 138.979 56.2427 138.979 56.36C138.979 56.4773 139.027 56.536 139.123 56.536C139.326 56.536 139.534 56.456 139.747 56.296C139.971 56.136 140.184 55.9547 140.387 55.752C140.59 55.5387 140.75 55.3627 140.867 55.224C140.984 55.096 141.091 54.9733 141.187 54.856C141.283 54.7387 141.379 54.6267 141.475 54.52C141.507 54.488 141.534 54.472 141.555 54.472C141.619 54.472 141.651 54.52 141.651 54.616C141.651 54.68 141.63 54.7333 141.587 54.776C141.47 54.9147 141.352 55.0587 141.235 55.208C141.118 55.3467 140.995 55.4853 140.867 55.624C140.75 55.7627 140.627 55.9013 140.499 56.04C140.382 56.168 140.259 56.2907 140.131 56.408C139.672 56.8347 139.246 57.048 138.851 57.048C138.584 57.048 138.403 56.968 138.307 56.808C138.222 56.648 138.179 56.4507 138.179 56.216C138.179 55.96 138.248 55.6827 138.387 55.384C138.526 55.0853 138.696 54.7813 138.899 54.472C139.102 54.152 139.304 53.8427 139.507 53.544C139.72 53.2453 139.896 52.9733 140.035 52.728C140.174 52.472 140.243 52.2587 140.243 52.088C140.243 52.024 140.206 51.992 140.131 51.992C140.067 51.992 139.939 52.072 139.747 52.232C139.566 52.3813 139.368 52.5627 139.155 52.776C138.942 52.9787 138.739 53.176 138.547 53.368C138.366 53.56 138.243 53.6987 138.179 53.784C137.912 54.072 137.651 54.3813 137.395 54.712C137.15 55.0427 136.915 55.3627 136.691 55.672C136.563 55.8533 136.451 56.04 136.355 56.232C136.259 56.4133 136.152 56.6053 136.035 56.808C135.982 56.904 135.907 56.9627 135.811 56.984C135.726 56.9947 135.608 57.0053 135.459 57.016C135.352 57.016 135.267 57.016 135.203 57.016C135.139 57.0267 135.07 57.0533 134.995 57.096ZM142.402 57.064C142.05 57.064 141.805 56.9787 141.666 56.808C141.528 56.6373 141.458 56.4293 141.458 56.184C141.458 55.864 141.533 55.5227 141.682 55.16C141.842 54.7973 141.981 54.5147 142.098 54.312C142.386 53.8533 142.728 53.416 143.122 53C143.517 52.584 143.933 52.248 144.37 51.992C144.818 51.7253 145.245 51.592 145.65 51.592C145.928 51.592 146.2 51.656 146.466 51.784C146.52 51.6667 146.568 51.5653 146.61 51.48C146.653 51.384 146.696 51.2933 146.738 51.208C147.112 50.5467 147.426 49.9867 147.682 49.528C147.949 49.0693 148.232 48.712 148.53 48.456C148.84 48.1893 149.24 48.0293 149.73 47.976C149.442 48.36 149.192 48.7067 148.978 49.016C148.765 49.3253 148.562 49.64 148.37 49.96C148.178 50.2693 147.981 50.6107 147.778 50.984C147.576 51.3573 147.346 51.8 147.09 52.312C147.112 52.376 147.122 52.4187 147.122 52.44C147.122 52.5147 147.096 52.5787 147.042 52.632C147 52.6747 146.952 52.696 146.898 52.696C146.674 53.144 146.456 53.5973 146.242 54.056C146.04 54.504 145.869 54.92 145.73 55.304C145.602 55.6773 145.538 55.9707 145.538 56.184C145.538 56.408 145.618 56.52 145.778 56.52C145.874 56.52 145.992 56.4827 146.13 56.408C146.365 56.2907 146.6 56.1253 146.834 55.912C147.08 55.688 147.304 55.4587 147.506 55.224C147.624 55.1067 147.73 54.9947 147.826 54.888C147.922 54.7707 148.013 54.6533 148.098 54.536C148.13 54.504 148.157 54.488 148.178 54.488C148.242 54.488 148.274 54.5307 148.274 54.616C148.274 54.68 148.253 54.7333 148.21 54.776C148.029 55.0107 147.842 55.2453 147.65 55.48C147.458 55.704 147.256 55.9227 147.042 56.136C147 56.1787 146.957 56.2267 146.914 56.28C146.872 56.3227 146.824 56.3653 146.77 56.408C146.546 56.5893 146.317 56.744 146.082 56.872C145.858 57 145.656 57.064 145.474 57.064C145.208 57.064 145.026 56.984 144.93 56.824C144.845 56.6533 144.802 56.456 144.802 56.232C144.802 56.0827 144.813 55.928 144.834 55.768C144.866 55.608 144.904 55.4693 144.946 55.352C144.978 55.2347 145.016 55.1013 145.058 54.952C145.112 54.8027 145.17 54.6533 145.234 54.504C145 54.8667 144.733 55.2453 144.434 55.64C144.136 56.0347 143.816 56.3707 143.474 56.648C143.133 56.9253 142.776 57.064 142.402 57.064ZM142.498 56.664C142.68 56.664 142.946 56.5307 143.298 56.264C143.554 56.0613 143.821 55.816 144.098 55.528C144.376 55.2293 144.632 54.9413 144.866 54.664C145.112 54.376 145.298 54.152 145.426 53.992C145.554 53.6827 145.693 53.3627 145.842 53.032C146.002 52.6907 146.168 52.3547 146.338 52.024C146.253 51.9813 146.152 51.96 146.034 51.96C145.768 51.96 145.458 52.0827 145.106 52.328C144.765 52.5627 144.434 52.8507 144.114 53.192C143.752 53.576 143.421 53.992 143.122 54.44C142.824 54.8773 142.6 55.2773 142.45 55.64C142.376 55.8 142.322 55.944 142.29 56.072C142.269 56.1893 142.258 56.2907 142.258 56.376C142.258 56.568 142.338 56.664 142.498 56.664ZM151.627 57.192C151.467 57.1067 151.344 56.9893 151.259 56.84C151.174 56.6907 151.131 56.4613 151.131 56.152C151.131 55.928 151.19 55.6933 151.307 55.448C151.435 55.192 151.579 54.9467 151.739 54.712C151.91 54.4667 152.054 54.248 152.171 54.056C152.576 53.3947 152.982 52.728 153.387 52.056C153.803 51.3733 154.171 50.712 154.491 50.072C154.822 49.432 155.051 48.8453 155.179 48.312C155.36 48.312 155.483 48.3707 155.547 48.488C155.611 48.6053 155.643 48.7387 155.643 48.888C155.654 49.0373 155.654 49.16 155.643 49.256C155.632 49.4267 155.547 49.688 155.387 50.04C155.238 50.392 155.051 50.776 154.827 51.192C154.603 51.608 154.379 52.0027 154.155 52.376C153.942 52.7493 153.771 53.0373 153.643 53.24C153.44 53.5387 153.227 53.8853 153.003 54.28C152.79 54.664 152.587 55.0427 152.395 55.416C152.192 55.8 152.016 56.1573 151.867 56.488C151.728 56.808 151.648 57.0427 151.627 57.192ZM153.874 57.096C154.333 56.2427 154.712 55.4213 155.01 54.632C155.32 53.832 155.672 53.0267 156.066 52.216C156.184 52.0027 156.333 51.8587 156.514 51.784C156.696 51.6987 156.872 51.656 157.042 51.656C157.181 51.656 157.304 51.672 157.41 51.704C157.378 51.7787 157.293 51.928 157.154 52.152C157.026 52.3653 156.888 52.6107 156.738 52.888C156.632 53.08 156.472 53.3787 156.258 53.784C156.045 54.1787 155.848 54.5893 155.666 55.016C155.762 54.8773 155.906 54.6853 156.098 54.44C156.301 54.184 156.525 53.912 156.77 53.624C157.026 53.336 157.288 53.064 157.554 52.808C157.821 52.552 158.082 52.344 158.338 52.184C158.594 52.0133 158.824 51.928 159.026 51.928C159.24 51.928 159.384 51.9867 159.458 52.104C159.544 52.2107 159.586 52.3387 159.586 52.488C159.586 52.68 159.512 52.8987 159.362 53.144C159.224 53.3787 159.08 53.6453 158.93 53.944C158.845 54.104 158.738 54.296 158.61 54.52C158.493 54.7333 158.376 54.9467 158.258 55.16C158.152 55.3627 158.066 55.5333 158.002 55.672C158.109 55.4693 158.269 55.2133 158.482 54.904C158.696 54.584 158.941 54.2587 159.218 53.928C159.506 53.5867 159.8 53.2667 160.098 52.968C160.397 52.6587 160.685 52.4133 160.962 52.232C161.25 52.04 161.501 51.944 161.714 51.944C161.928 51.944 162.072 51.9973 162.146 52.104C162.232 52.2107 162.274 52.3387 162.274 52.488C162.274 52.6907 162.205 52.9307 162.066 53.208C161.938 53.4853 161.773 53.768 161.57 54.056C161.378 54.344 161.186 54.6213 160.994 54.888C160.813 55.1547 160.669 55.3893 160.562 55.592C160.413 55.8907 160.338 56.12 160.338 56.28C160.338 56.4507 160.408 56.536 160.546 56.536C160.664 56.536 160.792 56.4933 160.93 56.408C161.176 56.2907 161.416 56.1253 161.65 55.912C161.885 55.688 162.104 55.4533 162.306 55.208C162.413 55.08 162.525 54.952 162.642 54.824C162.77 54.6853 162.856 54.5893 162.898 54.536C162.92 54.504 162.946 54.488 162.978 54.488C163.042 54.488 163.074 54.5307 163.074 54.616C163.074 54.6693 163.048 54.7227 162.994 54.776C162.888 54.9147 162.776 55.0587 162.658 55.208C162.541 55.3467 162.418 55.4853 162.29 55.624C162.184 55.7627 162.066 55.9013 161.938 56.04C161.821 56.168 161.693 56.2907 161.554 56.408C161.096 56.8347 160.669 57.048 160.274 57.048C160.05 57.048 159.89 56.984 159.794 56.856C159.698 56.7173 159.65 56.5467 159.65 56.344C159.65 56.0667 159.72 55.7467 159.858 55.384C160.008 55.0107 160.184 54.6587 160.386 54.328C160.408 54.296 160.477 54.1947 160.594 54.024C160.712 53.8533 160.84 53.656 160.978 53.432C161.117 53.208 161.24 52.9947 161.346 52.792C161.453 52.5893 161.506 52.4453 161.506 52.36C161.506 52.2853 161.458 52.264 161.362 52.296C161.277 52.328 161.128 52.4347 160.914 52.616C160.658 52.84 160.37 53.1227 160.05 53.464C159.73 53.8053 159.405 54.184 159.074 54.6C158.754 55.0053 158.466 55.4373 158.21 55.896C158.157 56.0027 158.082 56.1093 157.986 56.216C157.89 56.3227 157.762 56.376 157.602 56.376H157.554C157.49 56.376 157.416 56.3547 157.33 56.312C157.256 56.2693 157.218 56.1733 157.218 56.024C157.218 55.7573 157.304 55.4427 157.474 55.08C157.645 54.7173 157.842 54.3493 158.066 53.976C158.29 53.592 158.482 53.2453 158.642 52.936C158.696 52.8187 158.738 52.712 158.77 52.616C158.813 52.52 158.834 52.4453 158.834 52.392C158.834 52.3067 158.786 52.28 158.69 52.312C158.605 52.3333 158.456 52.4347 158.242 52.616C157.986 52.8293 157.693 53.112 157.362 53.464C157.042 53.816 156.717 54.1947 156.386 54.6C156.056 55.0053 155.752 55.4053 155.474 55.8C155.197 56.184 154.984 56.52 154.834 56.808C154.792 56.904 154.733 56.9627 154.658 56.984C154.594 56.9947 154.488 57.0053 154.338 57.016C154.232 57.016 154.146 57.016 154.082 57.016C154.018 57.0267 153.949 57.0533 153.874 57.096ZM161.11 62.568C161.089 62.6533 161.046 62.648 160.982 62.552C160.907 62.4667 160.843 62.3227 160.79 62.12C160.737 61.9173 160.71 61.6933 160.71 61.448C160.71 61.256 160.731 61.08 160.774 60.92C160.891 60.4187 161.067 59.848 161.302 59.208C161.537 58.5787 161.803 57.9227 162.102 57.24C162.39 56.568 162.694 55.9067 163.014 55.256C163.334 54.5947 163.643 53.9867 163.942 53.432C164.251 52.8773 164.529 52.4187 164.774 52.056C165.169 51.448 165.51 51.0213 165.798 50.776C166.086 50.52 166.337 50.36 166.55 50.296C166.774 50.232 166.971 50.184 167.142 50.152C166.491 50.9627 165.867 51.8427 165.27 52.792C164.683 53.7413 164.086 54.8187 163.478 56.024C163.755 55.5973 164.059 55.1333 164.39 54.632C164.731 54.12 165.083 53.64 165.446 53.192C165.798 52.7547 166.145 52.392 166.486 52.104C166.838 51.8053 167.131 51.656 167.366 51.656C167.675 51.656 167.883 51.7467 167.99 51.928C168.107 52.1093 168.166 52.3227 168.166 52.568C168.166 52.9093 168.097 53.288 167.958 53.704C167.819 54.1093 167.622 54.5253 167.366 54.952C167.121 55.368 166.827 55.7573 166.486 56.12C166.155 56.472 165.793 56.7653 165.398 57C165.771 56.9147 166.107 56.808 166.406 56.68C166.705 56.552 167.003 56.376 167.302 56.152C167.601 55.9173 167.926 55.608 168.278 55.224C168.395 55.1067 168.513 54.9787 168.63 54.84C168.758 54.6907 168.865 54.5573 168.95 54.44C168.982 54.408 169.009 54.392 169.03 54.392C169.094 54.392 169.126 54.44 169.126 54.536C169.126 54.6 169.105 54.6533 169.062 54.696C168.955 54.8347 168.827 54.9893 168.678 55.16C168.539 55.32 168.406 55.4747 168.278 55.624C167.905 56.008 167.494 56.3493 167.046 56.648C166.609 56.936 166.107 57.1547 165.542 57.304C165.158 57.4 164.737 57.448 164.278 57.448C164.182 57.448 164.086 57.4427 163.99 57.432C163.894 57.432 163.803 57.4267 163.718 57.416C163.569 57.4053 163.425 57.3627 163.286 57.288C163.147 57.224 163.073 57.096 163.062 56.904C162.561 57.9493 162.166 58.952 161.878 59.912C161.59 60.8827 161.334 61.768 161.11 62.568ZM163.91 57.144C164.241 57.144 164.587 57.0053 164.95 56.728C165.323 56.4507 165.67 56.0933 165.99 55.656C166.321 55.208 166.593 54.728 166.806 54.216C166.923 53.9493 167.03 53.6453 167.126 53.304C167.233 52.952 167.286 52.6693 167.286 52.456C167.286 52.2427 167.227 52.136 167.11 52.136C166.971 52.136 166.79 52.2427 166.566 52.456C166.353 52.6693 166.07 52.9787 165.718 53.384C165.601 53.5227 165.451 53.7147 165.27 53.96C165.099 54.2053 164.918 54.4667 164.726 54.744C164.545 55.0107 164.379 55.2613 164.23 55.496C164.081 55.7307 163.969 55.912 163.894 56.04C163.83 56.1573 163.761 56.296 163.686 56.456C163.622 56.6053 163.59 56.7387 163.59 56.856C163.59 57.048 163.697 57.144 163.91 57.144ZM170.08 57.112C169.685 57.112 169.387 56.984 169.184 56.728C168.992 56.472 168.896 56.1467 168.896 55.752C168.896 55.304 169.013 54.8133 169.248 54.28C169.461 53.8 169.733 53.3627 170.064 52.968C170.405 52.5733 170.773 52.2587 171.168 52.024C171.563 51.7787 171.941 51.656 172.304 51.656C172.709 51.656 173.013 51.7733 173.216 52.008C173.419 52.2427 173.531 52.5467 173.552 52.92C173.797 53.0693 174.053 53.144 174.32 53.144C174.832 53.144 175.253 52.8987 175.584 52.408L175.968 51.752C175.936 51.72 175.872 51.6507 175.776 51.544C175.68 51.4373 175.589 51.32 175.504 51.192C175.429 51.0533 175.392 50.9307 175.392 50.824C175.392 50.6533 175.525 50.568 175.792 50.568C176.155 50.568 176.336 50.9573 176.336 51.736C176.539 51.896 176.763 52.0133 177.008 52.088C177.253 52.152 177.461 52.2373 177.632 52.344C177.813 52.4507 177.904 52.6427 177.904 52.92C177.904 53.1013 177.851 53.3147 177.744 53.56C177.648 53.7947 177.531 54.0027 177.392 54.184C177.275 54.344 177.136 54.536 176.976 54.76C176.827 54.984 176.683 55.208 176.544 55.432C176.405 55.656 176.304 55.8587 176.24 56.04C176.197 56.136 176.176 56.2373 176.176 56.344C176.176 56.4827 176.24 56.552 176.368 56.552C176.475 56.552 176.613 56.504 176.784 56.408C177.008 56.2907 177.237 56.1253 177.472 55.912C177.717 55.688 177.941 55.4587 178.144 55.224C178.261 55.1067 178.368 54.9947 178.464 54.888C178.56 54.7707 178.651 54.6533 178.736 54.536C178.768 54.504 178.795 54.488 178.816 54.488C178.88 54.488 178.912 54.536 178.912 54.632C178.912 54.6853 178.891 54.7333 178.848 54.776C178.624 55.0427 178.395 55.3253 178.16 55.624C177.925 55.912 177.675 56.1733 177.408 56.408C177.248 56.536 177.04 56.68 176.784 56.84C176.528 57 176.277 57.08 176.032 57.08C175.829 57.08 175.659 57.0107 175.52 56.872C175.381 56.7333 175.312 56.536 175.312 56.28C175.312 56.1627 175.323 56.056 175.344 55.96C175.365 55.8533 175.392 55.7627 175.424 55.688C175.477 55.528 175.579 55.32 175.728 55.064C175.877 54.808 176.043 54.5413 176.224 54.264C176.405 53.976 176.56 53.72 176.688 53.496C176.848 53.2187 176.928 52.9787 176.928 52.776C176.928 52.552 176.832 52.376 176.64 52.248C176.565 52.1947 176.491 52.1467 176.416 52.104C176.341 52.0507 176.277 52.0027 176.224 51.96L175.776 52.68C175.392 53.2027 174.885 53.464 174.256 53.464C174.021 53.464 173.781 53.416 173.536 53.32C173.525 53.5013 173.493 53.688 173.44 53.88C173.387 54.072 173.317 54.2693 173.232 54.472C173.115 54.728 172.944 55.0053 172.72 55.304C172.496 55.6027 172.24 55.8907 171.952 56.168C171.664 56.4453 171.355 56.6747 171.024 56.856C170.704 57.0267 170.389 57.112 170.08 57.112ZM170.384 56.792C170.608 56.792 170.832 56.7173 171.056 56.568C171.28 56.408 171.493 56.216 171.696 55.992C171.899 55.768 172.075 55.544 172.224 55.32C172.384 55.0853 172.501 54.888 172.576 54.728C172.725 54.408 172.848 54.1093 172.944 53.832C173.04 53.544 173.093 53.2827 173.104 53.048C172.976 52.9307 172.853 52.8027 172.736 52.664C172.619 52.5147 172.517 52.344 172.432 52.152C172.101 52.1947 171.739 52.4133 171.344 52.808C170.96 53.2027 170.64 53.672 170.384 54.216C170 54.984 169.808 55.608 169.808 56.088C169.808 56.472 169.931 56.696 170.176 56.76C170.208 56.7707 170.24 56.7813 170.272 56.792C170.304 56.792 170.341 56.792 170.384 56.792ZM179.581 57.048C179.346 57.048 179.149 56.9787 178.989 56.84C178.829 56.7013 178.749 56.4667 178.749 56.136C178.749 56.0507 178.754 55.9653 178.765 55.88C178.775 55.7947 178.791 55.704 178.813 55.608C178.898 55.1813 179.074 54.664 179.341 54.056C179.607 53.4373 179.949 52.7387 180.365 51.96H179.757C179.639 51.96 179.581 51.928 179.581 51.864C179.581 51.832 179.607 51.8 179.661 51.768C179.725 51.7253 179.81 51.704 179.917 51.704H180.493C180.674 51.3947 180.818 51.1547 180.925 50.984C181.042 50.8027 181.138 50.664 181.213 50.568C181.49 50.216 181.741 49.9707 181.965 49.832C182.199 49.6827 182.402 49.5973 182.573 49.576C182.743 49.5547 182.866 49.544 182.941 49.544C182.791 49.704 182.626 49.912 182.445 50.168C182.263 50.424 182.087 50.6907 181.917 50.968C181.746 51.2347 181.602 51.48 181.485 51.704H183.117C183.234 51.704 183.293 51.7307 183.293 51.784C183.293 51.8267 183.261 51.8693 183.197 51.912C183.133 51.944 183.047 51.96 182.941 51.96H181.325C181.154 52.2693 180.999 52.5467 180.861 52.792C180.733 53.0267 180.599 53.2773 180.461 53.544C180.333 53.8107 180.173 54.1413 179.981 54.536C179.831 54.8667 179.719 55.1493 179.645 55.384C179.581 55.6187 179.549 55.816 179.549 55.976C179.549 56.1787 179.591 56.3227 179.677 56.408C179.762 56.4933 179.869 56.536 179.997 56.536C180.125 56.536 180.274 56.4933 180.445 56.408C180.679 56.2907 180.914 56.12 181.149 55.896C181.383 55.672 181.607 55.4427 181.821 55.208C181.927 55.0907 182.029 54.9787 182.125 54.872C182.221 54.7653 182.311 54.6533 182.397 54.536C182.429 54.504 182.455 54.488 182.477 54.488C182.541 54.488 182.573 54.5307 182.573 54.616C182.573 54.68 182.551 54.7333 182.509 54.776C182.285 55.0533 182.05 55.336 181.805 55.624C181.517 55.9547 181.197 56.2747 180.845 56.584C180.493 56.8933 180.071 57.048 179.581 57.048ZM185.598 50.68C185.481 50.68 185.385 50.6427 185.31 50.568C185.235 50.4827 185.198 50.3867 185.198 50.28C185.198 50.12 185.251 49.9867 185.358 49.88C185.475 49.7627 185.603 49.704 185.742 49.704C185.881 49.704 185.987 49.752 186.062 49.848C186.147 49.9333 186.179 50.0453 186.158 50.184C186.126 50.3227 186.057 50.44 185.95 50.536C185.854 50.632 185.737 50.68 185.598 50.68ZM183.406 57C183.171 57 182.969 56.9253 182.798 56.776C182.627 56.616 182.542 56.3493 182.542 55.976C182.542 55.816 182.558 55.64 182.59 55.448C182.686 54.9467 182.841 54.4667 183.054 54.008C183.278 53.5493 183.491 53.1547 183.694 52.824C183.907 52.4827 184.046 52.2587 184.11 52.152C184.163 52.0453 184.302 51.944 184.526 51.848C184.75 51.7413 184.937 51.688 185.086 51.688C185.214 51.688 185.278 51.7307 185.278 51.816C185.278 51.8907 185.251 51.96 185.198 52.024C185.038 52.28 184.851 52.5733 184.638 52.904C184.435 53.224 184.238 53.5653 184.046 53.928C183.854 54.2907 183.694 54.648 183.566 55C183.438 55.352 183.374 55.6773 183.374 55.976C183.374 56.136 183.401 56.264 183.454 56.36C183.518 56.456 183.63 56.504 183.79 56.504C183.961 56.504 184.158 56.424 184.382 56.264C184.606 56.0933 184.819 55.9067 185.022 55.704C185.235 55.4907 185.39 55.3253 185.486 55.208C185.593 55.0907 185.694 54.9787 185.79 54.872C185.897 54.7653 185.993 54.6533 186.078 54.536C186.11 54.504 186.137 54.488 186.158 54.488C186.222 54.488 186.254 54.536 186.254 54.632C186.254 54.6853 186.233 54.7333 186.19 54.776C186.073 54.9147 185.955 55.0587 185.838 55.208C185.721 55.3467 185.598 55.4853 185.47 55.624C185.299 55.8267 185.107 56.0347 184.894 56.248C184.681 56.4613 184.451 56.6427 184.206 56.792C183.961 56.9307 183.694 57 183.406 57ZM185.392 57.096C185.851 56.2427 186.229 55.4213 186.528 54.632C186.837 53.832 187.189 53.0267 187.584 52.216C187.701 52.0027 187.851 51.8587 188.032 51.784C188.213 51.6987 188.389 51.656 188.56 51.656C188.699 51.656 188.821 51.672 188.928 51.704C188.896 51.7787 188.811 51.928 188.672 52.152C188.544 52.3653 188.405 52.6107 188.256 52.888C188.149 53.08 187.989 53.3787 187.776 53.784C187.563 54.1787 187.365 54.5893 187.184 55.016C187.28 54.8987 187.429 54.7067 187.632 54.44C187.835 54.1733 188.069 53.8853 188.336 53.576C188.603 53.256 188.88 52.952 189.168 52.664C189.467 52.3653 189.755 52.1253 190.032 51.944C190.32 51.752 190.576 51.656 190.8 51.656C190.971 51.656 191.12 51.7093 191.248 51.816C191.376 51.9227 191.44 52.0667 191.44 52.248C191.44 52.5147 191.328 52.8293 191.104 53.192C190.88 53.544 190.656 53.8907 190.432 54.232C190.389 54.296 190.309 54.4187 190.192 54.6C190.085 54.7813 189.968 54.9893 189.84 55.224C189.712 55.448 189.6 55.6667 189.504 55.88C189.419 56.0827 189.376 56.2427 189.376 56.36C189.376 56.4773 189.424 56.536 189.52 56.536C189.723 56.536 189.931 56.456 190.144 56.296C190.368 56.136 190.581 55.9547 190.784 55.752C190.987 55.5387 191.147 55.3627 191.264 55.224C191.381 55.096 191.488 54.9733 191.584 54.856C191.68 54.7387 191.776 54.6267 191.872 54.52C191.904 54.488 191.931 54.472 191.952 54.472C192.016 54.472 192.048 54.52 192.048 54.616C192.048 54.68 192.027 54.7333 191.984 54.776C191.867 54.9147 191.749 55.0587 191.632 55.208C191.515 55.3467 191.392 55.4853 191.264 55.624C191.147 55.7627 191.024 55.9013 190.896 56.04C190.779 56.168 190.656 56.2907 190.528 56.408C190.069 56.8347 189.643 57.048 189.248 57.048C188.981 57.048 188.8 56.968 188.704 56.808C188.619 56.648 188.576 56.4507 188.576 56.216C188.576 55.96 188.645 55.6827 188.784 55.384C188.923 55.0853 189.093 54.7813 189.296 54.472C189.499 54.152 189.701 53.8427 189.904 53.544C190.117 53.2453 190.293 52.9733 190.432 52.728C190.571 52.472 190.64 52.2587 190.64 52.088C190.64 52.024 190.603 51.992 190.528 51.992C190.464 51.992 190.336 52.072 190.144 52.232C189.963 52.3813 189.765 52.5627 189.552 52.776C189.339 52.9787 189.136 53.176 188.944 53.368C188.763 53.56 188.64 53.6987 188.576 53.784C188.309 54.072 188.048 54.3813 187.792 54.712C187.547 55.0427 187.312 55.3627 187.088 55.672C186.96 55.8533 186.848 56.04 186.752 56.232C186.656 56.4133 186.549 56.6053 186.432 56.808C186.379 56.904 186.304 56.9627 186.208 56.984C186.123 56.9947 186.005 57.0053 185.856 57.016C185.749 57.016 185.664 57.016 185.6 57.016C185.536 57.0267 185.467 57.0533 185.392 57.096ZM190.591 62.584C190.143 62.584 189.85 62.4773 189.711 62.264C189.562 62.0507 189.493 61.8267 189.503 61.592C189.535 61.1973 189.674 60.824 189.919 60.472C190.154 60.12 190.458 59.7893 190.831 59.48C191.205 59.1707 191.605 58.888 192.031 58.632C192.458 58.376 192.869 58.1413 193.263 57.928C193.669 57.7253 194.021 57.5493 194.319 57.4C194.618 57.2507 194.826 57.1333 194.943 57.048C195.103 56.5787 195.221 56.1307 195.295 55.704C195.37 55.2667 195.397 54.8827 195.375 54.552C195.269 54.7653 195.109 55.0427 194.895 55.384C194.693 55.7253 194.458 56.04 194.191 56.328C193.978 56.5627 193.754 56.76 193.519 56.92C193.285 57.0693 193.045 57.144 192.799 57.144C192.469 57.144 192.239 57.0267 192.111 56.792C191.983 56.5467 191.919 56.2747 191.919 55.976C191.919 55.88 191.925 55.784 191.935 55.688C191.946 55.592 191.962 55.5013 191.983 55.416C192.069 55.0747 192.197 54.7387 192.367 54.408C192.538 54.0667 192.714 53.7627 192.895 53.496C193.087 53.2187 193.247 53.0107 193.375 52.872C193.685 52.4987 194.047 52.1947 194.463 51.96C194.89 51.7147 195.322 51.592 195.759 51.592C196.207 51.592 196.629 51.7413 197.023 52.04C197.183 52.168 197.263 52.3013 197.263 52.44C197.263 52.6 197.199 52.68 197.071 52.68C196.965 52.68 196.89 52.616 196.847 52.488C196.709 52.0933 196.479 51.896 196.159 51.896C195.85 51.896 195.53 52.008 195.199 52.232C194.879 52.4453 194.57 52.728 194.271 53.08C193.973 53.432 193.701 53.8053 193.455 54.2C193.221 54.5947 193.034 54.9733 192.895 55.336C192.757 55.6987 192.687 55.9973 192.687 56.232C192.687 56.52 192.799 56.664 193.023 56.664C193.226 56.664 193.445 56.5627 193.679 56.36C193.925 56.1573 194.159 55.9067 194.383 55.608C194.607 55.2987 194.805 54.9947 194.975 54.696C195.146 54.3973 195.258 54.152 195.311 53.96C195.386 53.7253 195.477 53.5707 195.583 53.496C195.69 53.4213 195.802 53.384 195.919 53.384C195.962 53.384 195.999 53.3893 196.031 53.4C196.074 53.4 196.117 53.4053 196.159 53.416C196.17 53.4693 196.175 53.5493 196.175 53.656C196.186 53.7627 196.191 53.8907 196.191 54.04C196.191 54.3493 196.17 54.728 196.127 55.176C196.095 55.624 196.031 56.0667 195.935 56.504L196.111 56.376C196.389 56.1733 196.661 55.9653 196.927 55.752C197.194 55.5387 197.391 55.3573 197.519 55.208C197.637 55.0907 197.743 54.9787 197.839 54.872C197.935 54.7653 198.026 54.6533 198.111 54.536C198.133 54.504 198.159 54.488 198.191 54.488C198.255 54.488 198.287 54.5307 198.287 54.616C198.287 54.6693 198.261 54.7227 198.207 54.776C197.983 55.0533 197.749 55.336 197.503 55.624C197.439 55.6987 197.279 55.848 197.023 56.072C196.778 56.2853 196.517 56.488 196.239 56.68C196.101 56.7867 195.962 56.8773 195.823 56.952C195.621 57.656 195.338 58.3387 194.975 59C194.623 59.672 194.213 60.2747 193.743 60.808C193.274 61.352 192.773 61.784 192.239 62.104C191.706 62.424 191.157 62.584 190.591 62.584ZM190.511 62.248C190.927 62.248 191.354 62.0933 191.791 61.784C192.229 61.4747 192.65 61.0747 193.055 60.584C193.461 60.104 193.818 59.5867 194.127 59.032C194.437 58.488 194.666 57.976 194.815 57.496C194.634 57.6133 194.351 57.7627 193.967 57.944C193.594 58.136 193.178 58.36 192.719 58.616C192.261 58.872 191.823 59.1547 191.407 59.464C190.981 59.7733 190.623 60.1093 190.335 60.472C190.047 60.8453 189.893 61.2347 189.871 61.64C189.861 61.7787 189.903 61.912 189.999 62.04C190.095 62.1787 190.266 62.248 190.511 62.248ZM203.105 57.16C202.86 57.16 202.662 57.032 202.513 56.776C202.406 56.552 202.353 56.248 202.353 55.864C202.353 55.5547 202.38 55.24 202.433 54.92C202.497 54.5893 202.556 54.312 202.609 54.088C202.737 53.576 202.86 53.016 202.977 52.408C203.105 51.7893 203.206 51.1867 203.281 50.6C203.366 50.0133 203.409 49.5067 203.409 49.08C203.409 48.8347 203.393 48.632 203.361 48.472C203.649 48.4827 203.889 48.5733 204.081 48.744C204.273 48.9147 204.369 49.192 204.369 49.576C204.369 49.9173 204.326 50.3173 204.241 50.776C204.166 51.2347 204.081 51.6773 203.985 52.104C203.889 52.52 203.804 52.8453 203.729 53.08C203.654 53.3147 203.564 53.624 203.457 54.008C203.35 54.392 203.254 54.792 203.169 55.208C203.084 55.6133 203.03 55.9867 203.009 56.328C203.062 56.1893 203.158 56.0133 203.297 55.8C203.446 55.576 203.601 55.352 203.761 55.128C203.921 54.8933 204.06 54.696 204.177 54.536C204.54 54.0347 204.924 53.5173 205.329 52.984C205.734 52.4507 206.129 51.9227 206.513 51.4C206.897 50.8667 207.238 50.36 207.537 49.88C207.846 49.3893 208.081 48.9413 208.241 48.536C208.422 48.536 208.572 48.5893 208.689 48.696C208.817 48.8027 208.881 48.9467 208.881 49.128C208.881 49.2347 208.849 49.3627 208.785 49.512C208.678 49.7467 208.582 49.944 208.497 50.104C208.412 50.2533 208.316 50.4027 208.209 50.552C208.113 50.6907 207.985 50.872 207.825 51.096C207.58 51.4267 207.292 51.8 206.961 52.216C206.641 52.6213 206.31 53.0427 205.969 53.48C205.628 53.9067 205.302 54.312 204.993 54.696C204.694 55.08 204.438 55.4107 204.225 55.688C204.012 55.9547 203.878 56.1307 203.825 56.216C203.686 56.4187 203.569 56.6 203.473 56.76C203.388 56.92 203.324 57.0427 203.281 57.128C203.249 57.1387 203.217 57.144 203.185 57.144C203.164 57.1547 203.137 57.16 203.105 57.16ZM207.808 57.064C207.456 57.064 207.211 56.9787 207.072 56.808C206.934 56.6373 206.864 56.4293 206.864 56.184C206.864 55.864 206.939 55.5227 207.088 55.16C207.248 54.7973 207.387 54.5147 207.504 54.312C207.792 53.8533 208.134 53.416 208.528 53C208.923 52.584 209.339 52.248 209.776 51.992C210.224 51.7253 210.651 51.592 211.056 51.592C211.27 51.592 211.478 51.6293 211.68 51.704C211.883 51.768 212.08 51.88 212.272 52.04C212.368 52.1147 212.432 52.1893 212.464 52.264C212.507 52.328 212.528 52.3867 212.528 52.44C212.528 52.6 212.459 52.68 212.32 52.68C212.224 52.68 212.155 52.616 212.112 52.488C211.974 52.1253 211.75 51.944 211.44 51.944C211.174 51.944 210.87 52.0667 210.528 52.312C210.187 52.5573 209.851 52.8507 209.52 53.192C209.158 53.576 208.827 53.992 208.528 54.44C208.23 54.8773 208.006 55.2773 207.856 55.64C207.782 55.8 207.728 55.944 207.696 56.072C207.675 56.1893 207.664 56.2907 207.664 56.376C207.664 56.568 207.744 56.664 207.904 56.664C208.086 56.664 208.352 56.5307 208.704 56.264C208.96 56.0613 209.222 55.816 209.488 55.528C209.766 55.24 210.022 54.9573 210.256 54.68C210.491 54.392 210.678 54.168 210.816 54.008C210.87 53.9227 210.918 53.8427 210.96 53.768C211.014 53.6933 211.062 53.6293 211.104 53.576C211.147 53.5227 211.216 53.48 211.312 53.448C211.419 53.416 211.526 53.4 211.632 53.4C211.76 53.4 211.867 53.4213 211.952 53.464C212.038 53.5067 212.054 53.5813 212 53.688C212 53.6987 211.942 53.8107 211.824 54.024C211.707 54.2267 211.568 54.472 211.408 54.76C211.259 55.048 211.126 55.3253 211.008 55.592C210.944 55.7413 210.891 55.88 210.848 56.008C210.806 56.136 210.784 56.2427 210.784 56.328C210.784 56.4667 210.838 56.536 210.944 56.536C211.019 56.536 211.131 56.4933 211.28 56.408C211.515 56.2907 211.75 56.12 211.984 55.896C212.23 55.672 212.454 55.4427 212.656 55.208C212.774 55.0907 212.88 54.9787 212.976 54.872C213.072 54.7653 213.163 54.6533 213.248 54.536C213.28 54.504 213.307 54.488 213.328 54.488C213.392 54.488 213.424 54.536 213.424 54.632C213.424 54.6853 213.403 54.7333 213.36 54.776C213.243 54.9147 213.126 55.0587 213.008 55.208C212.891 55.3467 212.768 55.4853 212.64 55.624C212.523 55.7627 212.4 55.9013 212.272 56.04C212.155 56.168 212.032 56.2907 211.904 56.408C211.446 56.8347 211.024 57.048 210.64 57.048C210.47 57.048 210.326 56.9893 210.208 56.872C210.091 56.744 210.032 56.5467 210.032 56.28C210.032 56.0773 210.07 55.848 210.144 55.592C210.166 55.4747 210.198 55.3573 210.24 55.24C210.294 55.1227 210.342 55 210.384 54.872C210.171 55.2133 209.926 55.5547 209.648 55.896C209.382 56.2267 209.094 56.504 208.784 56.728C208.475 56.952 208.15 57.064 207.808 57.064ZM213.972 57.048C213.769 57.048 213.598 56.984 213.46 56.856C213.321 56.7173 213.252 56.4827 213.252 56.152C213.252 56.0773 213.257 55.9973 213.268 55.912C213.278 55.816 213.294 55.7147 213.316 55.608C213.369 55.32 213.481 54.952 213.652 54.504C213.822 54.056 214.025 53.5813 214.26 53.08C214.494 52.568 214.734 52.0773 214.98 51.608C215.225 51.128 215.449 50.7173 215.652 50.376C216.046 49.7253 216.414 49.224 216.756 48.872C217.097 48.52 217.401 48.28 217.668 48.152C217.934 48.024 218.158 47.9653 218.34 47.976C218.062 48.2853 217.758 48.664 217.428 49.112C217.097 49.56 216.745 50.0987 216.372 50.728C215.902 51.5387 215.492 52.2747 215.14 52.936C214.798 53.5973 214.505 54.2747 214.26 54.968C214.121 55.3733 214.052 55.704 214.052 55.96C214.052 56.3227 214.174 56.504 214.42 56.504C214.612 56.504 214.825 56.408 215.06 56.216C215.305 56.024 215.497 55.8533 215.636 55.704C215.849 55.4907 216.036 55.2933 216.196 55.112C216.366 54.92 216.532 54.728 216.692 54.536C216.724 54.504 216.75 54.488 216.772 54.488C216.836 54.488 216.868 54.536 216.868 54.632C216.868 54.6853 216.846 54.7333 216.804 54.776C216.686 54.9147 216.569 55.0587 216.452 55.208C216.345 55.3467 216.228 55.4853 216.1 55.624C215.993 55.7627 215.87 55.9013 215.732 56.04C215.604 56.168 215.476 56.2907 215.348 56.408C215.166 56.5787 214.948 56.728 214.692 56.856C214.436 56.984 214.196 57.048 213.972 57.048ZM219.946 57.048C219.584 57.048 219.402 56.824 219.402 56.376C219.402 56.1627 219.44 55.9173 219.514 55.64C219.589 55.352 219.69 55.0427 219.818 54.712C219.594 55.064 219.344 55.416 219.066 55.768C218.8 56.12 218.522 56.4133 218.234 56.648C217.957 56.872 217.685 56.984 217.418 56.984C217.12 56.984 216.917 56.888 216.81 56.696C216.714 56.4933 216.666 56.2747 216.666 56.04C216.666 55.8373 216.688 55.6453 216.73 55.464C216.773 55.272 216.816 55.1333 216.858 55.048C217.018 54.6427 217.216 54.1947 217.45 53.704C217.696 53.2133 217.914 52.7867 218.106 52.424C218.213 52.2427 218.384 52.088 218.618 51.96C218.864 51.832 219.061 51.768 219.21 51.768C219.37 51.768 219.45 51.8213 219.45 51.928C219.45 52.0133 219.397 52.1413 219.29 52.312C219.194 52.4507 219.061 52.6693 218.89 52.968C218.72 53.256 218.533 53.5813 218.33 53.944C218.138 54.3067 217.952 54.664 217.77 55.016C217.536 55.464 217.418 55.8533 217.418 56.184C217.418 56.4507 217.498 56.584 217.658 56.584C217.744 56.584 217.856 56.536 217.994 56.44C218.133 56.344 218.298 56.1893 218.49 55.976C218.576 55.8907 218.704 55.72 218.874 55.464C219.056 55.208 219.258 54.92 219.482 54.6C219.706 54.2693 219.925 53.9493 220.138 53.64C220.352 53.32 220.528 53.0587 220.666 52.856C220.922 52.3653 221.194 52.0347 221.482 51.864C221.77 51.6933 222.112 51.608 222.506 51.608C222.4 51.6613 222.272 51.8 222.122 52.024C221.973 52.248 221.818 52.4773 221.658 52.712C221.552 52.872 221.434 53.08 221.306 53.336C221.178 53.592 221.05 53.864 220.922 54.152C220.794 54.4293 220.682 54.6907 220.586 54.936C220.501 55.1813 220.442 55.3733 220.41 55.512C220.357 55.7467 220.33 55.9333 220.33 56.072C220.33 56.328 220.394 56.456 220.522 56.456C220.565 56.456 220.618 56.44 220.682 56.408C220.917 56.2907 221.152 56.12 221.386 55.896C221.621 55.672 221.845 55.4427 222.058 55.208C222.165 55.0907 222.266 54.9787 222.362 54.872C222.458 54.7653 222.549 54.6533 222.634 54.536C222.666 54.504 222.693 54.488 222.714 54.488C222.778 54.488 222.81 54.5307 222.81 54.616C222.81 54.68 222.789 54.7333 222.746 54.776C222.522 55.0533 222.288 55.336 222.042 55.624C221.808 55.8907 221.562 56.152 221.306 56.408C221.093 56.6107 220.858 56.7707 220.602 56.888C220.346 56.9947 220.128 57.048 219.946 57.048ZM224.037 57.24C223.642 57.24 223.328 57.128 223.093 56.904C222.858 56.6693 222.741 56.344 222.741 55.928C222.741 55.608 222.8 55.272 222.917 54.92C223.045 54.568 223.168 54.2907 223.285 54.088C223.53 53.64 223.824 53.2293 224.165 52.856C224.517 52.4827 224.874 52.184 225.237 51.96C225.61 51.7253 225.952 51.608 226.261 51.608C226.549 51.608 226.794 51.688 226.997 51.848C227.21 52.008 227.317 52.2213 227.317 52.488C227.317 52.5947 227.29 52.7173 227.237 52.856C227.184 52.9947 227.098 53.1387 226.981 53.288C226.554 53.832 226.08 54.2587 225.557 54.568C225.045 54.8667 224.458 55.0907 223.797 55.24C223.754 55.3787 223.717 55.5173 223.685 55.656C223.653 55.784 223.626 55.9067 223.605 56.024C223.594 56.0773 223.584 56.1307 223.573 56.184C223.573 56.2267 223.573 56.2747 223.573 56.328C223.573 56.5413 223.621 56.696 223.717 56.792C223.824 56.8773 223.952 56.92 224.101 56.92C224.336 56.92 224.586 56.8613 224.853 56.744C225.12 56.616 225.37 56.472 225.605 56.312C225.84 56.152 226.016 56.024 226.133 55.928C226.25 55.8213 226.362 55.7147 226.469 55.608C226.586 55.4907 226.714 55.3627 226.853 55.224C226.96 55.1067 227.061 54.9947 227.157 54.888C227.253 54.7707 227.344 54.6533 227.429 54.536C227.461 54.504 227.488 54.488 227.509 54.488C227.573 54.488 227.605 54.536 227.605 54.632C227.605 54.6853 227.584 54.7333 227.541 54.776C227.349 55.0107 227.157 55.2453 226.965 55.48C226.773 55.704 226.576 55.9227 226.373 56.136C226.138 56.3813 225.813 56.6267 225.397 56.872C224.992 57.1173 224.538 57.24 224.037 57.24ZM223.893 55.032C224.17 54.9147 224.49 54.744 224.853 54.52C225.226 54.296 225.584 54.0293 225.925 53.72C226.277 53.4 226.565 53.0587 226.789 52.696C226.864 52.5787 226.901 52.472 226.901 52.376C226.901 52.2267 226.816 52.152 226.645 52.152C226.528 52.152 226.384 52.1947 226.213 52.28C225.68 52.568 225.221 52.9573 224.837 53.448C224.453 53.9387 224.138 54.4667 223.893 55.032ZM229.26 57.368C228.855 57.368 228.428 57.2027 227.98 56.872C227.788 56.7333 227.623 56.5413 227.484 56.296C227.41 56.168 227.372 56.0293 227.372 55.88C227.372 55.7093 227.431 55.624 227.548 55.624C227.602 55.624 227.666 55.672 227.74 55.768C227.826 55.8533 227.9 55.9653 227.964 56.104C228.06 56.3173 228.162 56.504 228.268 56.664C228.375 56.8133 228.546 56.888 228.78 56.888C228.994 56.888 229.17 56.7653 229.308 56.52C229.447 56.2747 229.554 55.96 229.628 55.576C229.714 55.192 229.772 54.7867 229.804 54.36C229.847 53.9333 229.874 53.544 229.884 53.192C229.895 52.8293 229.906 52.552 229.916 52.36C229.415 52.968 228.94 53.544 228.492 54.088C228.055 54.6213 227.639 55.1227 227.244 55.592C227.202 55.6453 227.164 55.672 227.132 55.672C227.1 55.672 227.084 55.64 227.084 55.576C227.084 55.4587 227.111 55.3627 227.164 55.288C227.378 55.032 227.612 54.7493 227.868 54.44C228.124 54.12 228.38 53.8 228.636 53.48C228.903 53.16 229.138 52.8773 229.34 52.632C229.554 52.376 229.708 52.184 229.804 52.056C229.804 51.736 229.879 51.4853 230.028 51.304C230.178 51.112 230.359 50.9733 230.572 50.888C230.786 50.8027 230.988 50.76 231.18 50.76C231.362 50.76 231.495 50.7813 231.58 50.824C231.655 50.856 231.692 50.8933 231.692 50.936C231.692 50.968 231.639 51 231.532 51.032C231.276 51.096 231.095 51.2347 230.988 51.448C230.882 51.6507 230.812 51.9013 230.78 52.2C230.759 52.488 230.748 52.7973 230.748 53.128C230.748 53.6187 230.727 54.136 230.684 54.68C230.642 55.224 230.572 55.6827 230.476 56.056C230.455 56.1307 230.423 56.2107 230.38 56.296C230.348 56.3813 230.316 56.4667 230.284 56.552C230.583 56.3387 230.876 56.1093 231.164 55.864C231.452 55.608 231.676 55.3947 231.836 55.224C231.954 55.1067 232.055 54.9947 232.14 54.888C232.236 54.7707 232.332 54.6533 232.428 54.536C232.45 54.504 232.476 54.488 232.508 54.488C232.572 54.488 232.604 54.5307 232.604 54.616C232.604 54.6693 232.578 54.7227 232.524 54.776C232.3 55.0427 232.071 55.3253 231.836 55.624C231.612 55.9227 231.362 56.184 231.084 56.408C230.967 56.504 230.818 56.6267 230.636 56.776C230.455 56.9253 230.274 57.048 230.092 57.144C229.794 57.2933 229.516 57.368 229.26 57.368Z" fill="#005100"/>
</svg>
