<svg width="249" height="141" viewBox="0 0 249 141" fill="none" xmlns="http://www.w3.org/2000/svg">
<rect x="77" width="172" height="86" rx="3" fill="url(#paint0_linear_5_56)"/>
<path d="M3.99998 100C3.99998 93.9249 8.92485 89 15 89H238C244.075 89 249 93.9249 249 100V101.359C249 105.443 246.737 109.191 243.123 111.093L232.405 116.734C230.826 117.566 229.067 118 227.282 118H10.3043C6.82255 118 3.99998 115.177 3.99998 111.696V100Z" fill="#3BCF16"/>
<path d="M4 74.6308C4 74.2148 4.08652 73.8034 4.25405 73.4226L25.3524 25.4719C25.7569 24.5525 26.5947 23.8966 27.5843 23.7245L68.486 16.6111C70.3208 16.292 72 17.7044 72 19.5668V98C72 99.6569 70.6569 101 69 101H7C5.34314 101 4 99.6569 4 98V74.6308Z" fill="#3BCF16"/>
<path d="M27.8469 31.2225C28.1291 30.5995 28.7101 30.1639 29.3872 30.0677L55.7185 26.3243C56.9229 26.1531 58 27.0879 58 28.3044V55.5223C58 56.5122 57.2758 57.3532 56.2969 57.5001L16.6356 63.4542C15.0682 63.6895 13.8629 62.095 14.5169 60.6512L27.8469 31.2225Z" fill="white"/>
<circle cx="38" cy="114" r="25" fill="white"/>
<circle cx="38" cy="114" r="22.5" fill="#3BCF16"/>
<circle cx="197" cy="116" r="25" fill="white"/>
<circle cx="196.5" cy="116.5" r="22.5" fill="#3BCF16"/>
<rect x="231" y="89" width="18" height="17" fill="#3BCF16"/>
<line x1="179" y1="116" x2="215" y2="116" stroke="white" stroke-width="4" stroke-linecap="round"/>
<line x1="184.007" y1="103.858" x2="209.463" y2="129.314" stroke="white" stroke-width="4" stroke-linecap="round"/>
<line x1="196" y1="134" x2="196" y2="98" stroke="white" stroke-width="4" stroke-linecap="round"/>
<line x1="183.178" y1="129.314" x2="208.634" y2="103.858" stroke="white" stroke-width="4" stroke-linecap="round"/>
<path d="M89.7337 49.24C87.4537 49.24 85.6537 48.72 84.3337 47.68C83.0337 46.62 82.3837 45.19 82.3837 43.39C82.3837 43.21 82.4037 42.92 82.4437 42.52L82.5037 42.1C82.5237 41.96 82.5737 41.85 82.6537 41.77C82.7537 41.69 82.8637 41.65 82.9837 41.65H87.5137C87.6537 41.65 87.7537 41.69 87.8137 41.77C87.8937 41.85 87.9237 41.96 87.9037 42.1L87.8737 42.28C87.8137 42.84 88.0337 43.34 88.5337 43.78C89.0537 44.2 89.7937 44.41 90.7537 44.41C91.5337 44.41 92.0937 44.23 92.4337 43.87C92.7737 43.51 92.9437 43.14 92.9437 42.76C92.9437 42.36 92.7537 42.06 92.3737 41.86C92.0137 41.66 91.3737 41.42 90.4537 41.14L89.6437 40.87C87.9437 40.33 86.5137 39.62 85.3537 38.74C84.2137 37.84 83.6437 36.56 83.6437 34.9C83.6437 33.5 84.0137 32.26 84.7537 31.18C85.5137 30.1 86.5337 29.26 87.8137 28.66C89.1137 28.06 90.5337 27.76 92.0737 27.76C93.4737 27.76 94.7237 28.01 95.8237 28.51C96.9437 29.01 97.8137 29.73 98.4337 30.67C99.0537 31.59 99.3637 32.65 99.3637 33.85C99.3637 34.03 99.3437 34.32 99.3037 34.72L99.2737 34.99C99.2537 35.13 99.1937 35.24 99.0937 35.32C99.0137 35.4 98.9037 35.44 98.7637 35.44H94.2637C94.1237 35.44 94.0137 35.4 93.9337 35.32C93.8737 35.24 93.8537 35.13 93.8737 34.99V34.96C93.9337 34.58 93.8637 34.21 93.6637 33.85C93.4837 33.49 93.1837 33.19 92.7637 32.95C92.3637 32.71 91.8637 32.59 91.2637 32.59C90.6037 32.59 90.0737 32.74 89.6737 33.04C89.2737 33.32 89.0737 33.71 89.0737 34.21C89.0737 34.67 89.3337 35.06 89.8537 35.38C90.3937 35.68 91.4037 36.08 92.8837 36.58C93.0437 36.64 93.6537 36.85 94.7137 37.21C95.7937 37.55 96.6937 38.14 97.4137 38.98C98.1337 39.8 98.4937 40.8 98.4937 41.98C98.4937 42.14 98.4737 42.4 98.4337 42.76C98.1737 44.78 97.2537 46.37 95.6737 47.53C94.0937 48.67 92.1137 49.24 89.7337 49.24ZM110.283 49C110.043 49 109.893 48.89 109.833 48.67L107.583 41.08C107.543 40.98 107.473 40.93 107.373 40.93H106.233C106.133 40.93 106.063 40.99 106.023 41.11L105.123 48.55C105.103 48.69 105.043 48.8 104.943 48.88C104.863 48.96 104.753 49 104.613 49H100.023C99.8832 49 99.7732 48.96 99.6932 48.88C99.6332 48.8 99.6132 48.69 99.6332 48.55L102.123 28.45C102.143 28.31 102.193 28.2 102.273 28.12C102.353 28.04 102.463 28 102.603 28H111.423C113.223 28 114.653 28.51 115.713 29.53C116.773 30.55 117.303 31.93 117.303 33.67C117.303 33.87 117.283 34.21 117.243 34.69C117.083 36.01 116.623 37.17 115.863 38.17C115.123 39.15 114.173 39.87 113.013 40.33C112.953 40.35 112.913 40.39 112.893 40.45C112.873 40.49 112.873 40.53 112.893 40.57L115.593 48.46C115.613 48.5 115.623 48.56 115.623 48.64C115.623 48.74 115.583 48.83 115.503 48.91C115.423 48.97 115.313 49 115.173 49H110.283ZM107.223 32.83C107.123 32.83 107.053 32.89 107.013 33.01L106.593 36.46C106.593 36.58 106.643 36.64 106.743 36.64H109.443C110.123 36.64 110.683 36.44 111.123 36.04C111.583 35.64 111.813 35.12 111.813 34.48C111.813 33.98 111.633 33.58 111.273 33.28C110.933 32.98 110.483 32.83 109.923 32.83H107.223ZM117.924 49C117.784 49 117.674 48.96 117.594 48.88C117.534 48.8 117.514 48.69 117.534 48.55L120.024 28.45C120.044 28.31 120.094 28.2 120.174 28.12C120.254 28.04 120.364 28 120.504 28H125.094C125.234 28 125.334 28.04 125.394 28.12C125.474 28.2 125.504 28.31 125.484 28.45L123.024 48.55C123.004 48.69 122.944 48.8 122.844 48.88C122.764 48.96 122.654 49 122.514 49H117.924ZM132.888 49.24C130.608 49.24 128.808 48.72 127.488 47.68C126.188 46.62 125.538 45.19 125.538 43.39C125.538 43.21 125.558 42.92 125.598 42.52L125.658 42.1C125.678 41.96 125.728 41.85 125.808 41.77C125.908 41.69 126.018 41.65 126.138 41.65H130.668C130.808 41.65 130.908 41.69 130.968 41.77C131.048 41.85 131.078 41.96 131.058 42.1L131.028 42.28C130.968 42.84 131.188 43.34 131.688 43.78C132.208 44.2 132.948 44.41 133.908 44.41C134.688 44.41 135.248 44.23 135.588 43.87C135.928 43.51 136.098 43.14 136.098 42.76C136.098 42.36 135.908 42.06 135.528 41.86C135.168 41.66 134.528 41.42 133.608 41.14L132.798 40.87C131.098 40.33 129.668 39.62 128.508 38.74C127.368 37.84 126.798 36.56 126.798 34.9C126.798 33.5 127.168 32.26 127.908 31.18C128.668 30.1 129.688 29.26 130.968 28.66C132.268 28.06 133.688 27.76 135.228 27.76C136.628 27.76 137.878 28.01 138.978 28.51C140.098 29.01 140.968 29.73 141.588 30.67C142.208 31.59 142.518 32.65 142.518 33.85C142.518 34.03 142.498 34.32 142.458 34.72L142.428 34.99C142.408 35.13 142.348 35.24 142.248 35.32C142.168 35.4 142.058 35.44 141.918 35.44H137.418C137.278 35.44 137.168 35.4 137.088 35.32C137.028 35.24 137.008 35.13 137.028 34.99V34.96C137.088 34.58 137.018 34.21 136.818 33.85C136.638 33.49 136.338 33.19 135.918 32.95C135.518 32.71 135.018 32.59 134.418 32.59C133.758 32.59 133.228 32.74 132.828 33.04C132.428 33.32 132.228 33.71 132.228 34.21C132.228 34.67 132.488 35.06 133.008 35.38C133.548 35.68 134.558 36.08 136.038 36.58C136.198 36.64 136.808 36.85 137.868 37.21C138.948 37.55 139.848 38.14 140.568 38.98C141.288 39.8 141.648 40.8 141.648 41.98C141.648 42.14 141.628 42.4 141.588 42.76C141.328 44.78 140.408 46.37 138.828 47.53C137.248 48.67 135.268 49.24 132.888 49.24ZM153.438 49C153.198 49 153.048 48.89 152.988 48.67L150.738 41.08C150.698 40.98 150.628 40.93 150.528 40.93H149.388C149.288 40.93 149.218 40.99 149.178 41.11L148.278 48.55C148.258 48.69 148.198 48.8 148.098 48.88C148.018 48.96 147.908 49 147.768 49H143.177C143.038 49 142.928 48.96 142.848 48.88C142.788 48.8 142.768 48.69 142.788 48.55L145.278 28.45C145.298 28.31 145.348 28.2 145.428 28.12C145.508 28.04 145.618 28 145.758 28H154.578C156.378 28 157.808 28.51 158.868 29.53C159.928 30.55 160.458 31.93 160.458 33.67C160.458 33.87 160.438 34.21 160.398 34.69C160.238 36.01 159.778 37.17 159.018 38.17C158.278 39.15 157.328 39.87 156.168 40.33C156.108 40.35 156.068 40.39 156.048 40.45C156.028 40.49 156.028 40.53 156.048 40.57L158.748 48.46C158.768 48.5 158.778 48.56 158.778 48.64C158.778 48.74 158.738 48.83 158.658 48.91C158.578 48.97 158.468 49 158.328 49H153.438ZM150.378 32.83C150.278 32.83 150.208 32.89 150.168 33.01L149.748 36.46C149.748 36.58 149.798 36.64 149.897 36.64H152.598C153.278 36.64 153.838 36.44 154.278 36.04C154.738 35.64 154.968 35.12 154.968 34.48C154.968 33.98 154.788 33.58 154.428 33.28C154.088 32.98 153.638 32.83 153.078 32.83H150.378ZM161.078 49C160.938 49 160.828 48.96 160.748 48.88C160.688 48.8 160.668 48.69 160.688 48.55L163.178 28.45C163.198 28.31 163.248 28.2 163.328 28.12C163.408 28.04 163.518 28 163.658 28H168.248C168.388 28 168.488 28.04 168.548 28.12C168.628 28.2 168.658 28.31 168.638 28.45L166.178 48.55C166.158 48.69 166.098 48.8 165.998 48.88C165.918 48.96 165.808 49 165.668 49H161.078ZM179.822 28C181.722 28 183.222 28.53 184.322 29.59C185.422 30.63 185.972 32.05 185.972 33.85C185.972 34.31 185.952 34.66 185.912 34.9C185.752 36.24 185.302 37.42 184.562 38.44C183.842 39.46 182.902 40.25 181.742 40.81C180.602 41.37 179.322 41.65 177.902 41.65H174.842C174.742 41.65 174.672 41.71 174.632 41.83L173.822 48.55C173.802 48.69 173.742 48.8 173.642 48.88C173.562 48.96 173.452 49 173.312 49H168.722C168.582 49 168.472 48.96 168.392 48.88C168.332 48.8 168.312 48.69 168.332 48.55L170.822 28.45C170.842 28.31 170.892 28.2 170.972 28.12C171.052 28.04 171.162 28 171.302 28H179.822ZM177.812 37.15C178.572 37.15 179.202 36.93 179.702 36.49C180.222 36.03 180.482 35.44 180.482 34.72C180.482 34.14 180.282 33.68 179.882 33.34C179.502 33 178.982 32.83 178.322 32.83H175.922C175.822 32.83 175.752 32.89 175.712 33.01L175.232 36.97C175.232 37.09 175.282 37.15 175.382 37.15H177.812ZM193.683 49.36C192.203 49.36 190.913 49.08 189.813 48.52C188.733 47.96 187.893 47.17 187.293 46.15C186.713 45.13 186.423 43.93 186.423 42.55C186.423 42.15 186.453 41.74 186.513 41.32L187.203 35.68C187.403 34.12 187.913 32.74 188.733 31.54C189.553 30.34 190.613 29.41 191.913 28.75C193.233 28.09 194.703 27.76 196.323 27.76C197.803 27.76 199.093 28.04 200.193 28.6C201.293 29.14 202.133 29.92 202.713 30.94C203.313 31.94 203.613 33.12 203.613 34.48C203.613 34.86 203.583 35.26 203.523 35.68L202.833 41.32C202.653 42.92 202.143 44.33 201.303 45.55C200.483 46.75 199.413 47.69 198.093 48.37C196.773 49.03 195.303 49.36 193.683 49.36ZM194.283 44.53C195.103 44.53 195.793 44.26 196.353 43.72C196.913 43.16 197.243 42.42 197.343 41.5L198.063 35.62C198.083 35.5 198.093 35.32 198.093 35.08C198.093 34.32 197.883 33.72 197.463 33.28C197.043 32.82 196.463 32.59 195.723 32.59C194.923 32.59 194.243 32.87 193.683 33.43C193.123 33.97 192.793 34.7 192.693 35.62L191.973 41.5C191.953 41.62 191.943 41.8 191.943 42.04C191.943 42.8 192.153 43.41 192.573 43.87C192.993 44.31 193.563 44.53 194.283 44.53ZM214.58 49C214.34 49 214.19 48.89 214.13 48.67L211.88 41.08C211.84 40.98 211.77 40.93 211.67 40.93H210.53C210.43 40.93 210.36 40.99 210.32 41.11L209.42 48.55C209.4 48.69 209.34 48.8 209.24 48.88C209.16 48.96 209.05 49 208.91 49H204.32C204.18 49 204.07 48.96 203.99 48.88C203.93 48.8 203.91 48.69 203.93 48.55L206.42 28.45C206.44 28.31 206.49 28.2 206.57 28.12C206.65 28.04 206.76 28 206.9 28H215.72C217.52 28 218.95 28.51 220.01 29.53C221.07 30.55 221.6 31.93 221.6 33.67C221.6 33.87 221.58 34.21 221.54 34.69C221.38 36.01 220.92 37.17 220.16 38.17C219.42 39.15 218.47 39.87 217.31 40.33C217.25 40.35 217.21 40.39 217.19 40.45C217.17 40.49 217.17 40.53 217.19 40.57L219.89 48.46C219.91 48.5 219.92 48.56 219.92 48.64C219.92 48.74 219.88 48.83 219.8 48.91C219.72 48.97 219.61 49 219.47 49H214.58ZM211.52 32.83C211.42 32.83 211.35 32.89 211.31 33.01L210.89 36.46C210.89 36.58 210.94 36.64 211.04 36.64H213.74C214.42 36.64 214.98 36.44 215.42 36.04C215.88 35.64 216.11 35.12 216.11 34.48C216.11 33.98 215.93 33.58 215.57 33.28C215.23 32.98 214.78 32.83 214.22 32.83H211.52ZM239.532 28C239.652 28 239.742 28.04 239.802 28.12C239.882 28.2 239.912 28.31 239.892 28.45L239.412 32.41C239.392 32.55 239.342 32.66 239.262 32.74C239.182 32.82 239.072 32.86 238.932 32.86H234.072C233.972 32.86 233.902 32.92 233.862 33.04L231.972 48.55C231.952 48.69 231.892 48.8 231.792 48.88C231.712 48.96 231.602 49 231.462 49H226.872C226.732 49 226.622 48.96 226.542 48.88C226.482 48.8 226.462 48.69 226.482 48.55L228.402 33.04C228.402 32.92 228.352 32.86 228.252 32.86H223.542C223.402 32.86 223.292 32.82 223.212 32.74C223.152 32.66 223.132 32.55 223.152 32.41L223.632 28.45C223.652 28.31 223.702 28.2 223.782 28.12C223.882 28.04 224.002 28 224.142 28H239.532Z" fill="black"/>
<path d="M127.877 64.564C127.413 64.564 126.925 64.516 126.413 64.42C125.909 64.324 125.405 64.2 124.901 64.048C124.405 63.904 123.941 63.748 123.509 63.58C123.285 63.796 123.041 63.972 122.777 64.108C122.513 64.244 122.225 64.312 121.913 64.312C121.457 64.312 121.029 64.208 120.629 64C120.229 63.8 119.925 63.492 119.717 63.076C119.589 62.836 119.525 62.584 119.525 62.32C119.525 62.16 119.561 62.012 119.633 61.876C119.713 61.732 119.841 61.66 120.017 61.66C120.145 61.66 120.321 61.704 120.545 61.792C120.769 61.872 121.017 61.976 121.289 62.104C121.569 62.232 121.845 62.368 122.117 62.512C122.397 62.648 122.653 62.78 122.885 62.908C123.117 63.028 123.297 63.124 123.425 63.196C123.681 62.796 123.909 62.336 124.109 61.816C124.309 61.288 124.485 60.804 124.637 60.364C124.453 60.348 124.261 60.336 124.061 60.328C123.869 60.312 123.681 60.304 123.497 60.304C123.289 60.304 123.053 60.328 122.789 60.376C122.533 60.424 122.333 60.532 122.189 60.7C122.117 60.78 122.061 60.876 122.021 60.988C121.989 61.092 121.949 61.192 121.901 61.288C121.781 61.224 121.721 61.14 121.721 61.036C121.721 60.956 121.777 60.868 121.889 60.772C122.001 60.668 122.121 60.576 122.249 60.496C122.385 60.416 122.485 60.36 122.549 60.328C122.821 60.184 123.105 60.072 123.401 59.992C123.697 59.912 124.001 59.872 124.313 59.872C124.401 59.872 124.485 59.872 124.565 59.872C124.653 59.872 124.737 59.876 124.817 59.884C125.009 59.332 125.217 58.78 125.441 58.228C125.665 57.668 125.941 57.144 126.269 56.656C125.877 56.584 125.481 56.524 125.081 56.476C124.689 56.428 124.293 56.404 123.893 56.404C123.637 56.404 123.357 56.42 123.053 56.452C122.757 56.484 122.469 56.552 122.189 56.656C121.917 56.76 121.693 56.92 121.517 57.136C121.445 57.224 121.389 57.308 121.349 57.388C121.317 57.46 121.301 57.556 121.301 57.676C121.301 57.772 121.321 57.884 121.361 58.012C121.401 58.132 121.465 58.22 121.553 58.276C121.593 58.3 121.673 58.32 121.793 58.336C121.921 58.344 121.993 58.368 122.009 58.408C122.001 58.44 121.973 58.464 121.925 58.48C121.877 58.488 121.837 58.492 121.805 58.492C121.685 58.492 121.585 58.464 121.505 58.408C121.425 58.344 121.357 58.284 121.301 58.228C121.245 58.164 121.193 58.132 121.145 58.132C121.129 58.132 121.113 58.144 121.097 58.168C121.089 58.184 121.073 58.192 121.049 58.192C120.993 58.192 120.961 58.14 120.953 58.036C120.945 57.932 120.941 57.864 120.941 57.832C120.941 57.736 120.973 57.628 121.037 57.508C121.109 57.38 121.173 57.28 121.229 57.208C121.469 56.896 121.757 56.656 122.093 56.488C122.429 56.32 122.785 56.204 123.161 56.14C123.545 56.068 123.921 56.032 124.289 56.032C124.665 56.032 125.041 56.056 125.417 56.104C125.801 56.152 126.177 56.208 126.545 56.272C126.833 55.92 127.185 55.64 127.601 55.432C128.017 55.216 128.457 55.108 128.921 55.108C128.985 55.108 129.045 55.112 129.101 55.12C129.157 55.128 129.213 55.144 129.269 55.168C129.309 55.176 129.377 55.204 129.473 55.252C129.569 55.3 129.617 55.352 129.617 55.408C129.617 55.448 129.597 55.468 129.557 55.468C129.525 55.468 129.509 55.492 129.509 55.54C129.509 55.596 129.537 55.672 129.593 55.768C129.649 55.856 129.677 55.964 129.677 56.092C129.677 56.14 129.661 56.212 129.629 56.308C129.597 56.396 129.549 56.44 129.485 56.44C129.461 56.44 129.449 56.416 129.449 56.368C129.449 56.304 129.457 56.24 129.473 56.176C129.497 56.112 129.509 56.052 129.509 55.996C129.509 55.884 129.457 55.78 129.353 55.684C129.249 55.588 129.129 55.508 128.993 55.444C128.857 55.38 128.741 55.348 128.645 55.348C128.325 55.348 128.021 55.456 127.733 55.672C127.453 55.88 127.221 56.108 127.037 56.356C127.349 56.412 127.689 56.476 128.057 56.548C128.433 56.62 128.805 56.684 129.173 56.74C129.541 56.796 129.881 56.824 130.193 56.824C130.297 56.824 130.413 56.816 130.541 56.8C130.669 56.776 130.765 56.724 130.829 56.644C130.845 56.628 130.861 56.608 130.877 56.584C130.901 56.552 130.929 56.536 130.961 56.536C130.993 56.536 131.009 56.552 131.009 56.584C131.009 56.6 131.005 56.616 130.997 56.632C130.989 56.64 130.981 56.652 130.973 56.668C130.869 56.844 130.717 57.016 130.517 57.184C130.317 57.344 130.105 57.424 129.881 57.424C129.833 57.424 129.785 57.42 129.737 57.412C129.689 57.396 129.641 57.384 129.593 57.376C129.129 57.272 128.661 57.168 128.189 57.064C127.725 56.96 127.257 56.856 126.785 56.752C126.505 57.24 126.265 57.756 126.065 58.3C125.865 58.836 125.673 59.372 125.489 59.908C125.873 59.916 126.257 59.936 126.641 59.968C127.025 59.992 127.409 60.004 127.793 60.004C127.977 60.004 128.157 59.984 128.333 59.944C128.509 59.896 128.685 59.852 128.861 59.812C128.877 59.82 128.897 59.832 128.921 59.848C128.945 59.856 128.957 59.872 128.957 59.896C128.957 59.912 128.949 59.928 128.933 59.944C128.925 59.96 128.913 59.976 128.897 59.992C128.769 60.112 128.605 60.208 128.405 60.28C128.205 60.344 127.997 60.392 127.781 60.424C127.565 60.448 127.369 60.46 127.193 60.46C126.881 60.46 126.565 60.456 126.245 60.448C125.933 60.44 125.621 60.424 125.309 60.4C125.141 60.912 124.925 61.432 124.661 61.96C124.405 62.488 124.089 62.952 123.713 63.352C124.089 63.488 124.501 63.608 124.949 63.712C125.405 63.808 125.865 63.884 126.329 63.94C126.793 63.988 127.221 64.012 127.613 64.012C127.805 64.012 128.033 64.004 128.297 63.988C128.569 63.964 128.833 63.92 129.089 63.856C129.353 63.784 129.573 63.672 129.749 63.52C129.925 63.368 130.013 63.16 130.013 62.896C130.013 62.824 130.005 62.756 129.989 62.692C129.973 62.628 129.965 62.564 129.965 62.5C129.965 62.452 129.981 62.428 130.013 62.428C130.093 62.428 130.161 62.496 130.217 62.632C130.281 62.76 130.313 62.856 130.313 62.92V62.968C130.257 63.4 130.105 63.732 129.857 63.964C129.617 64.188 129.321 64.344 128.969 64.432C128.625 64.52 128.261 64.564 127.877 64.564ZM122.117 64.048C122.349 64.048 122.561 63.984 122.753 63.856C122.945 63.728 123.113 63.58 123.257 63.412C123.105 63.324 122.897 63.208 122.633 63.064C122.377 62.92 122.105 62.776 121.817 62.632C121.529 62.488 121.253 62.368 120.989 62.272C120.733 62.176 120.521 62.128 120.353 62.128C120.265 62.128 120.185 62.148 120.113 62.188C120.049 62.228 120.017 62.304 120.017 62.416C120.017 62.584 120.085 62.76 120.221 62.944C120.365 63.128 120.529 63.296 120.713 63.448C120.905 63.6 121.069 63.712 121.205 63.784C121.445 63.912 121.705 63.996 121.985 64.036C122.017 64.044 122.061 64.048 122.117 64.048ZM129.786 64.252C129.77 64.252 129.762 64.248 129.762 64.24C129.762 64.208 129.79 64.164 129.846 64.108C129.902 64.052 129.938 64.016 129.954 64C130.258 63.704 130.558 63.404 130.854 63.1C131.15 62.788 131.446 62.484 131.742 62.188C131.726 62.132 131.694 62.016 131.646 61.84C131.598 61.664 131.546 61.476 131.49 61.276C131.442 61.068 131.398 60.884 131.358 60.724C131.318 60.556 131.298 60.456 131.298 60.424C131.298 60.24 131.382 60.104 131.55 60.016C131.726 59.92 131.89 59.872 132.042 59.872C132.058 59.872 132.082 59.884 132.114 59.908C132.154 59.924 132.178 59.936 132.186 59.944L132.21 59.98V59.992C132.21 60.008 132.202 60.016 132.186 60.016C132.17 60.008 132.154 60.004 132.138 60.004C132.034 60.004 131.97 60.072 131.946 60.208C131.922 60.336 131.91 60.436 131.91 60.508C131.91 60.724 131.93 60.94 131.97 61.156C132.018 61.372 132.07 61.584 132.126 61.792C132.166 61.752 132.25 61.668 132.378 61.54C132.506 61.412 132.654 61.264 132.822 61.096C132.998 60.92 133.17 60.752 133.338 60.592C133.506 60.424 133.65 60.284 133.77 60.172C133.89 60.06 133.966 60 133.998 59.992C134.07 59.968 134.162 59.944 134.274 59.92C134.386 59.896 134.478 59.884 134.55 59.884C134.582 59.884 134.61 59.888 134.634 59.896C134.666 59.896 134.682 59.916 134.682 59.956C134.682 60.012 134.646 60.068 134.574 60.124C134.51 60.18 134.434 60.228 134.346 60.268C134.266 60.308 134.202 60.34 134.154 60.364C133.946 60.476 133.722 60.632 133.482 60.832C133.242 61.024 133.01 61.228 132.786 61.444C132.562 61.66 132.366 61.856 132.198 62.032C132.222 62.104 132.266 62.228 132.33 62.404C132.394 62.572 132.47 62.752 132.558 62.944C132.646 63.128 132.738 63.288 132.834 63.424C132.938 63.56 133.042 63.628 133.146 63.628C133.194 63.628 133.238 63.608 133.278 63.568C133.414 63.456 133.502 63.284 133.542 63.052C133.582 62.82 133.602 62.624 133.602 62.464C133.602 62.288 133.59 62.124 133.566 61.972C133.614 61.996 133.646 62.064 133.662 62.176C133.678 62.28 133.686 62.388 133.686 62.5C133.686 62.58 133.682 62.66 133.674 62.74C133.674 62.812 133.674 62.864 133.674 62.896V62.944C133.714 63 133.734 63.044 133.734 63.076C133.742 63.108 133.75 63.152 133.758 63.208C133.718 63.328 133.662 63.456 133.59 63.592C133.518 63.728 133.43 63.844 133.326 63.94C133.222 64.036 133.098 64.084 132.954 64.084C132.778 64.084 132.638 64.032 132.534 63.928C132.43 63.824 132.338 63.7 132.258 63.556C132.154 63.364 132.062 63.16 131.982 62.944C131.91 62.728 131.854 62.556 131.814 62.428C131.734 62.508 131.65 62.592 131.562 62.68C131.482 62.768 131.402 62.856 131.322 62.944C131.21 63.072 131.098 63.2 130.986 63.328C130.882 63.456 130.774 63.584 130.662 63.712C130.622 63.752 130.542 63.816 130.422 63.904C130.302 63.992 130.182 64.072 130.062 64.144C129.934 64.216 129.842 64.252 129.786 64.252ZM130.479 68.02C130.431 68.02 130.343 68 130.215 67.96C130.079 67.92 129.955 67.868 129.843 67.804C129.723 67.74 129.663 67.676 129.663 67.612C129.663 67.588 129.679 67.576 129.711 67.576C129.743 67.592 129.775 67.6 129.807 67.6C129.839 67.6 129.859 67.596 129.867 67.588C129.859 67.564 129.851 67.54 129.843 67.516C129.827 67.492 129.819 67.464 129.819 67.432C129.819 67.392 129.835 67.368 129.867 67.36C129.843 67.312 129.823 67.264 129.807 67.216C129.783 67.176 129.755 67.132 129.723 67.084C129.707 67.052 129.671 67 129.615 66.928C129.559 66.864 129.531 66.816 129.531 66.784C129.531 66.752 129.539 66.72 129.555 66.688C129.723 66.912 129.867 67.092 129.987 67.228C130.107 67.364 130.255 67.46 130.431 67.516C130.599 67.58 130.835 67.612 131.139 67.612C131.443 67.612 131.723 67.516 131.979 67.324C132.235 67.14 132.475 66.896 132.699 66.592C132.915 66.288 133.111 65.96 133.287 65.608C133.455 65.256 133.603 64.916 133.731 64.588C133.859 64.26 133.963 63.984 134.043 63.76C134.203 63.296 134.351 62.828 134.487 62.356C134.623 61.884 134.755 61.412 134.883 60.94C134.947 60.684 135.011 60.424 135.075 60.16C135.139 59.888 135.215 59.632 135.303 59.392C135.359 59.248 135.483 59.116 135.675 58.996C135.875 58.868 136.087 58.768 136.311 58.696C136.543 58.616 136.731 58.576 136.875 58.576C136.899 58.576 136.919 58.592 136.935 58.624C136.959 58.648 136.971 58.668 136.971 58.684C136.971 58.748 136.943 58.788 136.887 58.804C136.863 58.78 136.847 58.756 136.839 58.732C136.831 58.7 136.807 58.684 136.767 58.684C136.671 58.684 136.555 58.748 136.419 58.876C136.283 59.004 136.159 59.148 136.047 59.308C135.935 59.46 135.863 59.58 135.831 59.668C135.703 60.052 135.583 60.44 135.471 60.832C135.359 61.224 135.247 61.616 135.135 62.008C135.199 61.912 135.303 61.776 135.447 61.6C135.599 61.424 135.767 61.232 135.951 61.024C136.143 60.816 136.339 60.616 136.539 60.424C136.739 60.232 136.923 60.076 137.091 59.956C137.267 59.836 137.411 59.776 137.523 59.776C137.611 59.776 137.663 59.844 137.679 59.98C137.703 60.108 137.715 60.204 137.715 60.268C137.715 60.636 137.643 61.04 137.499 61.48C137.355 61.92 137.167 62.34 136.935 62.74C136.703 63.132 136.451 63.452 136.179 63.7C135.995 63.876 135.803 63.992 135.603 64.048C135.403 64.112 135.175 64.144 134.919 64.144C134.847 64.144 134.767 64.136 134.679 64.12C134.599 64.112 134.535 64.088 134.487 64.048C134.327 64.456 134.123 64.888 133.875 65.344C133.627 65.808 133.335 66.24 132.999 66.64C132.663 67.048 132.287 67.38 131.871 67.636C131.447 67.892 130.983 68.02 130.479 68.02ZM135.087 63.904C135.239 63.904 135.391 63.84 135.543 63.712C135.703 63.584 135.827 63.468 135.915 63.364C136.035 63.228 136.159 63.048 136.287 62.824C136.423 62.592 136.547 62.348 136.659 62.092C136.779 61.828 136.875 61.572 136.947 61.324C137.019 61.076 137.055 60.864 137.055 60.688V60.64C137.055 60.608 137.051 60.58 137.043 60.556C137.035 60.524 137.015 60.508 136.983 60.508C136.911 60.508 136.795 60.58 136.635 60.724C136.483 60.86 136.319 61.024 136.143 61.216C135.967 61.408 135.803 61.592 135.651 61.768C135.507 61.936 135.411 62.052 135.363 62.116C135.299 62.196 135.235 62.28 135.171 62.368C135.115 62.456 135.063 62.544 135.015 62.632C134.959 62.744 134.895 62.888 134.823 63.064C134.759 63.24 134.727 63.392 134.727 63.52C134.727 63.624 134.759 63.716 134.823 63.796C134.895 63.868 134.983 63.904 135.087 63.904ZM138.194 64.06C138.042 64.06 137.934 64.02 137.87 63.94C137.814 63.852 137.786 63.7 137.786 63.484C137.786 63.172 137.826 62.844 137.906 62.5C137.986 62.156 138.094 61.824 138.23 61.504C138.366 61.176 138.518 60.892 138.686 60.652C138.814 60.476 138.986 60.312 139.202 60.16C139.418 60.008 139.65 59.884 139.898 59.788C140.146 59.692 140.378 59.644 140.594 59.644C140.666 59.644 140.754 59.656 140.858 59.68C140.962 59.696 141.042 59.728 141.098 59.776C141.138 59.808 141.162 59.852 141.17 59.908C141.186 59.964 141.194 60.016 141.194 60.064C141.194 60.272 141.158 60.516 141.086 60.796C141.022 61.068 140.934 61.348 140.822 61.636C140.71 61.924 140.59 62.196 140.462 62.452C140.334 62.7 140.206 62.908 140.078 63.076C140.006 63.172 139.89 63.28 139.73 63.4C139.57 63.512 139.394 63.62 139.202 63.724C139.018 63.82 138.834 63.9 138.65 63.964C138.466 64.028 138.314 64.06 138.194 64.06ZM138.518 63.724C138.894 63.644 139.198 63.464 139.43 63.184C139.614 62.968 139.786 62.684 139.946 62.332C140.106 61.98 140.234 61.616 140.33 61.24C140.434 60.864 140.486 60.536 140.486 60.256C140.486 60.232 140.482 60.192 140.474 60.136C140.474 60.08 140.462 60.048 140.438 60.04C140.342 59.992 140.234 59.968 140.114 59.968C140.034 59.968 139.93 59.996 139.802 60.052C139.674 60.1 139.578 60.156 139.514 60.22C139.474 60.26 139.434 60.316 139.394 60.388C139.362 60.452 139.33 60.508 139.298 60.556C139.146 60.796 138.998 61.076 138.854 61.396C138.718 61.716 138.606 62.044 138.518 62.38C138.43 62.716 138.386 63.032 138.386 63.328C138.386 63.424 138.394 63.512 138.41 63.592C138.434 63.664 138.47 63.708 138.518 63.724ZM140.741 64.156C140.725 64.156 140.717 64.152 140.717 64.144C140.717 64.112 140.733 64.08 140.765 64.048C140.789 64.024 140.809 64 140.825 63.976C140.897 63.856 140.977 63.652 141.065 63.364C141.161 63.068 141.253 62.744 141.341 62.392C141.437 62.04 141.521 61.712 141.593 61.408C141.673 61.096 141.729 60.86 141.761 60.7C141.777 60.636 141.793 60.552 141.809 60.448C141.833 60.344 141.861 60.24 141.893 60.136C141.925 60.032 141.961 59.964 142.001 59.932C142.073 59.868 142.181 59.812 142.325 59.764C142.469 59.716 142.613 59.68 142.757 59.656C142.909 59.624 143.033 59.608 143.129 59.608C143.145 59.608 143.165 59.616 143.189 59.632C143.213 59.648 143.229 59.664 143.237 59.68L143.249 59.716C143.241 59.74 143.229 59.752 143.213 59.752C143.197 59.744 143.181 59.74 143.165 59.74C143.013 59.74 142.873 59.828 142.745 60.004C142.617 60.172 142.505 60.38 142.409 60.628C142.313 60.876 142.229 61.116 142.157 61.348C142.093 61.572 142.049 61.74 142.025 61.852C142.105 61.668 142.209 61.46 142.337 61.228C142.473 60.988 142.629 60.76 142.805 60.544C142.981 60.32 143.173 60.136 143.381 59.992C143.589 59.84 143.809 59.764 144.041 59.764C144.073 59.764 144.125 59.772 144.197 59.788C144.277 59.796 144.349 59.816 144.413 59.848C144.485 59.872 144.521 59.904 144.521 59.944L144.509 59.956H144.497L144.425 59.932C144.449 59.988 144.465 60.044 144.473 60.1C144.481 60.156 144.485 60.212 144.485 60.268C144.485 60.316 144.469 60.42 144.437 60.58C144.413 60.74 144.377 60.892 144.329 61.036C144.289 61.172 144.245 61.24 144.197 61.24C144.165 61.24 144.149 61.228 144.149 61.204C144.149 61.164 144.161 61.1 144.185 61.012C144.217 60.916 144.233 60.828 144.233 60.748C144.233 60.604 144.197 60.488 144.125 60.4C144.053 60.312 143.945 60.268 143.801 60.268C143.561 60.268 143.329 60.372 143.105 60.58C142.881 60.78 142.677 61.032 142.493 61.336C142.309 61.632 142.153 61.932 142.025 62.236C141.897 62.54 141.809 62.788 141.761 62.98C141.729 63.084 141.701 63.22 141.677 63.388C141.653 63.548 141.593 63.66 141.497 63.724C141.473 63.732 141.397 63.772 141.269 63.844C141.149 63.916 141.033 63.984 140.921 64.048C140.801 64.12 140.741 64.156 140.741 64.156ZM144.414 64.036C144.286 64.036 144.198 64.004 144.15 63.94C144.102 63.876 144.078 63.784 144.078 63.664C144.078 63.456 144.126 63.196 144.222 62.884C144.318 62.564 144.438 62.228 144.582 61.876C144.726 61.516 144.866 61.176 145.002 60.856C145.146 60.528 145.262 60.26 145.35 60.052C145.246 60.06 145.142 60.064 145.038 60.064C144.934 60.064 144.826 60.068 144.714 60.076C144.698 60.06 144.69 60.044 144.69 60.028C144.69 59.98 144.722 59.924 144.786 59.86C144.85 59.796 144.922 59.744 145.002 59.704C145.09 59.656 145.154 59.632 145.194 59.632H145.53C145.61 59.44 145.69 59.248 145.77 59.056C145.858 58.864 145.938 58.672 146.01 58.48C146.05 58.376 146.094 58.292 146.142 58.228C146.198 58.156 146.274 58.088 146.37 58.024C146.506 57.936 146.674 57.864 146.874 57.808C147.074 57.752 147.25 57.724 147.402 57.724C147.418 57.724 147.434 57.732 147.45 57.748C147.474 57.764 147.49 57.776 147.498 57.784V57.832C147.498 57.856 147.486 57.864 147.462 57.856C147.446 57.848 147.43 57.844 147.414 57.844C147.318 57.844 147.206 57.924 147.078 58.084C146.95 58.236 146.818 58.42 146.682 58.636C146.546 58.852 146.426 59.06 146.322 59.26C146.226 59.452 146.158 59.584 146.118 59.656H146.598C146.726 59.656 146.854 59.656 146.982 59.656C147.11 59.648 147.238 59.636 147.366 59.62L147.378 59.644C147.37 59.644 147.366 59.648 147.366 59.656C147.366 59.664 147.362 59.668 147.354 59.668C147.33 59.692 147.27 59.732 147.174 59.788C147.078 59.836 146.982 59.88 146.886 59.92C146.79 59.96 146.722 59.984 146.682 59.992C146.554 60.008 146.426 60.02 146.298 60.028C146.178 60.036 146.054 60.04 145.926 60.04C145.846 60.216 145.742 60.448 145.614 60.736C145.486 61.024 145.358 61.332 145.23 61.66C145.102 61.98 144.994 62.288 144.906 62.584C144.826 62.872 144.786 63.112 144.786 63.304C144.786 63.352 144.794 63.408 144.81 63.472C144.826 63.536 144.866 63.568 144.93 63.568C144.986 63.568 145.042 63.548 145.098 63.508C145.274 63.404 145.446 63.264 145.614 63.088C145.79 62.904 145.95 62.708 146.094 62.5C146.246 62.284 146.366 62.088 146.454 61.912C146.47 61.92 146.478 61.936 146.478 61.96C146.478 62.008 146.45 62.08 146.394 62.176C146.338 62.264 146.274 62.36 146.202 62.464C146.13 62.568 146.062 62.66 145.998 62.74C145.942 62.82 145.914 62.868 145.914 62.884C145.906 62.948 145.89 62.996 145.866 63.028C145.85 63.052 145.83 63.096 145.806 63.16C145.702 63.256 145.57 63.376 145.41 63.52C145.25 63.656 145.082 63.776 144.906 63.88C144.73 63.984 144.566 64.036 144.414 64.036ZM148.678 58.84C148.614 58.84 148.514 58.816 148.378 58.768C148.25 58.712 148.186 58.644 148.186 58.564C148.186 58.556 148.186 58.552 148.186 58.552C148.194 58.544 148.198 58.536 148.198 58.528C148.238 58.448 148.326 58.4 148.462 58.384C148.606 58.368 148.714 58.344 148.786 58.312C148.946 58.248 149.102 58.196 149.254 58.156C149.406 58.116 149.55 58.044 149.686 57.94C149.718 57.956 149.734 57.972 149.734 57.988C149.734 58.02 149.698 58.064 149.626 58.12C149.562 58.176 149.518 58.224 149.494 58.264C149.462 58.312 149.39 58.384 149.278 58.48C149.174 58.568 149.062 58.652 148.942 58.732C148.822 58.804 148.734 58.84 148.678 58.84ZM146.65 64.036C146.522 64.036 146.434 64.004 146.386 63.94C146.338 63.876 146.314 63.784 146.314 63.664C146.314 63.4 146.366 63.08 146.47 62.704C146.582 62.328 146.706 61.948 146.842 61.564C146.978 61.172 147.086 60.824 147.166 60.52C147.198 60.408 147.274 60.332 147.394 60.292C147.522 60.244 147.63 60.188 147.718 60.124C147.846 60.036 147.982 59.964 148.126 59.908C148.27 59.844 148.422 59.812 148.582 59.812C148.622 59.812 148.646 59.82 148.654 59.836C148.67 59.852 148.678 59.864 148.678 59.872C148.678 59.92 148.65 59.944 148.594 59.944C148.482 59.944 148.366 60.012 148.246 60.148C148.126 60.276 148.006 60.444 147.886 60.652C147.766 60.86 147.658 61.076 147.562 61.3C147.466 61.524 147.382 61.732 147.31 61.924C147.238 62.108 147.19 62.244 147.166 62.332C147.126 62.46 147.086 62.612 147.046 62.788C147.006 62.956 146.986 63.112 146.986 63.256C146.986 63.312 146.994 63.38 147.01 63.46C147.026 63.532 147.074 63.568 147.154 63.568C147.21 63.568 147.27 63.548 147.334 63.508C147.51 63.404 147.682 63.264 147.85 63.088C148.026 62.904 148.186 62.708 148.33 62.5C148.482 62.284 148.602 62.088 148.69 61.912C148.706 61.92 148.714 61.936 148.714 61.96C148.714 62.008 148.686 62.08 148.63 62.176C148.574 62.264 148.51 62.36 148.438 62.464C148.366 62.568 148.298 62.66 148.234 62.74C148.178 62.82 148.15 62.868 148.15 62.884C148.142 62.948 148.13 62.996 148.114 63.028C148.098 63.052 148.074 63.096 148.042 63.16C147.946 63.256 147.818 63.376 147.658 63.52C147.498 63.656 147.33 63.776 147.154 63.88C146.978 63.984 146.81 64.036 146.65 64.036ZM147.819 64.156C147.811 64.156 147.807 64.152 147.807 64.144C147.807 64.112 147.823 64.08 147.855 64.048C147.879 64.016 147.895 63.992 147.903 63.976C147.959 63.888 148.027 63.74 148.107 63.532C148.179 63.316 148.251 63.076 148.323 62.812C148.403 62.54 148.475 62.268 148.539 61.996C148.611 61.716 148.675 61.46 148.731 61.228C148.787 60.996 148.827 60.82 148.851 60.7C148.867 60.636 148.883 60.552 148.899 60.448C148.915 60.344 148.939 60.24 148.971 60.136C149.003 60.032 149.039 59.964 149.079 59.932C149.159 59.868 149.267 59.812 149.403 59.764C149.547 59.716 149.695 59.68 149.847 59.656C149.999 59.624 150.123 59.608 150.219 59.608C150.235 59.608 150.255 59.616 150.279 59.632C150.303 59.648 150.319 59.664 150.327 59.68V59.716C150.327 59.74 150.319 59.752 150.303 59.752C150.287 59.744 150.271 59.74 150.255 59.74C150.079 59.74 149.923 59.84 149.787 60.04C149.651 60.232 149.535 60.472 149.439 60.76C149.343 61.04 149.263 61.312 149.199 61.576C149.135 61.84 149.087 62.04 149.055 62.176C149.311 61.736 149.603 61.316 149.931 60.916C150.267 60.508 150.659 60.18 151.107 59.932C151.163 59.9 151.227 59.868 151.299 59.836C151.371 59.796 151.435 59.776 151.491 59.776C151.595 59.776 151.659 59.824 151.683 59.92C151.707 60.008 151.719 60.092 151.719 60.172C151.719 60.276 151.683 60.428 151.611 60.628C151.539 60.828 151.455 61.028 151.359 61.228C151.271 61.42 151.203 61.572 151.155 61.684C151.107 61.812 151.051 61.976 150.987 62.176C150.923 62.376 150.867 62.576 150.819 62.776C150.771 62.976 150.747 63.144 150.747 63.28C150.747 63.336 150.755 63.4 150.771 63.472C150.787 63.544 150.831 63.58 150.903 63.58C150.943 63.58 150.975 63.572 150.999 63.556C151.031 63.54 151.063 63.524 151.095 63.508C151.279 63.404 151.455 63.264 151.623 63.088C151.799 62.904 151.959 62.708 152.103 62.5C152.247 62.284 152.367 62.088 152.463 61.912C152.471 61.92 152.475 61.936 152.475 61.96C152.475 62.008 152.447 62.08 152.391 62.176C152.335 62.264 152.271 62.36 152.199 62.464C152.127 62.568 152.059 62.66 151.995 62.74C151.939 62.82 151.911 62.868 151.911 62.884C151.903 62.94 151.891 62.988 151.875 63.028C151.859 63.06 151.839 63.104 151.815 63.16C151.719 63.256 151.579 63.376 151.395 63.52C151.219 63.656 151.035 63.78 150.843 63.892C150.659 63.996 150.495 64.048 150.351 64.048C150.223 64.048 150.135 64 150.087 63.904C150.047 63.8 150.027 63.692 150.027 63.58C150.027 63.364 150.071 63.108 150.159 62.812C150.247 62.508 150.351 62.208 150.471 61.912C150.591 61.608 150.691 61.352 150.771 61.144C150.795 61.08 150.831 60.98 150.879 60.844C150.935 60.708 150.963 60.612 150.963 60.556C150.963 60.516 150.955 60.472 150.939 60.424C150.931 60.376 150.895 60.352 150.831 60.352C150.751 60.352 150.647 60.404 150.519 60.508C150.399 60.612 150.307 60.696 150.243 60.76C149.899 61.144 149.603 61.572 149.355 62.044C149.107 62.508 148.899 62.988 148.731 63.484C148.707 63.548 148.691 63.596 148.683 63.628C148.683 63.652 148.651 63.684 148.587 63.724C148.563 63.74 148.487 63.784 148.359 63.856C148.239 63.928 148.123 63.996 148.011 64.06C147.891 64.124 147.827 64.156 147.819 64.156ZM150.573 67.336C150.525 67.336 150.433 67.316 150.297 67.276C150.161 67.236 150.037 67.184 149.925 67.12C149.805 67.056 149.745 66.992 149.745 66.928C149.745 66.912 149.761 66.904 149.793 66.904C149.841 66.92 149.877 66.928 149.901 66.928C149.909 66.928 149.929 66.92 149.961 66.904C149.929 66.856 149.913 66.808 149.913 66.76C149.913 66.72 149.925 66.696 149.949 66.688C149.933 66.64 149.913 66.592 149.889 66.544C149.865 66.504 149.841 66.46 149.817 66.412C149.801 66.38 149.765 66.328 149.709 66.256C149.653 66.192 149.625 66.144 149.625 66.112C149.625 66.088 149.633 66.052 149.649 66.004C149.817 66.236 149.961 66.42 150.081 66.556C150.201 66.692 150.345 66.788 150.513 66.844C150.681 66.908 150.917 66.94 151.221 66.94C151.573 66.94 151.901 66.812 152.205 66.556C152.517 66.3 152.797 65.968 153.045 65.56C153.301 65.16 153.525 64.728 153.717 64.264C153.917 63.8 154.085 63.356 154.221 62.932C154.365 62.5 154.473 62.144 154.545 61.864C154.449 61.992 154.309 62.176 154.125 62.416C153.941 62.656 153.737 62.9 153.513 63.148C153.289 63.388 153.065 63.596 152.841 63.772C152.625 63.94 152.433 64.024 152.265 64.024C152.137 64.024 152.053 63.976 152.013 63.88C151.981 63.776 151.965 63.672 151.965 63.568C151.965 63.2 152.037 62.8 152.181 62.368C152.325 61.928 152.513 61.508 152.745 61.108C152.977 60.708 153.229 60.384 153.501 60.136C153.805 59.872 154.145 59.74 154.521 59.74C154.681 59.74 154.837 59.76 154.989 59.8C155.149 59.832 155.305 59.88 155.457 59.944C155.593 59.848 155.741 59.764 155.901 59.692C156.061 59.62 156.225 59.584 156.393 59.584C156.433 59.584 156.465 59.608 156.489 59.656V59.692C156.481 59.716 156.469 59.728 156.453 59.728C156.437 59.72 156.421 59.716 156.405 59.716C156.253 59.716 156.109 59.8 155.973 59.968C155.845 60.136 155.729 60.344 155.625 60.592C155.521 60.832 155.433 61.064 155.361 61.288C155.289 61.512 155.237 61.68 155.205 61.792C155.029 62.424 154.809 63.068 154.545 63.724C154.289 64.372 153.953 64.96 153.537 65.488C153.441 65.608 153.341 65.724 153.237 65.836C153.133 65.956 153.025 66.072 152.913 66.184C152.601 66.504 152.249 66.776 151.857 67C151.465 67.224 151.037 67.336 150.573 67.336ZM152.793 63.508C152.881 63.508 152.989 63.452 153.117 63.34C153.253 63.22 153.393 63.08 153.537 62.92C153.689 62.752 153.821 62.592 153.933 62.44C154.053 62.288 154.137 62.176 154.185 62.104C154.281 61.96 154.389 61.78 154.509 61.564C154.637 61.348 154.745 61.124 154.833 60.892C154.929 60.66 154.977 60.464 154.977 60.304C154.977 60.056 154.853 59.932 154.605 59.932C154.461 59.932 154.309 59.996 154.149 60.124C153.989 60.252 153.861 60.368 153.765 60.472C153.661 60.6 153.541 60.784 153.405 61.024C153.277 61.264 153.157 61.524 153.045 61.804C152.933 62.084 152.837 62.352 152.757 62.608C152.685 62.864 152.649 63.076 152.649 63.244C152.649 63.292 152.657 63.348 152.673 63.412C152.697 63.476 152.737 63.508 152.793 63.508ZM158.311 64.024C158.183 64.024 158.099 63.976 158.059 63.88C158.027 63.776 158.011 63.672 158.011 63.568C158.011 63.192 158.083 62.788 158.227 62.356C158.371 61.924 158.559 61.512 158.791 61.12C159.023 60.72 159.275 60.392 159.547 60.136C159.835 59.872 160.175 59.74 160.567 59.74C160.727 59.74 160.883 59.76 161.035 59.8C161.195 59.832 161.351 59.88 161.503 59.944C161.639 59.848 161.787 59.764 161.947 59.692C162.107 59.62 162.271 59.584 162.439 59.584C162.479 59.584 162.511 59.608 162.535 59.656V59.692C162.535 59.716 162.523 59.728 162.499 59.728C162.483 59.72 162.467 59.716 162.451 59.716C162.323 59.716 162.183 59.816 162.031 60.016C161.879 60.208 161.727 60.456 161.575 60.76C161.423 61.064 161.283 61.384 161.155 61.72C161.035 62.056 160.935 62.364 160.855 62.644C160.783 62.924 160.747 63.136 160.747 63.28C160.747 63.336 160.755 63.4 160.771 63.472C160.795 63.544 160.843 63.58 160.915 63.58C160.955 63.58 160.987 63.572 161.011 63.556C161.043 63.54 161.075 63.524 161.107 63.508C161.283 63.404 161.455 63.264 161.623 63.088C161.799 62.904 161.959 62.708 162.103 62.5C162.255 62.284 162.379 62.088 162.475 61.912C162.483 61.92 162.487 61.936 162.487 61.96C162.487 62.008 162.459 62.08 162.403 62.176C162.347 62.264 162.283 62.36 162.211 62.464C162.139 62.568 162.071 62.66 162.007 62.74C161.951 62.82 161.923 62.868 161.923 62.884C161.915 62.94 161.903 62.988 161.887 63.028C161.871 63.06 161.847 63.104 161.815 63.16C161.711 63.264 161.579 63.384 161.419 63.52C161.259 63.656 161.091 63.776 160.915 63.88C160.747 63.976 160.583 64.024 160.423 64.024C160.175 64.024 160.051 63.892 160.051 63.628C160.051 63.468 160.083 63.284 160.147 63.076C160.219 62.86 160.299 62.648 160.387 62.44C160.483 62.224 160.567 62.044 160.639 61.9C160.639 61.892 160.639 61.88 160.639 61.864C160.639 61.848 160.635 61.84 160.627 61.84C160.619 61.84 160.607 61.848 160.591 61.864C160.495 61.992 160.355 62.176 160.171 62.416C159.987 62.656 159.783 62.9 159.559 63.148C159.343 63.388 159.123 63.596 158.899 63.772C158.675 63.94 158.479 64.024 158.311 64.024ZM158.839 63.508C158.927 63.508 159.035 63.452 159.163 63.34C159.299 63.22 159.439 63.08 159.583 62.92C159.735 62.752 159.867 62.592 159.979 62.44C160.099 62.288 160.183 62.176 160.231 62.104C160.327 61.96 160.435 61.78 160.555 61.564C160.683 61.348 160.791 61.124 160.879 60.892C160.975 60.66 161.023 60.464 161.023 60.304C161.023 60.056 160.899 59.932 160.651 59.932C160.507 59.932 160.355 59.996 160.195 60.124C160.035 60.252 159.907 60.368 159.811 60.472C159.707 60.6 159.587 60.784 159.451 61.024C159.323 61.264 159.203 61.524 159.091 61.804C158.979 62.084 158.883 62.352 158.803 62.608C158.731 62.864 158.695 63.076 158.695 63.244C158.695 63.292 158.703 63.348 158.719 63.412C158.735 63.476 158.775 63.508 158.839 63.508ZM161.624 64.156C161.616 64.156 161.612 64.152 161.612 64.144C161.612 64.112 161.628 64.08 161.66 64.048C161.684 64.016 161.7 63.992 161.708 63.976C161.764 63.888 161.832 63.74 161.912 63.532C161.984 63.316 162.056 63.076 162.128 62.812C162.208 62.54 162.28 62.268 162.344 61.996C162.416 61.716 162.48 61.46 162.536 61.228C162.592 60.996 162.632 60.82 162.656 60.7C162.672 60.636 162.688 60.552 162.704 60.448C162.72 60.344 162.744 60.24 162.776 60.136C162.808 60.032 162.844 59.964 162.884 59.932C162.964 59.868 163.072 59.812 163.208 59.764C163.352 59.716 163.5 59.68 163.652 59.656C163.804 59.624 163.928 59.608 164.024 59.608C164.04 59.608 164.06 59.616 164.084 59.632C164.108 59.648 164.124 59.664 164.132 59.68V59.716C164.132 59.74 164.124 59.752 164.108 59.752C164.092 59.744 164.076 59.74 164.06 59.74C163.884 59.74 163.728 59.84 163.592 60.04C163.456 60.232 163.34 60.472 163.244 60.76C163.148 61.04 163.068 61.312 163.004 61.576C162.94 61.84 162.892 62.04 162.86 62.176C163.116 61.736 163.408 61.316 163.736 60.916C164.072 60.508 164.464 60.18 164.912 59.932C164.968 59.9 165.032 59.868 165.104 59.836C165.176 59.796 165.24 59.776 165.296 59.776C165.4 59.776 165.464 59.824 165.488 59.92C165.512 60.008 165.524 60.092 165.524 60.172C165.524 60.276 165.488 60.428 165.416 60.628C165.344 60.828 165.26 61.028 165.164 61.228C165.076 61.42 165.008 61.572 164.96 61.684C164.912 61.812 164.856 61.976 164.792 62.176C164.728 62.376 164.672 62.576 164.624 62.776C164.576 62.976 164.552 63.144 164.552 63.28C164.552 63.336 164.56 63.4 164.576 63.472C164.592 63.544 164.636 63.58 164.708 63.58C164.748 63.58 164.78 63.572 164.804 63.556C164.836 63.54 164.868 63.524 164.9 63.508C165.084 63.404 165.26 63.264 165.428 63.088C165.604 62.904 165.764 62.708 165.908 62.5C166.052 62.284 166.172 62.088 166.268 61.912C166.276 61.92 166.28 61.936 166.28 61.96C166.28 62.008 166.252 62.08 166.196 62.176C166.14 62.264 166.076 62.36 166.004 62.464C165.932 62.568 165.864 62.66 165.8 62.74C165.744 62.82 165.716 62.868 165.716 62.884C165.708 62.94 165.696 62.988 165.68 63.028C165.664 63.06 165.644 63.104 165.62 63.16C165.524 63.256 165.384 63.376 165.2 63.52C165.024 63.656 164.84 63.78 164.648 63.892C164.464 63.996 164.3 64.048 164.156 64.048C164.028 64.048 163.94 64 163.892 63.904C163.852 63.8 163.832 63.692 163.832 63.58C163.832 63.364 163.876 63.108 163.964 62.812C164.052 62.508 164.156 62.208 164.276 61.912C164.396 61.608 164.496 61.352 164.576 61.144C164.6 61.08 164.636 60.98 164.684 60.844C164.74 60.708 164.768 60.612 164.768 60.556C164.768 60.516 164.76 60.472 164.744 60.424C164.736 60.376 164.7 60.352 164.636 60.352C164.556 60.352 164.452 60.404 164.324 60.508C164.204 60.612 164.112 60.696 164.048 60.76C163.704 61.144 163.408 61.572 163.16 62.044C162.912 62.508 162.704 62.988 162.536 63.484C162.512 63.548 162.496 63.596 162.488 63.628C162.488 63.652 162.456 63.684 162.392 63.724C162.368 63.74 162.292 63.784 162.164 63.856C162.044 63.928 161.928 63.996 161.816 64.06C161.696 64.124 161.632 64.156 161.624 64.156ZM166.045 64.024C165.917 64.024 165.833 63.976 165.793 63.88C165.761 63.776 165.745 63.672 165.745 63.568C165.745 63.192 165.817 62.788 165.961 62.356C166.105 61.924 166.293 61.512 166.525 61.12C166.757 60.72 167.009 60.392 167.281 60.136C167.441 59.992 167.597 59.888 167.749 59.824C167.901 59.752 168.089 59.716 168.313 59.716C168.441 59.716 168.569 59.724 168.697 59.74C168.825 59.756 168.953 59.776 169.081 59.8C169.481 58.912 169.853 58.012 170.197 57.1C170.269 56.916 170.389 56.764 170.557 56.644C170.693 56.556 170.861 56.484 171.061 56.428C171.261 56.372 171.437 56.344 171.589 56.344C171.605 56.344 171.625 56.352 171.649 56.368C171.673 56.384 171.689 56.4 171.697 56.416V56.452C171.689 56.476 171.677 56.488 171.661 56.488C171.645 56.48 171.629 56.476 171.613 56.476C171.501 56.476 171.369 56.56 171.217 56.728C171.073 56.896 170.917 57.116 170.749 57.388C170.589 57.66 170.429 57.96 170.269 58.288C170.109 58.608 169.957 58.924 169.813 59.236C169.677 59.54 169.557 59.816 169.453 60.064C169.357 60.304 169.285 60.48 169.237 60.592C169.181 60.744 169.105 60.94 169.009 61.18C168.913 61.42 168.821 61.676 168.733 61.948C168.645 62.22 168.569 62.476 168.505 62.716C168.441 62.956 168.409 63.156 168.409 63.316C168.409 63.364 168.417 63.42 168.433 63.484C168.449 63.548 168.489 63.58 168.553 63.58C168.593 63.58 168.625 63.572 168.649 63.556C168.681 63.54 168.713 63.524 168.745 63.508C168.929 63.404 169.105 63.264 169.273 63.088C169.449 62.904 169.609 62.708 169.753 62.5C169.897 62.284 170.013 62.088 170.101 61.912C170.117 61.92 170.125 61.936 170.125 61.96C170.125 62.016 170.077 62.116 169.981 62.26C169.893 62.396 169.801 62.528 169.705 62.656C169.617 62.776 169.569 62.852 169.561 62.884C169.553 62.94 169.541 62.988 169.525 63.028C169.509 63.06 169.485 63.104 169.453 63.16C169.349 63.264 169.217 63.384 169.057 63.52C168.897 63.656 168.729 63.776 168.553 63.88C168.385 63.976 168.221 64.024 168.061 64.024C167.813 64.024 167.689 63.892 167.689 63.628C167.689 63.468 167.721 63.284 167.785 63.076C167.857 62.868 167.937 62.66 168.025 62.452C168.121 62.244 168.205 62.068 168.277 61.924C168.189 62.052 168.053 62.232 167.869 62.464C167.693 62.696 167.493 62.932 167.269 63.172C167.053 63.412 166.837 63.616 166.621 63.784C166.405 63.944 166.213 64.024 166.045 64.024ZM166.573 63.508C166.661 63.508 166.769 63.452 166.897 63.34C167.033 63.228 167.173 63.092 167.317 62.932C167.469 62.764 167.601 62.608 167.713 62.464C167.833 62.312 167.917 62.2 167.965 62.128C168.061 61.984 168.169 61.8 168.289 61.576C168.409 61.352 168.513 61.124 168.601 60.892C168.697 60.66 168.745 60.464 168.745 60.304C168.745 60.056 168.625 59.932 168.385 59.932C168.233 59.932 168.077 59.996 167.917 60.124C167.765 60.252 167.641 60.368 167.545 60.472C167.441 60.6 167.321 60.784 167.185 61.024C167.057 61.264 166.937 61.524 166.825 61.804C166.713 62.084 166.617 62.352 166.537 62.608C166.465 62.864 166.429 63.076 166.429 63.244C166.429 63.292 166.437 63.348 166.453 63.412C166.469 63.476 166.509 63.508 166.573 63.508ZM173.469 65.212C173.205 65.212 172.957 65.168 172.725 65.08C172.501 65 172.293 64.864 172.101 64.672C172.069 64.64 172.033 64.6 171.993 64.552C171.961 64.512 171.945 64.468 171.945 64.42C171.945 64.356 171.969 64.32 172.017 64.312C172.065 64.312 172.093 64.308 172.101 64.3C172.149 64.26 172.173 64.212 172.173 64.156C172.173 64.108 172.177 64.056 172.185 64C172.201 63.896 172.253 63.78 172.341 63.652C172.437 63.524 172.545 63.46 172.665 63.46C172.665 63.46 172.669 63.464 172.677 63.472C172.685 63.472 172.689 63.476 172.689 63.484C172.689 63.516 172.661 63.56 172.605 63.616C172.549 63.672 172.493 63.736 172.437 63.808C172.381 63.88 172.353 63.96 172.353 64.048C172.353 64.184 172.409 64.3 172.521 64.396C172.633 64.5 172.769 64.584 172.929 64.648C173.097 64.712 173.261 64.76 173.421 64.792C173.589 64.824 173.725 64.84 173.829 64.84C174.301 64.84 174.733 64.688 175.125 64.384C175.525 64.088 175.893 63.692 176.229 63.196C176.565 62.692 176.869 62.136 177.141 61.528C177.421 60.92 177.673 60.308 177.897 59.692C178.121 59.076 178.321 58.5 178.497 57.964C178.673 57.428 178.825 56.984 178.953 56.632C178.545 56.784 178.121 56.984 177.681 57.232C177.249 57.472 176.849 57.756 176.481 58.084C176.121 58.404 175.841 58.768 175.641 59.176C175.569 59.296 175.533 59.432 175.533 59.584C175.533 59.736 175.581 59.868 175.677 59.98C175.773 60.092 175.901 60.148 176.061 60.148C176.181 60.148 176.281 60.116 176.361 60.052C176.449 59.98 176.513 59.944 176.553 59.944C176.569 59.944 176.577 59.952 176.577 59.968C176.577 60.048 176.517 60.124 176.397 60.196C176.285 60.268 176.201 60.316 176.145 60.34C176.089 60.356 176.041 60.372 176.001 60.388C175.961 60.396 175.909 60.4 175.845 60.4H175.761C175.233 60.4 174.969 60.144 174.969 59.632C174.969 59.344 175.061 59.072 175.245 58.816C175.429 58.56 175.665 58.32 175.953 58.096C176.241 57.872 176.553 57.668 176.889 57.484C177.225 57.292 177.549 57.12 177.861 56.968C178.173 56.808 178.437 56.672 178.653 56.56L179.085 56.296C179.149 56.144 179.249 55.996 179.385 55.852C179.521 55.7 179.681 55.624 179.865 55.624C179.953 55.624 180.033 55.652 180.105 55.708C180.185 55.756 180.229 55.828 180.237 55.924C180.077 55.996 179.917 56.184 179.757 56.488C179.605 56.792 179.441 57.172 179.265 57.628C179.089 58.084 178.897 58.584 178.689 59.128C178.489 59.672 178.265 60.228 178.017 60.796C177.769 61.364 177.493 61.912 177.189 62.44C176.893 62.96 176.561 63.432 176.193 63.856C175.825 64.272 175.413 64.6 174.957 64.84C174.509 65.088 174.013 65.212 173.469 65.212ZM179.19 64.156C179.182 64.156 179.178 64.152 179.178 64.144C179.178 64.112 179.194 64.08 179.226 64.048C179.25 64.016 179.266 63.992 179.274 63.976C179.33 63.888 179.398 63.74 179.478 63.532C179.55 63.316 179.622 63.076 179.694 62.812C179.774 62.54 179.846 62.268 179.91 61.996C179.982 61.716 180.046 61.46 180.102 61.228C180.158 60.996 180.198 60.82 180.222 60.7C180.238 60.636 180.254 60.552 180.27 60.448C180.286 60.344 180.31 60.24 180.342 60.136C180.374 60.032 180.41 59.964 180.45 59.932C180.522 59.868 180.63 59.812 180.774 59.764C180.918 59.716 181.066 59.68 181.218 59.656C181.37 59.624 181.49 59.608 181.578 59.608C181.626 59.608 181.662 59.632 181.686 59.68L181.698 59.716C181.69 59.74 181.678 59.752 181.662 59.752C181.646 59.744 181.63 59.74 181.614 59.74C181.438 59.74 181.282 59.84 181.146 60.04C181.018 60.232 180.902 60.472 180.798 60.76C180.702 61.04 180.622 61.312 180.558 61.576C180.502 61.84 180.458 62.04 180.426 62.176C180.682 61.744 180.974 61.324 181.302 60.916C181.638 60.508 182.026 60.18 182.466 59.932C182.53 59.9 182.594 59.868 182.658 59.836C182.73 59.796 182.798 59.776 182.862 59.776C182.966 59.776 183.03 59.824 183.054 59.92C183.078 60.008 183.09 60.092 183.09 60.172C183.09 60.276 183.058 60.424 182.994 60.616C182.938 60.8 182.87 60.984 182.79 61.168C182.718 61.352 182.658 61.496 182.61 61.6C182.858 61.272 183.134 60.964 183.438 60.676C183.742 60.38 184.078 60.132 184.446 59.932C184.502 59.9 184.566 59.868 184.638 59.836C184.71 59.796 184.778 59.776 184.842 59.776C184.946 59.776 185.006 59.824 185.022 59.92C185.046 60.008 185.058 60.092 185.058 60.172C185.058 60.292 185.022 60.444 184.95 60.628C184.886 60.804 184.81 60.984 184.722 61.168C184.642 61.344 184.578 61.492 184.53 61.612C184.474 61.74 184.418 61.872 184.362 62.008C184.314 62.144 184.27 62.28 184.23 62.416C184.198 62.544 184.162 62.688 184.122 62.848C184.082 63 184.062 63.144 184.062 63.28C184.062 63.336 184.07 63.4 184.086 63.472C184.11 63.544 184.158 63.58 184.23 63.58C184.27 63.58 184.302 63.572 184.326 63.556C184.358 63.54 184.39 63.524 184.422 63.508C184.606 63.404 184.782 63.264 184.95 63.088C185.126 62.904 185.286 62.708 185.43 62.5C185.574 62.284 185.694 62.088 185.79 61.912C185.798 61.92 185.802 61.936 185.802 61.96C185.802 62.008 185.774 62.08 185.718 62.176C185.662 62.264 185.598 62.36 185.526 62.464C185.454 62.568 185.386 62.66 185.322 62.74C185.266 62.82 185.238 62.868 185.238 62.884C185.23 62.94 185.218 62.988 185.202 63.028C185.186 63.06 185.162 63.104 185.13 63.16C185.034 63.256 184.894 63.376 184.71 63.52C184.534 63.656 184.35 63.78 184.158 63.892C183.966 63.996 183.798 64.048 183.654 64.048C183.534 64.048 183.454 64.008 183.414 63.928C183.374 63.84 183.354 63.744 183.354 63.64C183.354 63.432 183.402 63.176 183.498 62.872C183.594 62.56 183.702 62.248 183.822 61.936C183.942 61.624 184.038 61.368 184.11 61.168C184.134 61.104 184.17 61 184.218 60.856C184.274 60.712 184.302 60.612 184.302 60.556C184.302 60.508 184.294 60.46 184.278 60.412C184.262 60.364 184.222 60.34 184.158 60.34C184.03 60.34 183.874 60.424 183.69 60.592C183.514 60.76 183.334 60.964 183.15 61.204C182.966 61.436 182.802 61.664 182.658 61.888C182.522 62.104 182.426 62.264 182.37 62.368C182.29 62.528 182.214 62.696 182.142 62.872C182.07 63.04 182.018 63.212 181.986 63.388C181.914 63.388 181.818 63.436 181.698 63.532C181.586 63.628 181.478 63.724 181.374 63.82C181.278 63.908 181.218 63.952 181.194 63.952C181.178 63.952 181.174 63.944 181.182 63.928C181.19 63.904 181.194 63.884 181.194 63.868L181.206 63.784C181.222 63.664 181.246 63.548 181.278 63.436C181.318 63.316 181.354 63.204 181.386 63.1C181.426 62.964 181.47 62.828 181.518 62.692C181.574 62.548 181.63 62.412 181.686 62.284C181.71 62.22 181.754 62.108 181.818 61.948C181.89 61.78 181.966 61.596 182.046 61.396C182.126 61.196 182.194 61.02 182.25 60.868C182.306 60.708 182.334 60.604 182.334 60.556C182.334 60.516 182.326 60.472 182.31 60.424C182.302 60.376 182.266 60.352 182.202 60.352C182.122 60.352 182.018 60.404 181.89 60.508C181.77 60.612 181.678 60.696 181.614 60.76C181.27 61.136 180.97 61.564 180.714 62.044C180.466 62.516 180.262 62.996 180.102 63.484C180.078 63.548 180.062 63.592 180.054 63.616C180.054 63.64 180.022 63.676 179.958 63.724C179.934 63.732 179.858 63.772 179.73 63.844C179.61 63.916 179.494 63.984 179.382 64.048C179.262 64.12 179.198 64.156 179.19 64.156ZM181.549 68.02C181.501 68.02 181.413 68 181.285 67.96C181.149 67.92 181.025 67.868 180.913 67.804C180.793 67.74 180.733 67.676 180.733 67.612C180.733 67.588 180.749 67.576 180.781 67.576C180.813 67.592 180.845 67.6 180.877 67.6C180.909 67.6 180.929 67.596 180.937 67.588C180.929 67.564 180.921 67.54 180.913 67.516C180.897 67.492 180.889 67.464 180.889 67.432C180.889 67.392 180.905 67.368 180.937 67.36C180.913 67.312 180.893 67.264 180.877 67.216C180.853 67.176 180.825 67.132 180.793 67.084C180.777 67.052 180.741 67 180.685 66.928C180.629 66.864 180.601 66.816 180.601 66.784C180.601 66.752 180.609 66.72 180.625 66.688C180.793 66.912 180.937 67.092 181.057 67.228C181.177 67.364 181.325 67.46 181.501 67.516C181.669 67.58 181.905 67.612 182.209 67.612C182.513 67.612 182.793 67.516 183.049 67.324C183.305 67.14 183.545 66.896 183.769 66.592C183.985 66.288 184.181 65.96 184.357 65.608C184.525 65.256 184.673 64.916 184.801 64.588C184.929 64.26 185.033 63.984 185.113 63.76C185.273 63.296 185.421 62.828 185.557 62.356C185.693 61.884 185.825 61.412 185.953 60.94C186.017 60.684 186.081 60.424 186.145 60.16C186.209 59.888 186.285 59.632 186.373 59.392C186.429 59.248 186.553 59.116 186.745 58.996C186.945 58.868 187.157 58.768 187.381 58.696C187.613 58.616 187.801 58.576 187.945 58.576C187.969 58.576 187.989 58.592 188.005 58.624C188.029 58.648 188.041 58.668 188.041 58.684C188.041 58.748 188.013 58.788 187.957 58.804C187.933 58.78 187.917 58.756 187.909 58.732C187.901 58.7 187.877 58.684 187.837 58.684C187.741 58.684 187.625 58.748 187.489 58.876C187.353 59.004 187.229 59.148 187.117 59.308C187.005 59.46 186.933 59.58 186.901 59.668C186.773 60.052 186.653 60.44 186.541 60.832C186.429 61.224 186.317 61.616 186.205 62.008C186.269 61.912 186.373 61.776 186.517 61.6C186.669 61.424 186.837 61.232 187.021 61.024C187.213 60.816 187.409 60.616 187.609 60.424C187.809 60.232 187.993 60.076 188.161 59.956C188.337 59.836 188.481 59.776 188.593 59.776C188.681 59.776 188.733 59.844 188.749 59.98C188.773 60.108 188.785 60.204 188.785 60.268C188.785 60.636 188.713 61.04 188.569 61.48C188.425 61.92 188.237 62.34 188.005 62.74C187.773 63.132 187.521 63.452 187.249 63.7C187.065 63.876 186.873 63.992 186.673 64.048C186.473 64.112 186.245 64.144 185.989 64.144C185.917 64.144 185.837 64.136 185.749 64.12C185.669 64.112 185.605 64.088 185.557 64.048C185.397 64.456 185.193 64.888 184.945 65.344C184.697 65.808 184.405 66.24 184.069 66.64C183.733 67.048 183.357 67.38 182.941 67.636C182.517 67.892 182.053 68.02 181.549 68.02ZM186.157 63.904C186.309 63.904 186.461 63.84 186.613 63.712C186.773 63.584 186.897 63.468 186.985 63.364C187.105 63.228 187.229 63.048 187.357 62.824C187.493 62.592 187.617 62.348 187.729 62.092C187.849 61.828 187.945 61.572 188.017 61.324C188.089 61.076 188.125 60.864 188.125 60.688V60.64C188.125 60.608 188.121 60.58 188.113 60.556C188.105 60.524 188.085 60.508 188.053 60.508C187.981 60.508 187.865 60.58 187.705 60.724C187.553 60.86 187.389 61.024 187.213 61.216C187.037 61.408 186.873 61.592 186.721 61.768C186.577 61.936 186.481 62.052 186.433 62.116C186.369 62.196 186.305 62.28 186.241 62.368C186.185 62.456 186.133 62.544 186.085 62.632C186.029 62.744 185.965 62.888 185.893 63.064C185.829 63.24 185.797 63.392 185.797 63.52C185.797 63.624 185.829 63.716 185.893 63.796C185.965 63.868 186.053 63.904 186.157 63.904ZM189.265 64.06C189.113 64.06 189.005 64.02 188.941 63.94C188.885 63.852 188.857 63.7 188.857 63.484C188.857 63.172 188.897 62.844 188.977 62.5C189.057 62.156 189.165 61.824 189.301 61.504C189.437 61.176 189.589 60.892 189.757 60.652C189.885 60.476 190.057 60.312 190.273 60.16C190.489 60.008 190.721 59.884 190.969 59.788C191.217 59.692 191.449 59.644 191.665 59.644C191.737 59.644 191.825 59.656 191.929 59.68C192.033 59.696 192.113 59.728 192.169 59.776C192.209 59.808 192.233 59.852 192.241 59.908C192.257 59.964 192.265 60.016 192.265 60.064C192.265 60.272 192.229 60.516 192.157 60.796C192.093 61.068 192.005 61.348 191.893 61.636C191.781 61.924 191.661 62.196 191.533 62.452C191.405 62.7 191.277 62.908 191.149 63.076C191.077 63.172 190.961 63.28 190.801 63.4C190.641 63.512 190.465 63.62 190.273 63.724C190.089 63.82 189.905 63.9 189.721 63.964C189.537 64.028 189.385 64.06 189.265 64.06ZM189.589 63.724C189.965 63.644 190.269 63.464 190.501 63.184C190.685 62.968 190.857 62.684 191.017 62.332C191.177 61.98 191.305 61.616 191.401 61.24C191.505 60.864 191.557 60.536 191.557 60.256C191.557 60.232 191.553 60.192 191.545 60.136C191.545 60.08 191.533 60.048 191.509 60.04C191.413 59.992 191.305 59.968 191.185 59.968C191.105 59.968 191.001 59.996 190.873 60.052C190.745 60.1 190.649 60.156 190.585 60.22C190.545 60.26 190.505 60.316 190.465 60.388C190.433 60.452 190.401 60.508 190.369 60.556C190.217 60.796 190.069 61.076 189.925 61.396C189.789 61.716 189.677 62.044 189.589 62.38C189.501 62.716 189.457 63.032 189.457 63.328C189.457 63.424 189.465 63.512 189.481 63.592C189.505 63.664 189.541 63.708 189.589 63.724ZM191.811 64.156C191.795 64.156 191.787 64.152 191.787 64.144C191.787 64.112 191.803 64.08 191.835 64.048C191.859 64.024 191.879 64 191.895 63.976C191.967 63.856 192.047 63.652 192.135 63.364C192.231 63.068 192.323 62.744 192.411 62.392C192.507 62.04 192.591 61.712 192.663 61.408C192.743 61.096 192.799 60.86 192.831 60.7C192.847 60.636 192.863 60.552 192.879 60.448C192.903 60.344 192.931 60.24 192.963 60.136C192.995 60.032 193.031 59.964 193.071 59.932C193.143 59.868 193.251 59.812 193.395 59.764C193.539 59.716 193.683 59.68 193.827 59.656C193.979 59.624 194.103 59.608 194.199 59.608C194.215 59.608 194.235 59.616 194.259 59.632C194.283 59.648 194.299 59.664 194.307 59.68L194.319 59.716C194.311 59.74 194.299 59.752 194.283 59.752C194.267 59.744 194.251 59.74 194.235 59.74C194.083 59.74 193.943 59.828 193.815 60.004C193.687 60.172 193.575 60.38 193.479 60.628C193.383 60.876 193.299 61.116 193.227 61.348C193.163 61.572 193.119 61.74 193.095 61.852C193.175 61.668 193.279 61.46 193.407 61.228C193.543 60.988 193.699 60.76 193.875 60.544C194.051 60.32 194.243 60.136 194.451 59.992C194.659 59.84 194.879 59.764 195.111 59.764C195.143 59.764 195.195 59.772 195.267 59.788C195.347 59.796 195.419 59.816 195.483 59.848C195.555 59.872 195.591 59.904 195.591 59.944L195.579 59.956H195.567L195.495 59.932C195.519 59.988 195.535 60.044 195.543 60.1C195.551 60.156 195.555 60.212 195.555 60.268C195.555 60.316 195.539 60.42 195.507 60.58C195.483 60.74 195.447 60.892 195.399 61.036C195.359 61.172 195.315 61.24 195.267 61.24C195.235 61.24 195.219 61.228 195.219 61.204C195.219 61.164 195.231 61.1 195.255 61.012C195.287 60.916 195.303 60.828 195.303 60.748C195.303 60.604 195.267 60.488 195.195 60.4C195.123 60.312 195.015 60.268 194.871 60.268C194.631 60.268 194.399 60.372 194.175 60.58C193.951 60.78 193.747 61.032 193.563 61.336C193.379 61.632 193.223 61.932 193.095 62.236C192.967 62.54 192.879 62.788 192.831 62.98C192.799 63.084 192.771 63.22 192.747 63.388C192.723 63.548 192.663 63.66 192.567 63.724C192.543 63.732 192.467 63.772 192.339 63.844C192.219 63.916 192.103 63.984 191.991 64.048C191.871 64.12 191.811 64.156 191.811 64.156ZM195.484 64.036C195.356 64.036 195.268 64.004 195.22 63.94C195.172 63.876 195.148 63.784 195.148 63.664C195.148 63.456 195.196 63.196 195.292 62.884C195.388 62.564 195.508 62.228 195.652 61.876C195.796 61.516 195.936 61.176 196.072 60.856C196.216 60.528 196.332 60.26 196.42 60.052C196.316 60.06 196.212 60.064 196.108 60.064C196.004 60.064 195.896 60.068 195.784 60.076C195.768 60.06 195.76 60.044 195.76 60.028C195.76 59.98 195.792 59.924 195.856 59.86C195.92 59.796 195.992 59.744 196.072 59.704C196.16 59.656 196.224 59.632 196.264 59.632H196.6C196.68 59.44 196.76 59.248 196.84 59.056C196.928 58.864 197.008 58.672 197.08 58.48C197.12 58.376 197.164 58.292 197.212 58.228C197.268 58.156 197.344 58.088 197.44 58.024C197.576 57.936 197.744 57.864 197.944 57.808C198.144 57.752 198.32 57.724 198.472 57.724C198.488 57.724 198.504 57.732 198.52 57.748C198.544 57.764 198.56 57.776 198.568 57.784V57.832C198.568 57.856 198.556 57.864 198.532 57.856C198.516 57.848 198.5 57.844 198.484 57.844C198.388 57.844 198.276 57.924 198.148 58.084C198.02 58.236 197.888 58.42 197.752 58.636C197.616 58.852 197.496 59.06 197.392 59.26C197.296 59.452 197.228 59.584 197.188 59.656H197.668C197.796 59.656 197.924 59.656 198.052 59.656C198.18 59.648 198.308 59.636 198.436 59.62L198.448 59.644C198.44 59.644 198.436 59.648 198.436 59.656C198.436 59.664 198.432 59.668 198.424 59.668C198.4 59.692 198.34 59.732 198.244 59.788C198.148 59.836 198.052 59.88 197.956 59.92C197.86 59.96 197.792 59.984 197.752 59.992C197.624 60.008 197.496 60.02 197.368 60.028C197.248 60.036 197.124 60.04 196.996 60.04C196.916 60.216 196.812 60.448 196.684 60.736C196.556 61.024 196.428 61.332 196.3 61.66C196.172 61.98 196.064 62.288 195.976 62.584C195.896 62.872 195.856 63.112 195.856 63.304C195.856 63.352 195.864 63.408 195.88 63.472C195.896 63.536 195.936 63.568 196 63.568C196.056 63.568 196.112 63.548 196.168 63.508C196.344 63.404 196.516 63.264 196.684 63.088C196.86 62.904 197.02 62.708 197.164 62.5C197.316 62.284 197.436 62.088 197.524 61.912C197.54 61.92 197.548 61.936 197.548 61.96C197.548 62.008 197.52 62.08 197.464 62.176C197.408 62.264 197.344 62.36 197.272 62.464C197.2 62.568 197.132 62.66 197.068 62.74C197.012 62.82 196.984 62.868 196.984 62.884C196.976 62.948 196.96 62.996 196.936 63.028C196.92 63.052 196.9 63.096 196.876 63.16C196.772 63.256 196.64 63.376 196.48 63.52C196.32 63.656 196.152 63.776 195.976 63.88C195.8 63.984 195.636 64.036 195.484 64.036ZM199.749 58.84C199.685 58.84 199.585 58.816 199.449 58.768C199.321 58.712 199.257 58.644 199.257 58.564C199.257 58.556 199.257 58.552 199.257 58.552C199.265 58.544 199.269 58.536 199.269 58.528C199.309 58.448 199.397 58.4 199.533 58.384C199.677 58.368 199.785 58.344 199.857 58.312C200.017 58.248 200.173 58.196 200.325 58.156C200.477 58.116 200.621 58.044 200.757 57.94C200.789 57.956 200.805 57.972 200.805 57.988C200.805 58.02 200.769 58.064 200.697 58.12C200.633 58.176 200.589 58.224 200.565 58.264C200.533 58.312 200.461 58.384 200.349 58.48C200.245 58.568 200.133 58.652 200.013 58.732C199.893 58.804 199.805 58.84 199.749 58.84ZM197.721 64.036C197.593 64.036 197.505 64.004 197.457 63.94C197.409 63.876 197.385 63.784 197.385 63.664C197.385 63.4 197.437 63.08 197.541 62.704C197.653 62.328 197.777 61.948 197.913 61.564C198.049 61.172 198.157 60.824 198.237 60.52C198.269 60.408 198.345 60.332 198.465 60.292C198.593 60.244 198.701 60.188 198.789 60.124C198.917 60.036 199.053 59.964 199.197 59.908C199.341 59.844 199.493 59.812 199.653 59.812C199.693 59.812 199.717 59.82 199.725 59.836C199.741 59.852 199.749 59.864 199.749 59.872C199.749 59.92 199.721 59.944 199.665 59.944C199.553 59.944 199.437 60.012 199.317 60.148C199.197 60.276 199.077 60.444 198.957 60.652C198.837 60.86 198.729 61.076 198.633 61.3C198.537 61.524 198.453 61.732 198.381 61.924C198.309 62.108 198.261 62.244 198.237 62.332C198.197 62.46 198.157 62.612 198.117 62.788C198.077 62.956 198.057 63.112 198.057 63.256C198.057 63.312 198.065 63.38 198.081 63.46C198.097 63.532 198.145 63.568 198.225 63.568C198.281 63.568 198.341 63.548 198.405 63.508C198.581 63.404 198.753 63.264 198.921 63.088C199.097 62.904 199.257 62.708 199.401 62.5C199.553 62.284 199.673 62.088 199.761 61.912C199.777 61.92 199.785 61.936 199.785 61.96C199.785 62.008 199.757 62.08 199.701 62.176C199.645 62.264 199.581 62.36 199.509 62.464C199.437 62.568 199.369 62.66 199.305 62.74C199.249 62.82 199.221 62.868 199.221 62.884C199.213 62.948 199.201 62.996 199.185 63.028C199.169 63.052 199.145 63.096 199.113 63.16C199.017 63.256 198.889 63.376 198.729 63.52C198.569 63.656 198.401 63.776 198.225 63.88C198.049 63.984 197.881 64.036 197.721 64.036ZM198.889 64.156C198.881 64.156 198.877 64.152 198.877 64.144C198.877 64.112 198.893 64.08 198.925 64.048C198.949 64.016 198.965 63.992 198.973 63.976C199.029 63.888 199.097 63.74 199.177 63.532C199.249 63.316 199.321 63.076 199.393 62.812C199.473 62.54 199.545 62.268 199.609 61.996C199.681 61.716 199.745 61.46 199.801 61.228C199.857 60.996 199.897 60.82 199.921 60.7C199.937 60.636 199.953 60.552 199.969 60.448C199.985 60.344 200.009 60.24 200.041 60.136C200.073 60.032 200.109 59.964 200.149 59.932C200.229 59.868 200.337 59.812 200.473 59.764C200.617 59.716 200.765 59.68 200.917 59.656C201.069 59.624 201.193 59.608 201.289 59.608C201.305 59.608 201.325 59.616 201.349 59.632C201.373 59.648 201.389 59.664 201.397 59.68V59.716C201.397 59.74 201.389 59.752 201.373 59.752C201.357 59.744 201.341 59.74 201.325 59.74C201.149 59.74 200.993 59.84 200.857 60.04C200.721 60.232 200.605 60.472 200.509 60.76C200.413 61.04 200.333 61.312 200.269 61.576C200.205 61.84 200.157 62.04 200.125 62.176C200.381 61.736 200.673 61.316 201.001 60.916C201.337 60.508 201.729 60.18 202.177 59.932C202.233 59.9 202.297 59.868 202.369 59.836C202.441 59.796 202.505 59.776 202.561 59.776C202.665 59.776 202.729 59.824 202.753 59.92C202.777 60.008 202.789 60.092 202.789 60.172C202.789 60.276 202.753 60.428 202.681 60.628C202.609 60.828 202.525 61.028 202.429 61.228C202.341 61.42 202.273 61.572 202.225 61.684C202.177 61.812 202.121 61.976 202.057 62.176C201.993 62.376 201.937 62.576 201.889 62.776C201.841 62.976 201.817 63.144 201.817 63.28C201.817 63.336 201.825 63.4 201.841 63.472C201.857 63.544 201.901 63.58 201.973 63.58C202.013 63.58 202.045 63.572 202.069 63.556C202.101 63.54 202.133 63.524 202.165 63.508C202.349 63.404 202.525 63.264 202.693 63.088C202.869 62.904 203.029 62.708 203.173 62.5C203.317 62.284 203.437 62.088 203.533 61.912C203.541 61.92 203.545 61.936 203.545 61.96C203.545 62.008 203.517 62.08 203.461 62.176C203.405 62.264 203.341 62.36 203.269 62.464C203.197 62.568 203.129 62.66 203.065 62.74C203.009 62.82 202.981 62.868 202.981 62.884C202.973 62.94 202.961 62.988 202.945 63.028C202.929 63.06 202.909 63.104 202.885 63.16C202.789 63.256 202.649 63.376 202.465 63.52C202.289 63.656 202.105 63.78 201.913 63.892C201.729 63.996 201.565 64.048 201.421 64.048C201.293 64.048 201.205 64 201.157 63.904C201.117 63.8 201.097 63.692 201.097 63.58C201.097 63.364 201.141 63.108 201.229 62.812C201.317 62.508 201.421 62.208 201.541 61.912C201.661 61.608 201.761 61.352 201.841 61.144C201.865 61.08 201.901 60.98 201.949 60.844C202.005 60.708 202.033 60.612 202.033 60.556C202.033 60.516 202.025 60.472 202.009 60.424C202.001 60.376 201.965 60.352 201.901 60.352C201.821 60.352 201.717 60.404 201.589 60.508C201.469 60.612 201.377 60.696 201.313 60.76C200.969 61.144 200.673 61.572 200.425 62.044C200.177 62.508 199.969 62.988 199.801 63.484C199.777 63.548 199.761 63.596 199.753 63.628C199.753 63.652 199.721 63.684 199.657 63.724C199.633 63.74 199.557 63.784 199.429 63.856C199.309 63.928 199.193 63.996 199.081 64.06C198.961 64.124 198.897 64.156 198.889 64.156ZM201.643 67.336C201.595 67.336 201.503 67.316 201.367 67.276C201.231 67.236 201.107 67.184 200.995 67.12C200.875 67.056 200.815 66.992 200.815 66.928C200.815 66.912 200.831 66.904 200.863 66.904C200.911 66.92 200.947 66.928 200.971 66.928C200.979 66.928 200.999 66.92 201.031 66.904C200.999 66.856 200.983 66.808 200.983 66.76C200.983 66.72 200.995 66.696 201.019 66.688C201.003 66.64 200.983 66.592 200.959 66.544C200.935 66.504 200.911 66.46 200.887 66.412C200.871 66.38 200.835 66.328 200.779 66.256C200.723 66.192 200.695 66.144 200.695 66.112C200.695 66.088 200.703 66.052 200.719 66.004C200.887 66.236 201.031 66.42 201.151 66.556C201.271 66.692 201.415 66.788 201.583 66.844C201.751 66.908 201.987 66.94 202.291 66.94C202.643 66.94 202.971 66.812 203.275 66.556C203.587 66.3 203.867 65.968 204.115 65.56C204.371 65.16 204.595 64.728 204.787 64.264C204.987 63.8 205.155 63.356 205.291 62.932C205.435 62.5 205.543 62.144 205.615 61.864C205.519 61.992 205.379 62.176 205.195 62.416C205.011 62.656 204.807 62.9 204.583 63.148C204.359 63.388 204.135 63.596 203.911 63.772C203.695 63.94 203.503 64.024 203.335 64.024C203.207 64.024 203.123 63.976 203.083 63.88C203.051 63.776 203.035 63.672 203.035 63.568C203.035 63.2 203.107 62.8 203.251 62.368C203.395 61.928 203.583 61.508 203.815 61.108C204.047 60.708 204.299 60.384 204.571 60.136C204.875 59.872 205.215 59.74 205.591 59.74C205.751 59.74 205.907 59.76 206.059 59.8C206.219 59.832 206.375 59.88 206.527 59.944C206.663 59.848 206.811 59.764 206.971 59.692C207.131 59.62 207.295 59.584 207.463 59.584C207.503 59.584 207.535 59.608 207.559 59.656V59.692C207.551 59.716 207.539 59.728 207.523 59.728C207.507 59.72 207.491 59.716 207.475 59.716C207.323 59.716 207.179 59.8 207.043 59.968C206.915 60.136 206.799 60.344 206.695 60.592C206.591 60.832 206.503 61.064 206.431 61.288C206.359 61.512 206.307 61.68 206.275 61.792C206.099 62.424 205.879 63.068 205.615 63.724C205.359 64.372 205.023 64.96 204.607 65.488C204.511 65.608 204.411 65.724 204.307 65.836C204.203 65.956 204.095 66.072 203.983 66.184C203.671 66.504 203.319 66.776 202.927 67C202.535 67.224 202.107 67.336 201.643 67.336ZM203.863 63.508C203.951 63.508 204.059 63.452 204.187 63.34C204.323 63.22 204.463 63.08 204.607 62.92C204.759 62.752 204.891 62.592 205.003 62.44C205.123 62.288 205.207 62.176 205.255 62.104C205.351 61.96 205.459 61.78 205.579 61.564C205.707 61.348 205.815 61.124 205.903 60.892C205.999 60.66 206.047 60.464 206.047 60.304C206.047 60.056 205.923 59.932 205.675 59.932C205.531 59.932 205.379 59.996 205.219 60.124C205.059 60.252 204.931 60.368 204.835 60.472C204.731 60.6 204.611 60.784 204.475 61.024C204.347 61.264 204.227 61.524 204.115 61.804C204.003 62.084 203.907 62.352 203.827 62.608C203.755 62.864 203.719 63.076 203.719 63.244C203.719 63.292 203.727 63.348 203.743 63.412C203.767 63.476 203.807 63.508 203.863 63.508ZM212.561 64.756C212.481 64.756 212.417 64.744 212.369 64.72C212.321 64.696 212.297 64.644 212.297 64.564C212.297 64.532 212.305 64.484 212.321 64.42C212.345 64.356 212.361 64.308 212.369 64.276C212.401 64.132 212.425 63.988 212.441 63.844C212.465 63.692 212.489 63.544 212.513 63.4C212.593 62.832 212.661 62.264 212.717 61.696C212.781 61.12 212.813 60.548 212.813 59.98C212.813 59.66 212.793 59.32 212.753 58.96C212.721 58.6 212.657 58.248 212.561 57.904C212.465 57.552 212.325 57.24 212.141 56.968C211.893 57.032 211.593 57.112 211.241 57.208C210.897 57.296 210.553 57.376 210.209 57.448C209.865 57.512 209.565 57.544 209.309 57.544C209.157 57.544 209.021 57.516 208.901 57.46C208.781 57.396 208.721 57.276 208.721 57.1C208.721 56.884 208.785 56.696 208.913 56.536C209.033 56.368 209.189 56.228 209.381 56.116C209.573 55.996 209.777 55.908 209.993 55.852C210.209 55.788 210.405 55.756 210.581 55.756C210.909 55.756 211.241 55.812 211.577 55.924C211.913 56.036 212.205 56.196 212.453 56.404C212.541 56.38 212.681 56.344 212.873 56.296C213.065 56.24 213.269 56.184 213.485 56.128C213.701 56.072 213.901 56.024 214.085 55.984C214.269 55.944 214.397 55.924 214.469 55.924H214.505C214.665 55.988 214.761 56.048 214.793 56.104C214.833 56.16 214.861 56.224 214.877 56.296C214.901 56.36 214.961 56.452 215.057 56.572C215.073 56.604 215.085 56.628 215.093 56.644C215.109 56.652 215.117 56.676 215.117 56.716C215.117 56.732 215.109 56.76 215.093 56.8C215.085 56.84 215.065 56.86 215.033 56.86C215.009 56.86 214.989 56.848 214.973 56.824C214.965 56.792 214.957 56.768 214.949 56.752C214.909 56.656 214.885 56.588 214.877 56.548C214.877 56.508 214.861 56.476 214.829 56.452C214.797 56.428 214.717 56.4 214.589 56.368H214.541C214.461 56.368 214.341 56.384 214.181 56.416C214.029 56.448 213.861 56.492 213.677 56.548C213.493 56.596 213.321 56.644 213.161 56.692C213.009 56.732 212.889 56.764 212.801 56.788C212.977 57.044 213.109 57.34 213.197 57.676C213.293 58.004 213.361 58.344 213.401 58.696C213.441 59.048 213.461 59.376 213.461 59.68C213.461 60.128 213.437 60.576 213.389 61.024C213.349 61.472 213.309 61.92 213.269 62.368C213.245 62.584 213.221 62.8 213.197 63.016C213.181 63.232 213.145 63.444 213.089 63.652C213.217 63.508 213.333 63.356 213.437 63.196C213.541 63.028 213.645 62.864 213.749 62.704C213.901 62.464 214.049 62.224 214.193 61.984C214.345 61.736 214.497 61.488 214.649 61.24C214.905 60.832 215.189 60.396 215.501 59.932C215.813 59.46 216.145 58.996 216.497 58.54C216.857 58.076 217.229 57.644 217.613 57.244C218.005 56.844 218.401 56.508 218.801 56.236C219.089 56.036 219.413 55.856 219.773 55.696C220.141 55.536 220.501 55.456 220.853 55.456C221.061 55.456 221.277 55.5 221.501 55.588C221.725 55.668 221.913 55.788 222.065 55.948C222.225 56.108 222.305 56.308 222.305 56.548C222.305 56.676 222.285 56.812 222.245 56.956C222.205 57.1 222.157 57.232 222.101 57.352C222.093 57.384 222.061 57.452 222.005 57.556C221.957 57.652 221.913 57.7 221.873 57.7C221.865 57.7 221.861 57.688 221.861 57.664C221.861 57.576 221.877 57.484 221.909 57.388C221.949 57.284 221.969 57.176 221.969 57.064C221.969 56.84 221.885 56.648 221.717 56.488C221.557 56.328 221.361 56.204 221.129 56.116C220.905 56.028 220.697 55.984 220.505 55.984C220.209 55.984 219.913 56.044 219.617 56.164C219.329 56.276 219.065 56.412 218.825 56.572C218.585 56.724 218.333 56.932 218.069 57.196C217.805 57.46 217.545 57.748 217.289 58.06C217.041 58.364 216.805 58.672 216.581 58.984C216.365 59.288 216.173 59.56 216.005 59.8C215.637 60.344 215.273 60.888 214.913 61.432C214.553 61.976 214.197 62.528 213.845 63.088C213.765 63.216 213.681 63.34 213.593 63.46C213.513 63.58 213.429 63.7 213.341 63.82C213.285 63.9 213.217 63.988 213.137 64.084C213.057 64.18 212.997 64.276 212.957 64.372C212.941 64.404 212.929 64.452 212.921 64.516C212.913 64.58 212.901 64.624 212.885 64.648C212.853 64.688 212.801 64.716 212.729 64.732C212.665 64.748 212.609 64.756 212.561 64.756ZM209.501 57.016C209.733 57.016 209.985 56.992 210.257 56.944C210.529 56.896 210.801 56.836 211.073 56.764C211.345 56.692 211.593 56.628 211.817 56.572C211.633 56.38 211.433 56.264 211.217 56.224C211.009 56.176 210.777 56.152 210.521 56.152C210.297 56.152 210.065 56.18 209.825 56.236C209.585 56.284 209.385 56.4 209.225 56.584C209.193 56.616 209.165 56.652 209.141 56.692C209.125 56.732 209.117 56.776 209.117 56.824C209.117 56.92 209.165 56.976 209.261 56.992C209.357 57.008 209.437 57.016 209.501 57.016ZM216.155 64.024C216.027 64.024 215.943 63.976 215.903 63.88C215.871 63.776 215.855 63.672 215.855 63.568C215.855 63.192 215.927 62.788 216.071 62.356C216.215 61.924 216.403 61.512 216.635 61.12C216.867 60.72 217.119 60.392 217.391 60.136C217.679 59.872 218.019 59.74 218.411 59.74C218.571 59.74 218.727 59.76 218.879 59.8C219.039 59.832 219.195 59.88 219.347 59.944C219.483 59.848 219.631 59.764 219.791 59.692C219.951 59.62 220.115 59.584 220.283 59.584C220.323 59.584 220.355 59.608 220.379 59.656V59.692C220.379 59.716 220.367 59.728 220.343 59.728C220.327 59.72 220.311 59.716 220.295 59.716C220.167 59.716 220.027 59.816 219.875 60.016C219.723 60.208 219.571 60.456 219.419 60.76C219.267 61.064 219.127 61.384 218.999 61.72C218.879 62.056 218.779 62.364 218.699 62.644C218.627 62.924 218.591 63.136 218.591 63.28C218.591 63.336 218.599 63.4 218.615 63.472C218.639 63.544 218.687 63.58 218.759 63.58C218.799 63.58 218.831 63.572 218.855 63.556C218.887 63.54 218.919 63.524 218.951 63.508C219.127 63.404 219.299 63.264 219.467 63.088C219.643 62.904 219.803 62.708 219.947 62.5C220.099 62.284 220.223 62.088 220.319 61.912C220.327 61.92 220.331 61.936 220.331 61.96C220.331 62.008 220.303 62.08 220.247 62.176C220.191 62.264 220.127 62.36 220.055 62.464C219.983 62.568 219.915 62.66 219.851 62.74C219.795 62.82 219.767 62.868 219.767 62.884C219.759 62.94 219.747 62.988 219.731 63.028C219.715 63.06 219.691 63.104 219.659 63.16C219.555 63.264 219.423 63.384 219.263 63.52C219.103 63.656 218.935 63.776 218.759 63.88C218.591 63.976 218.427 64.024 218.267 64.024C218.019 64.024 217.895 63.892 217.895 63.628C217.895 63.468 217.927 63.284 217.991 63.076C218.063 62.86 218.143 62.648 218.231 62.44C218.327 62.224 218.411 62.044 218.483 61.9C218.483 61.892 218.483 61.88 218.483 61.864C218.483 61.848 218.479 61.84 218.471 61.84C218.463 61.84 218.451 61.848 218.435 61.864C218.339 61.992 218.199 62.176 218.015 62.416C217.831 62.656 217.627 62.9 217.403 63.148C217.187 63.388 216.967 63.596 216.743 63.772C216.519 63.94 216.323 64.024 216.155 64.024ZM216.683 63.508C216.771 63.508 216.879 63.452 217.007 63.34C217.143 63.22 217.283 63.08 217.427 62.92C217.579 62.752 217.711 62.592 217.823 62.44C217.943 62.288 218.027 62.176 218.075 62.104C218.171 61.96 218.279 61.78 218.399 61.564C218.527 61.348 218.635 61.124 218.723 60.892C218.819 60.66 218.867 60.464 218.867 60.304C218.867 60.056 218.743 59.932 218.495 59.932C218.351 59.932 218.199 59.996 218.039 60.124C217.879 60.252 217.751 60.368 217.655 60.472C217.551 60.6 217.431 60.784 217.295 61.024C217.167 61.264 217.047 61.524 216.935 61.804C216.823 62.084 216.727 62.352 216.647 62.608C216.575 62.864 216.539 63.076 216.539 63.244C216.539 63.292 216.547 63.348 216.563 63.412C216.579 63.476 216.619 63.508 216.683 63.508ZM220.115 63.988C219.875 63.988 219.755 63.856 219.755 63.592C219.755 63.408 219.803 63.152 219.899 62.824C219.995 62.496 220.107 62.148 220.235 61.78C220.371 61.404 220.503 61.052 220.631 60.724C220.767 60.388 220.871 60.124 220.943 59.932C221.047 59.652 221.175 59.328 221.327 58.96C221.479 58.592 221.655 58.22 221.855 57.844C222.055 57.46 222.279 57.108 222.527 56.788C222.783 56.468 223.063 56.208 223.367 56.008C223.679 55.808 224.019 55.708 224.387 55.708C224.787 55.708 225.051 55.78 225.179 55.924C225.315 56.068 225.383 56.216 225.383 56.368C225.383 56.432 225.359 56.472 225.311 56.488C225.271 56.504 225.251 56.484 225.251 56.428C225.251 56.26 225.183 56.124 225.047 56.02C224.919 55.908 224.759 55.852 224.567 55.852C224.239 55.852 223.927 55.976 223.631 56.224C223.335 56.472 223.059 56.792 222.803 57.184C222.547 57.576 222.315 57.992 222.107 58.432C221.899 58.864 221.715 59.276 221.555 59.668C221.403 60.052 221.283 60.36 221.195 60.592C221.139 60.744 221.063 60.944 220.967 61.192C220.871 61.432 220.775 61.688 220.679 61.96C220.591 62.224 220.515 62.48 220.451 62.728C220.387 62.968 220.355 63.164 220.355 63.316C220.355 63.364 220.363 63.42 220.379 63.484C220.395 63.548 220.435 63.58 220.499 63.58C220.539 63.58 220.571 63.572 220.595 63.556C220.627 63.54 220.659 63.524 220.691 63.508C220.875 63.404 221.051 63.264 221.219 63.088C221.395 62.904 221.555 62.708 221.699 62.5C221.843 62.284 221.963 62.088 222.059 61.912C222.067 61.92 222.071 61.936 222.071 61.96C222.071 62.024 222.023 62.124 221.927 62.26C221.839 62.396 221.747 62.528 221.651 62.656C221.563 62.776 221.515 62.852 221.507 62.884C221.499 62.94 221.487 62.988 221.471 63.028C221.455 63.06 221.435 63.104 221.411 63.16C221.315 63.256 221.191 63.368 221.039 63.496C220.895 63.624 220.743 63.74 220.583 63.844C220.423 63.94 220.267 63.988 220.115 63.988ZM223.914 64.036C223.77 64.036 223.674 63.996 223.626 63.916C223.578 63.828 223.554 63.72 223.554 63.592C223.554 63.384 223.586 63.152 223.65 62.896C223.722 62.632 223.786 62.4 223.842 62.2C223.634 62.52 223.394 62.836 223.122 63.148C222.85 63.46 222.538 63.708 222.186 63.892C222.13 63.924 222.066 63.956 221.994 63.988C221.922 64.012 221.854 64.024 221.79 64.024C221.678 64.024 221.602 63.984 221.562 63.904C221.53 63.824 221.514 63.74 221.514 63.652V63.604C221.514 63.476 221.538 63.348 221.586 63.22C221.634 63.084 221.678 62.956 221.718 62.836C221.782 62.652 221.858 62.424 221.946 62.152C222.042 61.872 222.126 61.592 222.198 61.312C222.278 61.032 222.318 60.804 222.318 60.628C222.318 60.556 222.306 60.488 222.282 60.424C222.266 60.36 222.214 60.324 222.126 60.316C222.126 60.316 222.118 60.316 222.102 60.316C222.094 60.316 222.09 60.312 222.09 60.304C222.09 60.28 222.13 60.256 222.21 60.232C222.298 60.2 222.402 60.168 222.522 60.136C222.642 60.104 222.754 60.08 222.858 60.064C222.962 60.04 223.03 60.028 223.062 60.028C223.078 60.028 223.106 60.032 223.146 60.04C223.194 60.048 223.218 60.072 223.218 60.112C223.218 60.128 223.214 60.14 223.206 60.148C223.126 60.34 223.034 60.568 222.93 60.832C222.826 61.096 222.722 61.376 222.618 61.672C222.522 61.96 222.442 62.244 222.378 62.524C222.314 62.796 222.282 63.04 222.282 63.256C222.282 63.296 222.29 63.336 222.306 63.376C222.322 63.416 222.354 63.436 222.402 63.436C222.49 63.436 222.598 63.384 222.726 63.28C222.862 63.176 222.958 63.096 223.014 63.04C223.31 62.728 223.578 62.348 223.818 61.9C224.058 61.452 224.242 61.024 224.37 60.616C224.41 60.496 224.45 60.412 224.49 60.364C224.53 60.308 224.602 60.24 224.706 60.16C224.834 60.072 224.974 59.992 225.126 59.92C225.286 59.848 225.446 59.812 225.606 59.812C225.622 59.812 225.642 59.824 225.666 59.848C225.69 59.864 225.702 59.884 225.702 59.908C225.702 59.924 225.69 59.936 225.666 59.944C225.65 59.944 225.634 59.944 225.618 59.944C225.514 59.944 225.406 60.008 225.294 60.136C225.182 60.264 225.074 60.428 224.97 60.628C224.866 60.828 224.77 61.036 224.682 61.252C224.602 61.468 224.53 61.668 224.466 61.852C224.41 62.028 224.37 62.16 224.346 62.248C224.314 62.4 224.278 62.552 224.238 62.704C224.206 62.856 224.19 63.012 224.19 63.172C224.19 63.236 224.198 63.32 224.214 63.424C224.238 63.52 224.298 63.568 224.394 63.568C224.45 63.568 224.506 63.548 224.562 63.508C224.738 63.404 224.906 63.264 225.066 63.088C225.226 62.904 225.374 62.708 225.51 62.5C225.646 62.284 225.754 62.088 225.834 61.912C225.85 61.92 225.858 61.936 225.858 61.96C225.858 62.024 225.814 62.128 225.726 62.272C225.646 62.408 225.562 62.54 225.474 62.668C225.394 62.788 225.35 62.86 225.342 62.884C225.334 62.94 225.322 62.988 225.306 63.028C225.298 63.06 225.282 63.104 225.258 63.16C225.162 63.264 225.034 63.384 224.874 63.52C224.722 63.656 224.562 63.776 224.394 63.88C224.226 63.984 224.066 64.036 223.914 64.036ZM226.066 64.048C225.602 64.048 225.37 63.812 225.37 63.34C225.37 62.988 225.442 62.612 225.586 62.212C225.73 61.804 225.918 61.416 226.15 61.048C226.382 60.672 226.626 60.368 226.882 60.136C227.186 59.872 227.542 59.74 227.95 59.74C228.046 59.74 228.162 59.752 228.298 59.776C228.442 59.8 228.566 59.848 228.67 59.92C228.774 59.984 228.826 60.08 228.826 60.208C228.826 60.392 228.758 60.604 228.622 60.844C228.486 61.076 228.362 61.264 228.25 61.408C228.29 61.416 228.338 61.428 228.394 61.444C228.458 61.46 228.49 61.492 228.49 61.54C228.49 61.564 228.47 61.576 228.43 61.576C228.358 61.576 228.286 61.568 228.214 61.552C228.142 61.536 228.07 61.528 227.998 61.528C227.726 61.528 227.446 61.568 227.158 61.648C226.878 61.728 226.61 61.812 226.354 61.9C226.274 62.092 226.202 62.304 226.138 62.536C226.082 62.768 226.054 62.988 226.054 63.196C226.054 63.348 226.082 63.484 226.138 63.604C226.202 63.724 226.322 63.784 226.498 63.784C226.714 63.784 226.934 63.724 227.158 63.604C227.39 63.476 227.61 63.316 227.818 63.124C228.034 62.924 228.226 62.716 228.394 62.5C228.562 62.284 228.694 62.088 228.79 61.912C228.798 61.92 228.802 61.936 228.802 61.96C228.802 62.032 228.758 62.132 228.67 62.26C228.582 62.38 228.49 62.5 228.394 62.62C228.306 62.74 228.254 62.828 228.238 62.884C228.23 62.94 228.214 62.988 228.19 63.028C228.174 63.068 228.154 63.112 228.13 63.16C227.994 63.296 227.798 63.436 227.542 63.58C227.294 63.716 227.034 63.828 226.762 63.916C226.498 64.004 226.266 64.048 226.066 64.048ZM226.522 61.516C226.73 61.476 226.934 61.444 227.134 61.42C227.342 61.396 227.55 61.384 227.758 61.384C227.822 61.384 227.886 61.384 227.95 61.384C228.014 61.384 228.078 61.388 228.142 61.396C228.206 61.26 228.258 61.112 228.298 60.952C228.346 60.792 228.37 60.636 228.37 60.484C228.37 60.364 228.346 60.244 228.298 60.124C228.25 59.996 228.146 59.932 227.986 59.932C227.834 59.932 227.678 59.996 227.518 60.124C227.366 60.252 227.242 60.368 227.146 60.472C227.018 60.624 226.902 60.792 226.798 60.976C226.702 61.152 226.61 61.332 226.522 61.516ZM228.659 64.096C228.507 64.096 228.339 64.068 228.155 64.012C227.971 63.956 227.835 63.852 227.747 63.7V63.676C227.747 63.636 227.799 63.576 227.903 63.496C227.999 63.408 228.103 63.324 228.215 63.244C228.327 63.156 228.399 63.092 228.431 63.052L228.515 63.028L228.539 63.076C228.483 63.124 228.455 63.176 228.455 63.232C228.455 63.352 228.499 63.452 228.587 63.532C228.683 63.612 228.791 63.672 228.911 63.712C229.039 63.752 229.151 63.772 229.247 63.772C229.359 63.772 229.499 63.74 229.667 63.676C229.843 63.612 229.999 63.524 230.135 63.412C230.271 63.3 230.339 63.176 230.339 63.04C230.339 62.832 230.275 62.652 230.147 62.5C230.019 62.348 229.871 62.204 229.703 62.068C229.535 61.932 229.387 61.788 229.259 61.636C229.131 61.484 229.067 61.308 229.067 61.108C229.067 60.876 229.135 60.668 229.271 60.484C229.415 60.292 229.595 60.132 229.811 60.004C230.035 59.868 230.267 59.768 230.507 59.704C230.747 59.632 230.967 59.596 231.167 59.596C231.199 59.596 231.271 59.604 231.383 59.62C231.495 59.628 231.599 59.648 231.695 59.68C231.799 59.704 231.851 59.74 231.851 59.788C231.851 59.804 231.847 59.812 231.839 59.812H231.815L231.719 59.788C231.743 59.844 231.755 59.912 231.755 59.992C231.755 60.064 231.739 60.156 231.707 60.268C231.675 60.38 231.639 60.468 231.599 60.532C231.591 60.548 231.551 60.6 231.479 60.688C231.407 60.776 231.335 60.86 231.263 60.94C231.191 61.02 231.147 61.06 231.131 61.06L231.119 61.036C231.135 60.996 231.187 60.928 231.275 60.832C231.363 60.728 231.407 60.596 231.407 60.436C231.407 60.268 231.331 60.132 231.179 60.028C231.027 59.916 230.871 59.86 230.711 59.86C230.559 59.86 230.399 59.908 230.231 60.004C230.071 60.1 229.935 60.224 229.823 60.376C229.719 60.528 229.667 60.684 229.667 60.844C229.667 60.988 229.735 61.14 229.871 61.3C230.015 61.452 230.175 61.608 230.351 61.768C230.535 61.92 230.695 62.072 230.831 62.224C230.975 62.376 231.047 62.52 231.047 62.656V62.692C231.047 62.892 230.959 63.08 230.783 63.256C230.607 63.424 230.387 63.572 230.123 63.7C229.859 63.828 229.591 63.928 229.319 64C229.055 64.064 228.835 64.096 228.659 64.096Z" fill="black"/>
<circle cx="196" cy="116" r="4" fill="#3BCF16"/>
<line x1="20" y1="113" x2="56" y2="113" stroke="white" stroke-width="4" stroke-linecap="round"/>
<line x1="25.0068" y1="100.858" x2="50.4626" y2="126.314" stroke="white" stroke-width="4" stroke-linecap="round"/>
<line x1="37" y1="131" x2="37" y2="95" stroke="white" stroke-width="4" stroke-linecap="round"/>
<line x1="24.1784" y1="126.314" x2="49.6342" y2="100.858" stroke="white" stroke-width="4" stroke-linecap="round"/>
<circle cx="37" cy="113" r="4" fill="#3BCF16"/>
<rect y="86" width="9" height="15" rx="4" fill="#3BCF16"/>
<line x1="52.2036" y1="70.9782" x2="59.1437" y2="70.0645" stroke="white" stroke-width="5" stroke-linecap="round"/>
<defs>
<linearGradient id="paint0_linear_5_56" x1="271" y1="43" x2="-24" y2="43" gradientUnits="userSpaceOnUse">
<stop stop-color="#3BCF16"/>
<stop offset="0.864407" stop-color="#3BCF16" stop-opacity="0.08"/>
</linearGradient>
</defs>
</svg>
